<svg xmlns="http://www.w3.org/2000/svg" viewBox="0 0 150 150">
  <path d="M139.7 74.6c.1-.5 0-1.1-.2-1.6-.1-.2-.1-.3-.1-.5 0-.9-.4-1.7-1.1-2.3-.3-.2-.5-.5-.7-.8-.5-.8-1.3-1.4-2.2-1.6-.2-.1-.5-.1-.8-.2-1.1-.3-2.1-.6-3.2-.9-.3-.1-.6-.2-.7-.5-.3-.4-.7-.7-1.2-.9-.3-.1-.7-.3-1-.4-.4-.1-.7-.3-.9-.7-.1-.3-.4-.6-.7-.7-.3-.1-.5-.4-.5-.6-.1-.3-.4-.6-.7-.6-.3-.1-.6-.1-.9-.2-.1 0-.2-.2-.2-.3 0 0 0-.1.1-.1.2-.3.5-.6.7-.9.5-.6 1.1-1.2 1.6-1.9s.9-1.4 1.2-2.2c.5-1.1 1.1-2 1.9-2.9.9-1 1.6-2.1 2-3.4.2-.7.6-1.4 1.1-2 .5-.6.9-1.3 1-2.1.1-.5.2-1 .4-1.5.4-1.2-.1-2.5-1.2-3.2-.4-.3-.9-.6-1.3-.8-1-.6-1-.4-.9-1.7v-.5c0-.4-.1-.9-.3-1.3-.6-1.3-1.2-2.5-1.9-3.7-.4-.8-1.1-1.4-1.9-1.8-.8-.4-1.6-1-2.4-1.4-.8-.4-.9-1-1-1.7V28c0-.8-.2-1.6-.8-2.2-.6-.7-1-1.5-1.1-2.4-.1-.5-.3-1-.6-1.4-.5-.7-.9-1.4-1.4-2-.2-.3-.5-.5-.9-.5-.5 0-1 0-1.5.1-.8.3-1.5.6-2.3.9-.6.3-1.2.8-1.6 1.4-.5.8-1 1.7-1.3 2.6-.1.4-.4.8-.8 1.1-.2-.5.1-.9.2-1.3 0-.1 0-.1.1-.2.4-.9.6-1.8.7-2.8.1-.5.1-1 .2-1.5.1-1.4-.2-2.7-.9-3.8-.3-.5-.8-.8-1.3-1-.5-.2-.9-.3-1.4-.5-.3-.1-.5-.2-.7-.4-.6-.8-1.6-1.1-2.5-.8-.5.1-.9-.3-1.3-.5-.3-.1-.4-.4-.5-.7-.1-.4-.4-.7-.7-.9-.5-.4-.9-.8-1.3-1.2-.3-.3-.6-.7-.8-1-.3-.5-.8-.8-1.3-.9-.3-.1-.7-.1-1-.2-.7 0-1.3-.3-1.7-.8-.5-.6-1.2-1.2-1.9-1.5-.3-.2-.5-.4-.7-.7-.2-.3-.4-.7-.5-1-.3-.6-.5-1.2-.8-1.8-.2-.7-1-1.1-1.7-.9-.4.1-.9 0-1.2-.4-.5-.5-1.3-.7-2-.6-.7.1-1.5.3-2.1.7-.7.4-1.6.6-2.4.5-1.6-.2-3.3.2-4.7.9-1.9.8-3.6 2-4.9 3.6-.1.2-.3.2-.4 0s-.3-.4-.5-.6c-.5-.7-1.2-1.3-1.9-1.8-.7-.4-1.3-.9-2-1.3-.9-.6-1.9-1-3-1.3-1.2-.3-2.4-.5-3.6-.5-1.2 0-2.3.4-3.3 1.1-.7.5-1.3 1.1-1.8 1.8s-.9 1.4-1.3 2.1c-.1.2-.2.4-.5.3-.6-.1-1.3-.1-1.9-.1-.7 0-1.4.2-2 .5-.4.2-.8.5-1.3.7-.3.2-.7.3-1 .3-.6 0-1.1.3-1.5.7l-1.5 1.8c-1.4 2-2.5 4.1-3.3 6.3 0 .2-.1.4-.3.5-.1.1-.3-.1-.5-.1-1-.2-1.9.5-2.1 1.4v.5c.2.5-.1 1-.6 1.2-.3.1-.5.3-.8.5-.3.3-.6.6-.8.9-.2.5-.8.9-1.4 1-.7.1-1.3.3-2 .6s-1.3.9-1.4 1.6c-.1.3-.3.6-.5.8-.3.3-.6.6-.8.9-.1.1-.1.2-.1.3-.1.2-.2.2-.4.1-1.1-.5-2.3-.9-3.5-1.2-.9-.2-1.8-.2-2.6 0-.6.1-1.1.5-1.4 1.1-.2.5-.7.8-1.2 1-.3.1-.7.3-1 .4-.9.4-1.5 1.3-1.6 2.3-.1.5-.1 1-.1 1.5-.1 1.1-.1 2.3-.2 3.4-.2 1.3-.2 2.4-.1 3.4 0 .8.3 1.5.7 2.1.4.5.8 1.2 1 1.8.1.4.1.8.1 1.2-.4.3-.7.9-1.3 1-.8.1-1.4.6-1.7 1.3-.4.8-.8 1.7-1.2 2.5-.8 2-.8 4.1-.2 6.2.1.4.3.9.5 1.3.3.6.4 1.3.4 2 0 .8.2 1.5.7 2.1.6.9 1.3 1.7 1.9 2.5.2.1.2.4.1.6-.5.9-.8 1.9-.7 2.9.1 1.2 0 2.5.1 3.7 0 .9.1 1.9.1 2.8-.1 1.3 0 2.5.2 3.8 0 .1 0 .2-.1.3-.7.7-1.4 1.5-2.1 2.3-.6.7-1.2 1.6-1.6 2.4-.7 1.3-1.3 2.5-2 3.8l-.9 1.5-.9 1.5c-.3.5-.6 1.1-.9 1.7-.3.5-.5 1-.8 1.5-.3.7-.7 1.4-1 2.1l-.6 1.5c-.1.2-.2.4.1.5.1 0 .3-.1.4-.1.2-.1.4-.3.7-.4.5-.2 1.1-.4 1.6-.5 1.1-.3 2.1-.7 3-1.3 1.1-.7 2.3-1.3 3.5-1.8.9-.4 1.8-.6 2.7-.6.9 0 1.8.2 2.8.2 1.4.2 2.7.1 4.1-.2 2.9-.7 5.7-1.7 8.5-2.6 1-.3 2-.6 3.1-.7 1.4-.1 2.7-.5 3.9-1 .6-.3 1.2-.5 1.9-.7.5-.1 1.1-.2 1.6-.3.2 0 .3.1.2.3l-.3 2.4c0 .7-.2 1.3-.6 1.9-.3.4-.5 1-.5 1.5 0 1.1.1 2.2.2 3.3.1.8.1 1.5 0 2.3-.2 1 0 2 .4 2.9.5 1.1 1.1 2.2 1.7 3.2.3.5.5 1.1.7 1.6.1.6.3 1.1.8 1.6.4.4.6.9.7 1.4.1.3.2.6.4.9.6.7 1.1 1.6 1.3 2.6.2.6.4.8 1.1.8.3 0 .6 0 .8-.1l1.5-.3c.9-.2 1.9-.3 2.8 0 1.8.5 3.6.8 5.3 1.5.5.2.9.3 1.4.3h2.6c.4 0 .7-.2.8-.5.1-.3.1-.7.2-1 .1-.8.1-1.6.1-2.4l.1.1c.1.1.1.3.2.4.8 2.7 2.8 4.9 5.3 6.1.9.5 1.9.8 2.9.9 1.1.1 2.2.5 3.2 1 .8.3 1.5.6 2.3.8.5.2 1.1.1 1.5-.3.4-.4.8-.7 1.2-1.1.7-.7 1.5-1.3 2.5-1.5.4-.1.8-.4 1-.7.1-.2.2-.5.4-.8.1-.2.2-.4.4-.5.6-.3 1-.8 1.2-1.5.1-.2.2-.3.4-.5.3-.1.5-.4.5-.7.2-.8.8-1.4 1.6-1.6 1.2-.3 2.3-.7 3.5-1.1.6-.2 1.2-.2 1.7 0 1.2.5 2.7.4 3.8-.4.4-.3.9-.5 1.3-.6.6-.2 1.1-.5 1.5-.9.3-.3.6-.5.9-.7.2-.2.5-.2.8-.1.4.2.9.3 1.4.3.4 0 .8-.3 1-.7.1-.3.3-.6.4-.9.2-.5.5-.9.9-1.1.3-.2.6-.5.9-.7.4-.3.5-.9.1-1.3-.1-.1-.2-.3-.3-.4-.3-.4-.6-.8-.8-1.2-.2-.6-.5-1.1-.9-1.6-.5-.6-.9-1.4-1.1-2.2-.1-.2-.1-.3.2-.2.4.1.9.2 1.4.4.5.1 1 .1 1.5-.1.2-.1.5-.2.8-.2 1.1 0 2.2.1 3.3.4.9.3 1.8.4 2.7.1 1-.2 2-.2 3 .1.7.2 1.5.3 2.2.4 1.2 0 2.3.2 3.5.4.3.1.6.1.8.1.9 0 1.7.1 2.6.1 1.2 0 2.5.2 3.7.5.2.1.4.1.6 0 .6-.1 1.1-.6 1-1.2 0-.1-.1-.3-.1-.4-.4-.8-1-1.4-1.8-1.8-.6-.3-1.2-.6-1.8-1-.6-.4-1.2-.7-1.8-.9-.7-.2-1.4-.6-2-1-1.2-.9-2.5-1.7-3.9-2.2-1.2-.5-2.5-1.1-3.6-1.8-.6-.3-1.2-.6-1.8-.8-.1-.2 0-.4.3-.4.6-.1 1.1-.1 1.7-.2h.5c1.3-.3 2.7-.5 4-.8 1-.2 2-.5 2.9-.9 1.5-.7 2.9-1.4 4.4-2.1 1.2-.6 2.4-1.3 3.6-2.1.7-.5 1.4-1.1 1.9-1.9.7-.9.9-2.1.5-3.1.2-.1.2-.2.2-.4zm-15.2-44c.8.5 1.6 1 2.5 1.4.8.4 1.5 1.1 1.9 1.9.5 1.1 1.1 2.1 1.6 3.2.3.6.4 1.3.4 1.9v.7c-.1.5.2.9.6 1.1.6.3 1.2.7 1.7 1 1.1.6 1.5 1.9 1.1 3.1-.2 1.1-1.1 2-2.1 2.4l-1.2.6c-.3.2-.6.3-.9.5-.7.3-1.3.8-1.7 1.5-.5.8-1 1.7-1.6 2.5-.2.4-.5.7-.7 1-1 1-1.8 2.2-2.6 3.4-.1.1-.2.2-.2.3-.2.3-.2.3-.5 0-.1-.1-.2-.1-.2-.2h-.1l-.1.1c.1.2.3.4.4.6h.3c.1-.1.3-.2.4-.4.5-.7 1-1.3 1.5-2 .2-.3.4-.6.7-.9 1.2-1.2 2.1-2.6 2.9-4.1.4-.8 1.1-1.4 1.9-1.7.3-.1.5-.2.8-.4.5-.2 2-1 2.3-1.2.1-.1.3-.1.4-.2 0 .2-.1.3-.1.5-.3.5-.6.9-.9 1.3-.3.4-.5.8-.7 1.2-.5 1.5-1.4 3-2.5 4.2-.6.7-1.1 1.5-1.6 2.4-.4.9-.9 1.8-1.4 2.6-.4.6-.9 1.2-1.5 1.7-.4.4-.7.8-.9 1.3-.7 1.4-1.6 2.8-2.7 4-.8.9-1.4 1.9-2.1 2.9-.9 1.3-2 2.5-3.4 3.4-.1.1-.2.1-.3.2v-.3c0-.4 0-.8.1-1.2.2-.3.6-.4 1-.6.2-.1.5-.3.7-.5.4-.4.4-.8-.2-1.1-.5-.2-1.1-.2-1.6.1.2-1 .5-2 1-3 .2-.4.5-.7.8-.9.4-.4.6-.9.7-1.4.1-.2-.1-.3-.2-.3-.4 0-.9.1-1.2.4-.8.6-1.8 1.1-2.8 1.3h-.1c-.8.4-1.6.7-2.5.9-.4.1-.8.3-1.2.5-.4.3-1 .3-1.4-.1.5-.2.9-.6 1-1.1.1-.2.3-.4.5-.4.8-.2 1.6-.5 2.5-.7 1.6-.4 3.1-1.1 4.4-2.1.5-.4 1.2-.7 1.8-.9l1.8-.6c.9-.4 1.6-1.3 1.6-2.4 0-.2 0-.4-.1-.5-.3-.1-.3-.3-.2-.5.1-.4.3-.8.6-1.1.2-.1.2-.4.1-.6v-.1c-.1-.1-.1-.3-.2-.4-.1-.1-.2-.2-.3-.2-.2 0-.4-.1-.5-.3 0-.1-.2-.2-.2-.2 0-.6-.5-.6-.9-.6h-.4c-.1 0-.3-.1-.4-.1 0-.1.1-.3.2-.4.2-.2.4-.4.3-.8 0-.1.1-.3.2-.5.1-.1.2-.2.3-.2l.4-.4-.4-.4c-.5-.2-1-.2-1.5 0-.2.1-.5.2-.7.3-.4.1-.8 0-1-.4 0-.1 0-.2.1-.3l.6-.9c.1-.1.1-.2.1-.4h-.4c-.4.2-.8.5-1.2.7l-.9.3c-.2 0-.3-.1-.2-.3.2-.4.5-.7.7-1.1.2-.3.4-.6.5-.9.1-.2.1-.5.1-.7v-.6c.1-.3.1-.6-.1-.9-.4-.5-.4-1.2-.1-1.8.2-.3.1-.7-.2-1-.6-.7-1.3-1.1-2.2-1.3-.4 0-.8 0-1.1.2l-.6.3h-.1v-.1l.3-.3c.4-.4.8-.8 1.1-1.3.5-.5.5-1.3.1-1.9-.2-.3-.5-.5-.9-.5-.2 0-.5.1-.7.1-.3.1-.4.1-.5-.3 0-.4-.3-.7-.7-.7h-.2c-.3 0-.2-.1-.2-.3.1-.1.1-.3.2-.4.2-.5 0-1.1-.5-1.3-.4-.2-.3-.4-.2-.6.3-.9.7-1.7 1-2.6.1-.2.3-.4.6-.5 1.7-.6 3.3-1.4 5.1-1.9.4-.1.4-.1.5.3 0 .3.1.6.1.9.1.5.3.6.8.4.4-.2.8-.4 1.2-.5.7-.3 1.5-.5 2.3-.5h.9c.2.2.8.3 1.3.7zM93 89.1c-.2 0-.4-.1-.6-.2-.8-.4-1.7-.6-2.6-.7-.9-.1-1.7-.5-2.3-1.2-.3-.3-.6-.5-.9-.8 1 .1 1.9.4 2.7.9.4.2.7.4 1.1.6 1 .6 2.2.7 3.3.3.4-.1.8-.2 1.3-.2s.9.1 1.2-.5c0 0 .2 0 .2.1.1.3 0 .7-.4.8h-.2c-.4 0-.8.2-1 .4-.4.5-1.2.7-1.8.5zm1 .5c0 .1-.1.2-.1.3h-.1l-.5-.5h.6s.1.1.1.2zm-8 2.1c0 .1.1.2.1.3 0 .1-.1.3-.2.4 0 0-.2 0-.3-.1-.8-.5-1.5-1.1-2.3-1.6-.2-.1-.3-.2-.4-.3-.2-.2-.4-.4-.6-.7.2-.3.6-.2.8-.3.6-.4 1.4-.3 2 .1.4.3.9.5 1.4.6.4.2.8.2 1.3.3.5 0 1.1.1 1.5.5.1.1.2.2.4.3-.9.2-1.9.1-2.8-.2-.1 0-.1 0-.2-.1-.3-.1-.6-.3-.9-.1-.2.4.1.6.2.9zm-1.5.1c.2.2.5.3.3.6l-.1.1-.1-.1c-.1-.2-.2-.4-.1-.6zm0 0zm-11.7-3.5c-.8 1.2-2.3 1.9-3.7 1.7-.1 0-.2-.1-.3-.2.1-.1.1-.2.2-.2.3-.2.6-.3 1-.4.4-.1.8-.2 1.1-.5.2-.1.5-.2.7-.3.4-.1.7-.2 1.1-.3-.1 0-.1.1-.1.2zm-7.6 6.8c-.3-.9-.2-1.8.2-2.6.1-.3.2-.5.3-.8.2-.5.3-1 .1-1.5-.1-.3 0-.4.3-.5.7-.3 1.5-.6 2.2-.9h.1v.1c-.1.3-.2.5-.4.8 0 .2 0 .3.3.3.4.1.8.2 1.1.2.9 0 1.8-.2 2.6-.7h.2v.1c-.1.3-.2.5-.3.8-.8 1.5-2 2.8-3.4 3.8-1 .7-1.9 1.5-2.7 2.4-.1.1-.2.4-.5.2s-.4-.5-.3-.8l.1-.1c.1-.2.2-.5.1-.8zM62 88.9h-.4c-.1 0-.2-.2-.2-.3.3-.5.5-1.2 1.2-1.4.3-.1.6-.2.9-.1.5.1.7 0 .9-.5.2-.5.6-1 1-1.3.3-.3.6-.6.9-1 .1-.1.2-.3.3-.4-.1 1.1-.6 2.1-1.4 2.8-.3.3-.6.7-.9 1.1-.2.4-.6.6-1.1.7-.4.1-.8.3-1.2.4zm.9.1zm-4.6-5.8l-.2.4c0-.2 0-.3.2-.4zm.9.2c0 .2-.1.4-.1.6-.1.3-.1.5-.1.7.2.9.3 1.8.3 2.7 0 .4.3.6.6.8l.6.3c-.6 0-1.1.3-1.4.7-.2.2-.3.3-.6.1-.3-.2-.5-.3-.8-.4-.1-.1-.2-.2-.2-.3.1-.5 0-1-.3-1.4-.2-.3-.2-.7 0-1 .7-.9 1.3-1.9 2-2.8zm-1.6 1.5v-.1l.1-.1c0 .1 0 .1-.1.2.1-.1.1-.1 0 0zm-14.9-.2c-1 .4-2.1.6-3.2.6H33.9c1.2-.6 2.4-1.1 3.7-1.6.6-.2 1.2-.4 1.7-.8.7-.5 1.4-.9 2.1-1.3.9-.6 2-.8 3.1-.8l2.1.3h1.7c.2 0 .5.1.7.1.8.3 1.6.4 2.4.2h1.1c.3 0 .6.1.8-.3.1-.2.3-.2.5 0l.3.3c.1.1.1.2-.1.3h-.1c-.9.2-1.8.4-2.6.7-.5.1-.9.1-1.4.1-.6 0-1.2.1-1.8.4-1.2.4-2.4.8-3.5 1.2-.8.1-1.3.4-1.9.6zm.2.3zm0 0c-.3.2-.6.3-.9.3.2-.3.5-.3.9-.3zm-1 .3c-.2.1-.4.1-.6 0h.6zm-1.2-9c-.2.2-.3.4-.4.7-.1.5-.1.5-.5.5-.8.1-1.6-.2-2-.9-.1-.1-.2-.2-.2-.3-.3-.4-.3-.4-.7-.1-.2.2-.3.1-.4-.1-.1-.2-.1-.4-.1-.7 0-.2.1-.4.1-.6h.7c.7-.1 1.4 0 2 .4.1.1.3.1.4.2.6.5 1.4.7 2.1.6.4 0 .9 0 1.3.1.1 0 .1 0 .2-.1-.1.1-.2 0-.2 0-.6 0-1.1-.1-1.7-.1-.5 0-.9-.1-1.3-.4-.1 0-.1-.1-.1-.2s.1-.1.2-.1c.9-.3 1.8-.3 2.7 0 .6.2 1.1.3 1.7.4.5 0 1.1 0 1.6-.3.3-.1.5-.2.8-.3-.1.3.1.7.5.7.2.1.3.1.5.2.1 0 .1.1.1.2-.1 0-.1.1-.2.1h-.2c-.2.1-.4.2-.4.4 0 .3.3.3.5.3.8.1 1.5.3 2.2.7.2.1.3.1.5.1.5 0 .9 0 .9.7 0 .3.5.5.9.4.4-.1.7-.3 1.1-.4.4-.2.8-.2 1.1-.1.3.2.7.2 1 .1.1 0 .2.1.2.1s0 .2-.1.2c-.3.2-.6.4-1 .4-.3 0-.7.1-1 .1-.2.1-.5.1-.7 0-.4 0-.7 0-1 .1-.3.1-.6.1-.8 0-.1 0-.1-.1-.2-.1-1-.2-2-.6-2.8-1.2-.3-.2-.7-.4-1.1-.4-.8-.1-1.6-.3-2.3-.6-.6-.3-1.3-.4-2-.2-.1 0-.2.1-.3 0-.4-.2-.9-.2-1.3 0h-.2v-.2c-.1 0 0-.1-.1-.3.1.1.1 0 0 0zm-4.2-1.4c-.1 0-.2-.1-.3-.1-.1-.1-.3-.2-.4-.3.1-.1.3-.2.5-.3.1 0 .3-.1.4-.1.1 0 .1 0 .2.1 0 .1 0 .1-.1.2s-.2.3-.3.5zm.9-7.6zm1.2.2c.3.1.6.1.9 0 .3-.1.6-.3.9-.5-.1-.4-.5-.4-.8-.6-.6-.4-1.1-.8-1.7-1.2 0-.1-.1-.1 0-.2.1 0 .1-.1.2-.1h.2c1 .5 1.9.9 2.9 1.5.4.2.4.3 0 .6-.2.2-.5.4-.7.6-.2.1-.3.3-.4.5s.2.5-.1.5c-.2 0-.4-.1-.6-.1-.7.1-1.1-.4-1.5-.8l-.4-.4c.3-.2.7.1 1.1.2zm-5.8-6.8c-.1-.1-.1-.2-.2-.2-.1-.2-.1-.3.2-.3h.2v-.1c.2.1.5.1.7.2.7.4 1.3.9 1.9 1.4.2.1.2.3 0 .3-.2.1-.3.1-.5 0-.8-.3-1.6-.7-2.3-1.3zm1.2 1.2h-.2.2zm-.2-.1c-.5 0-1-.3-1.4-.7v-.3c.1 0 .1 0 .2.1l1.2.9zm3.7-12.9c.5.4 1 1 1.2 1.7l-.7-.8c-.2-.2-.4-.5-.7-.7-.1-.1-.4-.1-.2-.4.1 0 .2.1.4.2zm-1.8-2.4c-.2-.2-.3-.5-.4-.7l.1-.1c.1 0 .2.1.3.1.8.5 1.5 1.2 2.1 1.9 0 .1.1.1.1.2-.1.1-.2.2-.3.4h-.3c-.5-.7-1-1.2-1.6-1.8zm4.2-6.7v-.1h.2c.2.2.5.4.7.6.2.3.6.4 1 .4.2 0 .3.1.4.2.1.1.2.2.2.4.8 1.3 1.7 2.5 2.8 3.5.4.5.9 1 1.3 1.4.4.4.6.9.5 1.4v1.3c0 .1 0 .2-.1.3-.1 0-.2-.1-.2-.2-.3-.3-.5-.6-.8-.9-.4-.5-1-.9-1.6-1-.1 0-.2-.1-.4-.1-.7-.4-1.3-.9-1.8-1.5-.4-.5-.8-.9-1.2-1.4-.3-.4-.7-.7-1.2-.8-.3-.1-.6 0-.8-.4-.2-.4-.3-.8-.3-1.3 0-.2.1-.4.2-.6.1-.2.1-.4.4-.1 0 0 .2-.1.3-.1h.3c.2.1.3.1.2-.1 0-.2 0-.6-.1-.9zm8.6 5.4l.1.1c-.1.8.7 1.1.9 1.7.1.2.2.4.4.5.4.2.4.5.4.9v.5c-.1.7.2 1.5.8 1.9.1.1.2.2.3.2.6 0 1.3.2 1.9-.2.1-.1.2-.1.3-.1h.4c0 .1-.1.2-.1.3-.1.4-.1.8-.1 1.1.1.6.1 1.3-.1 1.9v.4c0 .3 0 .3.4.2s.4-.1.4.3c.1.7.1 1.3.1 2v.1c-.1.2-.1.3-.2.5-.2-.3-.2-.7-.1-1.1.1-.6.1-.6-.4-.8-.1 0-.2-.1-.3-.2-.4-.3-1-.2-1.3.2-.3.2-.3.3-.3.4-.1.3-.2.7-.2 1.1 0 .2-.1.3-.3.4-.5.2-.5.2-.7-.2-.4-.5-.6-1.2-.6-1.8.1-.8-.3-1.5-1-1.9-.2-.1-.5-.3-.6-.6-.4-.7-.7-1.3-.9-2.1-.3-.8-.4-1.7-.4-2.6.1-1.3.1-2.7.2-4 0-.1 0-.4.1-.4.2 0 .4-.1.7 0 0 0 .1.1.1.2v.5c-.2.2-.2.5.1.6zm1-4l-.6-1.8c-.3-.8-.6-1.6-.9-2.5-.1-.3-.2-.7-.3-1.1h.1c.2.1.4.6.6.4.4-.2.6-.6.7-1 .2-1.1.1-2.2-.3-3.3v-.3c.1 0 .2.1.3.1.3.1.4.5.8.2 0 0 .2 0 .2.1.1.1.2.3.3.4l.2.2c.3-.1.7 0 1 .2.1 0 .3-.1.3-.2s0-.2.1-.4c0-.1.1-.2.1-.2.1.1.2.1.2.2.4.8.8 1.5 1.1 2.3.4.6.4 1.4-.1 2-.3.6-.5 1.2-.6 1.8-.1 1.7-.3 3.4-.4 5.1-.1 1.3-.3 2.5-.6 3.7 0 .1-.1.1-.1.1l-.1-.1c-.3-.6-.5-1.2-.8-1.8-.7-1.5-1.4-2.9-2.2-4.3.1.1.3.2.4.2.1 0 .2.1.3 0 .3.2.3.1.3 0zm4.8-7.1c0-.2.1-.3.2-.2.5.1.9 0 1.3-.3.1-.1.3-.1.4-.1.2.1.4.2.6.4v.2c-.4.8-1 1.4-1.8 1.9-.3.1-.6.4-.8.6-.3.3-.3.8-.1 1.2.2.5.4.9.6 1.4.1.2.1.3.1.5l-.6 3c0 .1-.1.2-.1.4-.5-.8-.7-1.6-.6-2.5.1-.5.2-1 .2-1.5 0-.4 0-.8-.1-1.2-.1-.5 0-1 .2-1.4.4-.9.6-1.7.5-2.4zm1.4-11.3c0-.3.1-.6.3-.8.1-.2.2-.3.2-.6.1-.7.5-1.3 1-1.8.3-.2.3-.2.5.1.3.5.7 1 1 1.5.1.2.2.3.3.4.2.2.5.2.7.1l.1-.1c.3-.4.3-.4.7-.1h.1c.5.3.5.4.2.9s-.6 1.1-1 1.7c-.2.4-.5.8-.9 1.2-.4.4-.6 1-.4 1.5 0 .1.1.3 0 .4-.1.2-.3.3-.5.4h-.2c-.1-.1-.1-.2-.1-.3-.2-.2-.4-.2-.6 0-.2.2-.3.4-.4.5h-.2c-.1-.2-.1-.3-.2-.5-.2-.4-.3-.5-.7-.2-.3.2-.4.1-.4-.1s-.1-.5-.2-.7c0-.2 0-.3.1-.4.5-.6.3-1.3.5-1.9.2-.5.2-.9.1-1.2zm13.4-4.2c.2-.2.5-.4.8-.5.4-.1.8-.3 1.1-.6.1-.1.2-.1.2-.2l.1.1.1.1c.2.9.5 1.8 1 2.6.1.2.1.3-.1.5-.3.1-.5.3-.7.5-.3.4-.8.7-1.3.8-.1 0-.3.1-.4.1-.4.4-.9.8-1.3 1.2-.4.4-.6 1-.7 1.5-.2.8-.7 1.5-1.3 2-.1.1-.3.1-.4 0-.2-.9-.7-1.7-1.4-2.4-.1-.1-.1-.2 0-.3 1.4-2 2.5-4 4.3-5.4zm-2.4 2c-.3-.7-.6-1.4-.6-2.1-.1-.7 0-1.4.4-2 .2-.4.4-.7.5-1.1.1-.3.2-.5.3-.8.1-.3.3-.3.4 0 .2.3.3.6.5.9.4.7.8 1.5 1.2 2.2.1.1.1.3 0 .4-.9.7-1.7 1.6-2.4 2.5-.2-.1-.3 0-.3 0zm22.2 3.5c0 .2.1.1.2.1.6-.2 1.1-.5 1.7-.7.4-.1.8-.1 1.1 0 .2.1.5.2.6.4.1.3-.3.3-.4.4-.6.5-1 1.1-1.2 1.9-.3 1-.6 2-.7 3.1-.5 2.7-1.5 5.4-2.8 7.8-.6 1.2-1.1 2.3-1.7 3.5 0 .1-.1.1-.1.2l-.1-.1c.2-.8.1-1.7-.3-2.5-.1-.3-.1-.6 0-.8.1-.7.1-1.4.1-2.2 0-.5 0-1.1-.1-1.6v-1.2c.1-1.2 0-2.4-.4-3.6-.5-1-.1-2.2.8-2.9.9-.8 1.9-1.4 3-1.9 0 .1.1.1.3.1zm7.9 1.1c.1 0 .3-.1.4-.2.1-.1.2-.1.2-.2.2-.2.3-.1.4 0 .3.3.5.3.7-.1l.3-.6c.2-.5.6-1 1.1-1.3.3-.2.4-.1.4.2 0 .4.1.7.3 1 .4.5.6 1.2.4 1.8-.1.4-.2.8-.4 1.3-.1.2-.2.4-.4.6-.4.3-.7.8-.9 1.3-.2.6-.6 1.2-1.1 1.5-.2.1-.4.4-.5.6s-.4.4-.6.6c.1-.2.1-.4.2-.6.2-.3.4-.6.5-.9.2-.4.4-.7.8-.8.4-.2.4-.4.2-.8s-.5-.6-.9-.7c-.8-.2-1.6-.3-2.3-.6-.3-.1-.7 0-.8.3-.3.4-.5.9-.7 1.3-.2.3-.4.6-.5.8-.1-.3-.1-.7-.2-1v-.6c0-.6.3-1.1.7-1.4.2-.1.3-.2.4-.3.4-.3.5-.9.1-1.3l-.1-.1c-.2-.3-.5-.5-.8-.8.7-.1 1.3-.4 1.7-.9.4-.3 1-.4 1.5-.1.1.1.2.2.2.4-.1.2-.2.3-.2.5l-.3.6c.2.2.2.4.2.5zm8 1c.3 0 .5.2.4.5 0 .2.1.4.3.3.6-.2 1.3-.2 1.9 0 0 .1.1.2.2.2.2.1.4.2.5.4 0 .3-.3.1-.5.3l-.3.3-.3.3c-.2.1-.5.3-.7.5-.5.5-1.2.9-2 .9-.4.1-.7.3-.9.6-.5.6-1.1 1.2-1.6 1.8-.1.2-.3.3-.4 0-.1-.3-.4-.4-.7-.3-.1 0-.1 0-.2.1h-.3c-.5-.1-.6-.1-.9.2-.7 1-1.1 2.1-1.1 3.3v1.7c-.1.8-.4 1.5-.9 2.1l-.1.1c0-.1-.1-.1-.1-.2 0-1-.2-2-.6-2.9-.1-.3-.1-.6.1-.8 1.1-1.1 1.9-2.4 2.5-3.8.3-.6.8-1.2 1.3-1.7.2-.2.4-.5.6-.7.2-.3.2-.5-.2-.6-.3-.1-.2-.2-.2-.4.1-.4.3-.7.6-1 .5-.6 1.1-1.1 1.9-1.5.3-.2.8-.1 1.1-.4.1-.1.2-.1.2 0 .1 0 .1.1.1.2-.2.2-.1.4.3.5zm5.5 9.1c.5.1.7.6.6 1v.1c-.3.7-.7 1.3-1.2 1.8-.6.1-1.1.4-1.5.8-.1.1-.2.1-.4.1h-.4c-.2.1-.5.3-.5.2-.2-.2-.3-.4-.4-.7-.1-.2-.1-.3-.2-.5-.3-.6-.2-1.4.2-1.9.2-.2.3-.5.3-.8 0-.3.1-.6.1-.8.2-.9-.4-1.7-1.2-1.9h-.7c-.3.2-.7.2-1 0-.2-.2-.4.1-.5.4 0 .2-.1.4-.4.2-.2-.1-.3.1-.3.2-.1.5-.2 1-.3 1.4v1c0 .5-.1.6-.6.7h-.2c-.2.1-.4.1-.6.2v-.7-.1c.4-.9.6-1.9.5-2.8-.1-.3 0-.6.3-.8.6-.7 1.2-1.3 1.8-2 .2-.2.5-.4.8-.4.8-.1 1.5-.4 2-1 .1-.1.1-.1.2-.1.2-.2.3-.1.3.1 0 .3.1.5.4.5.6 0 1.2.2 1.6.6.4.3.7.6 1.3.4.1 0 .2.1.2.1 0 .3.2.5.5.5.3.1.4.3.2.5l-.6 1.5c-.2.5-.4 1-.5 1.5-.1.4 0 .6.2.7-.1 0 0 0 0 0zm1.8 6.9c.4.1.9.1 1.3-.2.4-.3 1-.3 1.5 0 .4.1.8.4 1.2.7.1.1.2.2 0 .4-.3.3-.5.6-.7.9 0-.2 0-.5-.1-.7-.1-.6-.4-.7-1-.5-.1 0-.2.1-.3.1-.1.1-.4.1-.5 0-.3-.2-.7-.2-1-.1-.5.1-.9.2-1.4.3-.1 0-.2-.1-.2-.1 0-.7.1-1.4.1-2.1 0-.2.1-.3.2-.5.2-.4.4-.4.8-.2.1 0 .1.1.2.1h.2c0-.1.1-.1 0-.2-.1-.5-.6-.8-1.1-.8h-.3c-.3.1-.7-.1-.8-.4-.1-.2-.3-.4-.3-.6.1-.3.3-.6.6-.7.1-.1.2-.1.4-.1.4-.1.5 0 .6.4.2.6.2.6.9.5.1 0 .1 0 .2-.1.4-.1.7-.1 1 .2.3.4.5.9.2 1.4-.5.8-1.1 1.4-1.8 2l-.1.1c-.2.1-.5-.1-.7.2.4-.1.6-.1.9 0zm4.5 3.5c.2.3.3.7.1 1-.1.1-.1.2 0 .4.2.5.1 1-.3 1.3-.6 1-1.4 2-2.3 2.8-.3.2-.5.5-.8.8-.8.9-1.8 1.7-2.9 2.2-1.3.6-2.4 1.2-3.6 2h-.1c.1-.2.2-.3.4-.5.9-.8 1.9-1.5 3-2.2.4-.2.8-.5 1.2-.8.8-.6 1.3-1.5 1.4-2.5l.3-.9c.3-.9.5-1.8.8-2.8v-.3c-.1.1-.2.1-.3.2l-.6.9c-.6 1-1.1 1.9-1.6 2.9-.1.2-.2.2-.4 0-.3-.5-.9-.6-1.4-.4-.6.2-1.3.3-1.9.5.1-.1.3-.2.4-.3.5-.2.9-.6 1.2-1.1.6-.9 1.3-1.8 2.2-2.5.5-.4.9-1 1.1-1.6.2-.3.1-.7-.2-1-.3-.3-.7-.2-1 0-.2.3-.6.4-.9.3.1-.2.2-.4.3-.5.1-.4.4-.6.8-.6.4-.1.9-.2 1.3-.3.3-.1.5 0 .7.2.2.2.3.1.5 0 .8-.5 1-.4 1 .6v.5c0 .1.1.2.2.3.1-.1.3-.1.4-.2.2-.3.3-.5.5-.8.1-.2.3-.3.5-.2.2.1.2.3.1.5s-.2.3-.2.5c-.3.6-.2 1.2.1 1.6zm3.6 6.8c0 .1-.1.3-.2.4-.1.1-.3.3-.3.4 0 .6-.3.4-.6.4-.2 0-.4-.1-.6-.1-.7-.3-1.5-.4-2.3-.3-.2 0-.3 0-.2-.2.4-.7.9-1.3 1.3-2 .1-.2.2-.1.3 0 .4.5.8.4 1.3.2.5-.4 1.2-.4 1.8-.2.1 0 .2.1.3.2-.1.1-.1.2-.2.2-.4.1-.7.6-.6 1zm1.9 5.3c.1.1.1.2.1.3 0 .8-.4 1.5-1.1 1.9-.5.3-1.1.6-1.7.7-1 .3-2 .7-2.8 1.4-1.1.8-2.3 1.4-3.6 1.7-.9.3-1.8.5-2.8.7-.3 0-.6.3-.7.6v.1c-.1.2-.3.5-.5.7-.3.1-.6.2-.9.2h-.2-.1l-1-.9c.3-.3.7-.3 1-.5.7-.4 1.4-.7 2.1-1.1 1.2-.7 2.4-1.4 3.7-1.9.7-.3 1.4-.4 2.1-.4 1.5-.1 2.9-.7 4.1-1.7.5-.4.8-1 .9-1.6 0-.4.2-.9.5-1.2.2-.2.3-.5.4-.7.1-.1 0-.3.1-.4.1-.1.4-.3.5-.3.2.1.3.3.4.5 0 .1-.1.2-.2.3-.3.3-.5.7-.6 1.2.1-.1 0 .2.3.4zm-7 7.3c.2-.1.4-.2.6-.2-.6.8-1.4 1.4-2.4 1.6l-2.1.6c-.3.1-.5.1-.8.2-.1 0-.3-.1-.4-.2-.3-.4-.3-.4.1-.6.8-.4 1.6-.7 2.5-.8 1 0 1.8-.3 2.5-.6zm-1 .1c.1 0 0 0 0 0zm.5-.2zm1.1-.4c.7-.4 1.2-.8 1.8-1.1.1-.1.3 0 .4 0 0 .1 0 .2-.1.4-.1.5-.3.8-.9.7-.3-.1-.8 0-1.2 0zm-5.4 3c.6 0 1.2-.2 1.8-.4.4-.1.7-.2 1.1-.3 1.1-.2 2-.7 2.7-1.5.3-.3.6-.5 1-.5.1 0 .1 0 .2.1 0 .1 0 .2-.1.2-.3.2-.5.5-.8.7-1.2.9-2.5 1.7-3.7 2.7-1.3 1-2.8 1.8-4.4 2.1-1 .2-2 .6-3 1.1-.1 0-.2.1-.3.1-.1 0-.1-.1-.2-.1 0-.1-.1-.1-.1-.2-.4-.6-.3-.6.3-.7.2 0 .5-.1.7-.1.7 0 1.4-.3 2-.8.7-.7 1.4-1.3 2-2 .3-.3.5-.4.8-.4zm-18.8 6.3c-.2-.1-.3-.2-.5-.3-.4-.2-.7-.6-.5-1.1.2-.5 0-1-.5-1.3-.1 0-.2-.1-.3-.1-.2-.1-.4 0-.4.2v.2c0 .1.1.2.1.4s0 .4-.1.7c0 .1-.2.2-.3.2l-.2-.2c-.3-.7-.7-.7-1.3-.2-.2 0-.3-.2-.3-.4-.1-.4-.5-.7-1-.7-.1 0-.3.1-.3.2v.1c.1.2.1.3.2.5s.1.4.1.6c0 .3-.2.4-.4.2-.4-.3-.7-.1-1 .1-.1.1-.3.2-.5.3-.2-.2 0-.4.1-.6.3-.3.5-.6.8-.9.4-.4.7-1.1.6-1.7 0-.2.1-.5.2-.6.5-1.4.6-2.9.3-4.3 0-.1-.2-.2-.2-.2-.2.2-.4.3-.6.6-.1.2.1.3.2.4.2.1.2.2-.1.3-.4.1-.4.5-.4.8-.1.8-.1.8-.9.6-.1 0-.2-.1-.3-.1-.5.1-.9-.2-1.2-.5-.3-.3-.6-.6-1-.9V66s.1-.1.1 0c.4.1.7.2 1.1.3.6.1 1.1.2 1.7.4.1 0 .2 0 .4-.1l-2.6-.7v-.1c.2-.1.4-.1.7-.2h.7c.5 0 1-.1 1.5-.4.1-.1.3-.2.5-.2 1.4-.5 2.6-1.3 3.6-2.4.3-.2.5-.4.8-.6.2-.1.4-.2.5-.3 3.8-2.5 7.4-5.3 10-9.1.4-.6.8-1.1 1.2-1.6.1-.2.2-.3.5-.3.1 0 .2-.1.3-.2.8-.5 1.8-.8 2.7-.7 1.1.1 2.2-.1 3.1-.8h.2c-.1.3-.4.6-.7.8-.1.1-.3.2-.4.3-.4.4-.9.7-1.3.9-.5.1-1 .2-1.5.2-.9.3-1.7.8-2.3 1.5-.2.2-.4.3-.6.4-.6.2-1.1.7-1.4 1.3-.7 1.2-1.6 2.4-2.7 3.3-1.6 1.4-3 3-4.3 4.7-.6.7-1.1 1.4-1.7 2.1-.2.3-.5.6-.8.8-.6.6-1.4 1-2.2.9-.5 0-1 0-1.5-.1-.2 0-.4 0-.6.1 1.1.3 2.2.3 3.3.1.4-.1.7-.3 1-.5.9-.8 1.7-1.7 2.4-2.7.6-.7 1.3-1.4 2.1-1.8.8-.5 1.6-1 2.3-1.6.7-.5 1.3-1 1.9-1.6.5-.5 1.1-.7 1.8-.7.2 0 .4 0 .5-.1.4-.1.7.1.8.5v.4c-.1.6-.5 1.2-.9 1.7-.3.3-.7.6-1.1.9l-.6.6c-.1.2-.4.3-.7.3-.3-.1-.6.1-.7.3-.2.3-.5.4-.9.4s-.7.2-.9.5c-.2.2-.3.5-.4.7-.2.3-.3.5-.5.8-.1.1-.3.3-.4.3-.3 0-.1-.3-.1-.5-.1-.3 0-.8-.5-.9-.4-.2-.7.1-1 .4-.3.4-.7.7-1.1 1-.2.1-.3.4-.4.6l-.3.9c-.1.2-.2.5-.4.7-.5.7-1.1 1.5-1.6 2.2-.6.9-1.4 1.6-2.3 2-.2.1-.5.3-.7.5.3.1.6-.1.8-.3 1.2-.5 2.1-1.4 2.7-2.6.1-.3.3-.5.5-.8.4-.7 1.1-1.3 1.9-1.6.6-.2 1.2-.6 1.6-1.1.1-.2.4-.3.6-.3.5-.1.9-.3 1.3-.6.2-.2.5-.5.7-.3.3.2-.1.5-.2.7-.6.7-1 1.6-1.3 2.4-.6 1.6-1.5 3.1-2.7 4.4-.6.6-1.1 1.3-1.6 2 .1.5 0 .6-.2.4zm.3 1.1s0 .1-.1.1c0-.1 0-.1.1-.1-.1-.1-.1-.2 0-.2-.1 0 0 .1 0 .2zm3.8 10.9c.5.2.5.2.4.7 0 .2 0 .3-.1.5l-.3.3c-.1.1-.2.1-.3.1-.8 0-1.6.1-2.3.5-.4.2-.9.2-1.4 0-.6-.2-1.1-.5-1.7-.8-.8-.5-1.6-.8-2.5-1-.2 0-.4-.1-.5-.1-.6.1-1.2-.1-1.7-.5-.6-.4-1.1-.7-1.7-1l.1-.1c.5.1.9.2 1.4.3.4.1.8 0 1-.3.2-.2.4-.4.7-.6.4-.2.7-.7.8-1.2 0-.3.1-.5.2-.7.1-.1.1-.2 0-.4s0-.4.2-.5c.5-.3.9-.6 1.5-.4.6.2 1.3.3 2 .5.7.1 1.2.6 1.4 1.3.1.3.2.5.3.8.3.6.8 1 1.5 1.1.5 0 .5.1.5.6v.3c-.1.4-.1.4.5.6zm-15.7.1c.1.3-.1.4-.3.5-.8.2-1.7.1-2.5-.3s-1.5-.8-2.2-1.2c-.4-.3-.8-.7-1.1-1-.6-.6-.9-1.4-.7-2.3.1-.4 0-.9-.2-1.3s-.3-.8-.3-1.2c-.2-2.4-.4-4.7-.6-7.1-.1-1-.1-2 .1-2.9.9 2 1.8 3.9 2.6 5.8.1.2.1.4.2.6.1.5.4.9.9 1.1.4.2.7.6.7 1 .1.9.3 1.9.4 2.8.2 1.2.9 2.2 2 2.7.5.3 1 .6 1.5.8.2.1.3.3.3.5-.1.3-.2.5-.3.8-.4.3-.6.5-.5.7zm-3.2.4c-.1.1-.1.2-.2.3-.4.3-.8.4-1.3.4-.3 0-.6-.1-.7-.4-.2-.4-.5-.8-.4-1.3 0-.2 0-.3.1-.5.2.1.3.2.5.2.6.3 1.3.7 1.9 1.1 0 0 .1.1.1.2zm-4.6 1.7c-.2.1-.5.1-.8.2-.1 0-.3 0-.4.1-.7.7-1.7.6-2.4 1.1h-.1c.2-.4.4-.8.5-1.2.1-.1.2-.3.3-.4l.6-.6c.9-.7 1.6-1.5 2.2-2.5.2-.3.5-.7.7-1 .1-.2.3-.2.4 0 .7.9.9 2.1.5 3.2-.3.5-.8.9-1.5 1.1zm1.4-.5zm-5.1 1.8zm-9-3.9c-.2-.6-.2-1.2 0-1.8.2-.9.6-1.7 1-2.5.1-.2.2-.4.2-.6 0-.3.2-.7.6-.8 1.3-.6 2.5-1.3 3.6-2 .1-.1.2-.1.3-.1v.4c-.2.6-.4 1.2-.7 1.8-.9 2.1-1.5 4.3-1.8 6.6 0 .4-.2.7-.6.8-.4.1-.5.6-.7.9s-.2.3-.6.1c-.1 0-.1-.1-.2-.1-.9-.4-1-.6-.9-1.5 0-.4-.1-.8-.2-1.2zm-8.1-8c-.7.3-1.3-.1-2-.3l-1.2-.3c-.2 0-.3-.1-.4-.1-.1 0-.1-.1-.1-.2l.1-.1c.2 0 .5-.1.7-.1h.4c.2 0 .5.2.7 0-.2-.1-1.6-.7-2.1-.9-.1 0-.1-.1-.1-.2s.1-.1.2-.1c.4.1.8.1 1.2.2.5.1.5 0 .5-.5-.1-.9.1-1.2.8-1.4 0 .3 0 .5-.1.8-.1.4.1.9.5 1.1.5.3.8.7 1.1 1.2.2.4.6.5.9.4.8-.3 1.6 0 2.2.6.2.1.3.3.5.4 0 0 0 .1.1.2H54.9c-.7-.2-1.4-.2-2 .2-.1.1-.3.1-.4.2-.5.2-.8 0-.8-.6v-.3c-.2-.1-.3-.2-.4-.2zm3.2-.2c-.5-.5-1.3-.7-1.9-.5-.5.1-.6.1-.8-.3-.2-.5-.6-.8-1-1.1-.4-.2-.6-.7-.4-1.1.1-.8.4-1.7.7-2.4.4-.6.9-1.2 1.5-1.6.2-.2.5-.3.8-.4.6-.1 1.3-.2 1.9-.3v.1c.2 0 .5 0 .7.1.1 0 .4 0 .4.1.1.2-.2.1-.3.2-.2.3-.4.5-.7.7v.3c.6.5 1.1 1.2 1.4 2 .3.5.6.9 1.1 1.2.5.3.9.5 1.4.8.9.4 1.8.8 2.7 1.3.8.4 1.7.6 2.5.6h.7c.1 0 .1.1.2.1 0 .1-.1.1-.1.2-.6.3-1.3.4-2 .4l-.6-.3c-.5-.4-.8-.3-1.1.2l-.6.9c-.2.3-.4.3-.6 0l-.1-.1c-.8-.8-1.2-.9-2-.2-.4.3-.7.4-1.1.2-.3-.2-.7-.2-1 0-.3.2-.7.1-.9-.2-.3-.5-.6-.7-.8-.9zM44.2 64.9c0 .4.1.7.2 1.1 0 .2 0 .3-.2.2-.5-.1-.9-.1-1.4-.2-.5 0-1-.2-1.2-.7-.6-.9-1.3-1.7-2.2-2.4l-1.2-1.2c-.3-.4-.2-.4.2-.7.2-.2.2-.4.3-.7.1-.4.2-.4.6-.2.2.1.3.3.5.4.3.4.7.6 1.2.5.3 0 .6.1.8.3 1.1 1 2.4 1.6 3.9 1.8 1.3.3 2.5.8 3.8 1.2 1.6.4 3.2.8 4.8 1h.4c.7-.1 1.5.1 2.2.4.2.1.3.2.1.4-.3.3-.5.6-.7 1-.1.2-.4.5.1.8.1 0 0 .3 0 .4H56c-.4-.2-.8-.6-.9-1-.2-.3-.3-.7-.4-1-.1-.2-.1-.4-.4-.3-.1 0-.2.3-.2.4 0 .3.1.6.1.9 0 .1-.1.2-.2.2-.5 0-1 .1-1.5.1h-2.8c-.2.1-.4 0-.5-.1-.6-.6-1.4-1.1-2.2-1.4-.7-.2-1.2-.7-1.7-1.2l-.3-.3c-.2-.2-.2-.6-.5-.5-.4.2-.3.6-.3.8zm-5.7-2.2c-.3-.4-.7-.8-1-1.1-.1-.1-.1-.2-.1-.3 0-.1.1-.1.2-.1s.2.1.2.1c-.1.6.4.9.7 1.4zm2.8-9c.4.4.9.7 1.5.8.5.1 1 .4 1.4.8.7.8 1.5 1.5 2.4 2 .4.2.8.6 1 1 .3.5.7 1 1.2 1.3.2.1.4.3.6.5-.2.1-.2.1-.3.2H49c-.6-.3-1.2-.6-1.9-.9-.2-.1-.3-.2-.5-.4-.1-.2-.3-.4-.4-.6-.3-.7-1.1-1.2-1.9-1.1-.3 0-.6-.1-.9-.2L39.2 55l-.6-.3c-1.2-.7-2.6-1.7-3.7-2.9-.6-.6-1.1-1.3-1.6-2v-.2h.2l1.2 1.2c.2.2.4.4.7.6.3.2.7.3 1 .1.4-.2 1-.1 1.3.3.4.5 1 .8 1.7.8.7.2 1.4.5 1.9 1.1zm-.6-1c-.5-.5-1-1.1-1.4-1.8-.3-.5-.5-1-.8-1.5.2.1.3.2.5.3.3.2.5.5.8.7.6.4 1.1.9 1.4 1.5.4.7.9 1.3 1.3 1.9 0 .1.1.2.1.3h-.4c-.3-.2-.6-.4-.8-.7l-.7-.7zm5.9 4.2zm2.5 2.5c-.5-.3-.9-.7-1.1-1.1-.5-.7-1-1.5-1.5-2.2-.8-1.1-1.4-2.4-1.8-3.7-.8-1.9-1.7-3.7-2.7-5.4-.1-.1-.1-.2-.1-.3v-.1c.1 0 .2-.1.2 0 .3.2.7.4 1 .6.7.7 1.4 1.3 2 2l.3.3c.6.4 1 1.1 1.1 1.8.1.4.3.7.6.9l1.2 1.2c.2.2.4.3.6.5.6.3.9.9.8 1.6 0 .8.2 1.5.7 2.1.3.4.3.9 0 1.3-.3.3-.2.8 0 1.2.2.3.5.7.7 1l.1.1h-.1c-.7-.2-1.3-.6-1.7-1.1 0-.5-.1-.6-.3-.7zm-1.5-7.2c-.5-.4-.9-1-1-1.7-.1-.3-.3-.6-.5-.9-.5-.6-1-1.1-1.6-1.6-.3-.3-.7-.7-1.1-1 .9.1 1.8.6 2.3 1.4.1.1.1.2.2.2.4.5.8 1 1.1 1.5.2.6.4 1.2.5 1.8.2.2.1.3.1.3zm0 .1zm2.2 8.2s0 .1 0 0zm.6.4c.1.1.3.2.5.2s.6.1.7 0c.2-.2-.1-.4-.3-.6-.2-.2-.4-.4-.5-.7-.3-.3-.3-.8 0-1.1.1-.1.1-.4.2-.6.1-.2.2-.3.4-.4.1-.1.2-.1.3 0 0 0 0 .1.1.1.3.6.7 1.1 1.1 1.6.3.4.6.8.8 1.2.3.7.7 1.3 1.2 1.8.2.2.4.5.5.8.2.7.5 1.3 1 1.8.1.1.1.2.2.2 0 .1.1.2.1.3h-.3c-.3-.1-.6-.3-.8-.4-.8-.4-1.7-.7-2.5-1.1-.6-.3-1.2-.7-1.6-1.3-.6-.7-1.1-1.5-1.5-2.3.1.3.3.4.4.5zm3.4-3.5c0 .2-.1.4-.3.4-.2 0-.3-.1-.4-.2l-.3-.9c-.1-.4.2-.8.6-.8h.1c.2 0 .4.1.3.4v1.1zm-.9-1.6c-.4.3-.4.9-.2 1.3 0 .1.1.1.1.2.2.6.2.7.8.7.3 0 .4.1.3.4-.1.3-.1.6-.1.9 0 .2.1.3.2.5.2 0 .3-.1.5-.2.1-.1.2-.2.3-.4.2-.3.6-.5.9-.3.1.1.2.1.3.3.1.1.2.3.2.4.2.4.5.5.9.2.3-.2.5-.5.7-.7.4-.4.7-.8 1.1-1.1.1-.1.2-.2.4-.3.2-.1.3 0 .3.2 0 .4-.1.9-.2 1.3s-.1.9.2 1.3c.3.5.4 1.1.2 1.6s0 .8.6.7c.1 0 .2-.1.3-.1.6-.1.9.2.9.9 0 .3-.1.6-.1.9-.1.6-.1 1.1.2 1.7.4 1 .4 2.1-.2 3-.1.3-.3.2-.4 0-1.4-1-2.9-1.8-3.7-3.5-.2-.3-.4-.6-.6-.8-.4-.5-.7-1-.8-1.6-.1-.4-.3-.8-.6-1-.4-.4-.8-.9-1-1.4-.3-.7-.7-1.3-1.2-1.9l-.1-.1c-.8-.7-1-1.9-.5-2.9.1-.2.2-.3.3-.4.1-.1.3-.2.4-.1-.1.2-.4.2-.4.3zm.7-13c.8 2.2 1 4.7.4 7 0 .2-.1.3-.1.4-.1.1-.2.1-.3.1l-.1-.1c0-.1-.1-.2-.1-.3-.3-.7-.6-1.4-1-2.1-.2-.3-.2-.6-.1-.9.3-.9.4-1.8.5-2.7 0-.6 0-1.1.1-1.7.1-1.5.2-3 .4-4.5 0-.1.1-.2.1-.3h.2c0 .5 0 1.1-.1 1.6-.4 1.3-.3 2.4.1 3.5zm4.3-4.8c0 .2.2.3.4.2.1-.1.3-.2.4-.1.2.2.4.4.5.6.1.1 0 .4.1.5.1.3 0 .5-.3.7-.6.5-1.1 1.1-1.3 1.8-.5 1.2-.9 2.4-1 3.7 0 .3-.1.6-.2.8-.3.6-.3 1.3 0 1.9.1.1.1.2.2.3.1.4-.1.8-.5.9h-.1c-.1 0-.1-.1-.2-.2-.4-1.1-.5-2.3-.4-3.4.1-.6.2-1.2.5-1.7.2-.7.4-1.3.4-2 0-.5.2-.9.3-1.3.5-1.1.8-2.4.8-3.6 0-1.1.2-2.1.6-3.1-.1 1-.2 1.9-.2 2.9-.1.4-.1.7 0 1.1zm1-7.6c.1-.3.3-.4.6-.4.3.1.4-.1.5-.4.1-.4.2-.5.5-.3.8.5 1.8.5 2.6-.1.1-.1.3-.1.5-.1-.4.5-.9.8-1.5 1-.5.1-.9.5-1.1.9-.2.4-.3.8-.5 1.1-.3.6-.7 1.2-1.2 1.7-.2.2-.3.3-.5.2s-.4-.1-.4-.5c0-.3 0-.6.1-.8 0-.1.1-.3 0-.4-.3-.7.1-1.3.4-1.9zm-.4-.2c0 .1-.1 0 0 0zm15.3-8.1c1 1.2 1.7 2.6 2.3 4 .2.4.2 1 0 1.4l-.3.6c-.3.5-.4 1.1-.3 1.6.1.2 0 .3-.2.3-.1 0-.3.1-.4.2-.2.1-.3.3-.1.4.4.5.4 1.2.1 1.7-.3.6-.6 1.2-.9 1.7-.1.1-.2.1-.3.1-.5 0-.9-.3-1-.7-.1-.3-.2-.7-.4-1-.1-.4-.5-.6-.8-.7-.4-.1-.7-.4-.8-.8-.1-.4-.4-.7-.8-.9-.4-.1-.7-.4-.9-.8-.3-.7-.8-1.2-1.5-1.5-.1-.1-.3-.2-.4-.3-.4-.3-.4-.4 0-.8.7-.6 1.1-1.4 1.3-2.2 0-.3.2-.7.4-.9.5-.5 1-1 1.6-1.5.2-.1.3-.1.5-.2.4-.1.7-.3.9-.6.2-.2.5-.5.7-.5.3 0 .5 0 .8-.1 0 0 .2.1.2.2v.2c-.1.5 0 .8.3 1.1zm1.4.3c0-.1.1-.2.1-.3.1-.2.3-.4.4-.6 0 .2.5 3.4.5 3.4v.2c0 .1-.1.1-.1.2l-.1-.1c-.1-.1-.1-.3-.2-.4-.2-.4-.3-.7-.6-1.1-.2-.4-.3-.9 0-1.3zm7.1 8.5zm.6.5c.3 0 .6.2.6.5.3 1 .7 2 1.3 2.9.2.5.3 1 .2 1.6 0 .3 0 .5-.1.8-.2.5-.1 1.1.2 1.6.1.1.1.2.1.3 0 .3.1.6.1.9-.4-.1-.3-.5-.4-.8-.1-.5-.2-1-.3-1.4-.1-.4-.2-.8-.5-1.2-.4-.6-1-1.1-1.6-1.4-.2-.1-.4-.2-.6-.2-.4-.1-.6 0-.8.4-.2.3-.3.6-.5.9-.1.2-.2.2-.4 0-.1-.1-.2-.3-.3-.5-.2-.3-.5-.2-.6.1-.1.4-.1.7-.1 1.1 0 .2 0 .4.1.6-.2-.5-.4-1-.5-1.6-.1-.4-.2-.8-.4-1.2-.2-.5-.5-.6-.9-.4-.3.1-.6.4-.8.6-.4.5-.7 1.1-1 1.7-.2.3-.3.6-.5.9-.3-.3-.2-.7-.2-1.1 0-.9 0-1.9.1-2.8 0-.4.1-.8.3-1.1.3-.6.2-1.3-.2-1.7-.3-.4-.2-.5.2-.6h.2c.4-.1.4-.1.2-.4-.3-.3-.3-.8-.1-1.2.1-.2.2-.5.4-.7s.3-.4.4-.6l.3.6c.2.5.6.9.6 1.4 0 0 .1.1.2.1s.1-.1.2-.2v-.4c0-.2.2-.3.4-.2.5.4 1.1.5 1.7.2.2-.1.3 0 .5.2.3.4.6.8.9 1.3.3.6.9 1 1.6 1zm1.3-3.9c0 .4.1.9.2 1.3.4 1.3.6 2.6.4 4-.1.6 0 1.2.2 1.7-.5-.5-.8-1.2-1-1.8-.1-.3-.1-.5-.2-.7-.4-1.1-.4-2.4-.1-3.6.1-.3.1-.7.5-.9zm0 0v-.1.1zm1 14.8c.3 1 .2 2.1-.2 3-.4.8-.6 1.7-.7 2.6 0 .2-.1.3-.3.3-1.4.2-2.6.9-3.6 1.8-.6.5-1.3 1-1.9 1.6-.3.3-.6.6-.8.9-.1.2-.2.2-.3 0-.1-.1-.2-.2-.3-.2 0-.4.2-.9-.3-1.2-.1-.1-.1-.3-.2-.4 0-.1-.2-.2-.2-.2-.1 0-.2.1-.2.2-.1.3-.1.7-.2 1 0 .2-.1.4-.1.6s-.2.3-.4.3c-.2-.1-.1-.2-.1-.4v-.1c-.1-.8.2-1.6.8-2.2.1-.2.2-.5.2-.8.1-1.3.2-2.6.4-3.9l.3-.9c.6-1 1.1-2 1.8-2.9.5-.8.9-1.7 1.1-2.6.1-.5 0-.9-.2-1.4-.1-.4-.2-.9-.2-1.4 0-.1.1-.1.1-.2.1 0 .1.1.2.1.1.1.1.2.2.3.3.4.5.4.8 0 .2-.2.3-.5.4-.8.3-.6.4-.6 1-.3.5.3.9.6 1.3 1 .5.5.9 1.2.9 1.9.1.7.3 1.3.5 1.9.3.6.4 1.2.3 1.8-.1.4-.1.5-.1.6zm7.9-15.1c.3.1.3.1.3.4-.2.9-.2 1.8 0 2.6.2 1.3.5 2.6.8 4 .3 1.3.1 2.7-.5 3.9-.7 1.2-1.3 2.5-1.9 3.7-.8 1.5-2.1 2.7-3.7 3.4-.4.2-.7 0-1.1 0 0 0-.1-.1-.1-.2-.1-.8-.5-1.5-1-2.1-.4-.5-.4-1.1-.1-1.6.3-.8.8-1.6 1.1-2.5.8-1.8 1.7-3.7 2.5-5.5.5-1.2.8-2.5 1-3.8.2-1 .5-2.1.7-3.1.1-.4.3-.8.5-1.2.1-.2.3-.3.4-.5v.9c-.2.7.3 1.4 1 1.6h.1zm3.7 4.7c0 .1-.1.2-.1.3.1 0 .3.1.4 0 .3-.2.5-.4.8-.6.3-.5.7-.9 1.1-1.3.2-.2.4-.5.5-.7.2-.3.3-.6.4-.9.1-.1.1-.2.2-.3 0 .1.1.2.1.3.1.1.1.2.2.2.4.2.4.2.1.5-.1.2-.3.3-.4.4-.7.7-1.3 1.5-1.7 2.4-.5 1.2-1.3 2.2-2.1 3.1-.1.2-.3.2-.3-.1-.1-.7-.4-1.3-.8-1.8-.1-.2-.2-.4-.2-.6v-.9c-.1-1.2.2-2.4.8-3.4.2-.3.2-.7.4-.8s.6.2.9.2c.2.1.5.1.8.2.3.1.6.3.8.5.2.4.2.4-.1.7-.3.1-.5.4-.6.6-.5.7-.8 1.3-1.2 2zm.4 0zm1.3 3.9c0-1.2.3-2.3 1-3.3.2-.3.2-.3.7-.1.2.1.3.1.5 0 .2-.2.4-.1.5.1.3.6.4 1.4.2 2-.1.3-.2.7-.3 1.1v.6c-.4.3-.3.7-.3 1.1l.2.1c.1 0 .2-.1.3-.2l.9-.3c.5-.1.6-.2.7-.9 0-.5 0-1 .1-1.5v-.2c0-.1.1-.1.1-.2 0 .1.1.1.1.2.1.1.2.1.3.2.1-.1.1-.2.2-.3V34c.1-.3.1-.5.2-.8.1.2.3.4.4.6.1.2.3.4.4.4.4.1.4.4.5.7 0 .3.1.5.2.8.1.2.2.3.3.4.4.3.4.3.2.7-.3.3-.4.8-.2 1.2.2.8.3 1.6.1 2.4-.2.8-.4 1.6-.7 2.4-.1.2-.2.4-.6.2-.5-.2-.9.1-1.2.6-.1.1-.1.3-.4.3-.3-.1-.4-.3-.4-.6V43c0-.4 0-.4-.4-.3-.2.1-.3 0-.3-.2.1-.3.2-.6.3-1 .5-1.2.8-2.5.7-3.8 0-.2 0-.4-.1-.5 0-.1-.1-.1-.1-.1 0 .1-.1.1-.1.2 0 .6 0 1.3-.1 1.9-.1.8-.3 1.6-.8 2.3V41c.2-.8 0-1.7-.6-2.4-.8-1-1.3-2.2-1.3-3.5v-.2c-.1-.1-.1-.2-.2-.3-.1.1-.2.1-.2.2-.1.3-.3.6-.4.9-.1.3-.1.6-.1.8-.1.5 0 1-.1 1.5-.1.4-.2.8-.4 1.2-.2.4-.4.8-.7 1.2-.2.3-.4.6-.7.8-.2.1-.3.3-.4.5-.4.7-.8 1.4-1.1 2.2-.7 1.4-1.2 3-1.5 4.5-.1.6-.3 1.1-.4 1.7-.1.3-.2.5-.6.5-.1 0-.3 0-.4.1 0-.5-.1-1-.3-1.5-.2-.4-.4-.5-.8-.4-.3.1-.7.1-1 0-.4 0-.7.1-1.1.2-.1 0-.1.1-.2.1-.9.3-1.6 1.1-1.6 2.1-.1.3-.1.7-.2 1 0 .1-.1.3-.2.4-.1-.1-.1-.3-.2-.4v-.1c.1-.8.3-1.7.6-2.5.3-.5.4-1 .3-1.6v-.5c-.1-.3 0-.6.3-.8.2-.2.5-.4.7-.6 1.1-.7 2.1-1.4 3.2-2.1.8-.5 1.5-1.2 2.3-1.8.7-.5 1.3-1.1 1.9-1.7.6-.5 1.1-1 1.5-1.7.4-.6.7-1.4.7-2.2.1-.1.1-.5.1-.8zm6.1-2.4c0-.2.3-.3.4-.4.1-.1.2-.1.4 0 .5.1 1 .4 1.2.9.1.1.1.2.1.3-.1.5-.1 1-.2 1.4 0 .1-.2.3-.2.3-.2 0-.4-.1-.5-.2-.1-.2-.2-.4-.2-.6 0-.5-.1-1-.7-1.2-.2-.1-.3-.3-.3-.5zm2.4 6.7c-.1-.5.1-.8.6-.8.4 0 .8-.1 1.1-.4.6-.5.9-.5 1.3.1.2.3.6.5 1 .4h.5c.1 0 .2.1.3.2-.1.1-.2.1-.3.1-.3 0-.6.2-.7.5-.1.3-.2.6-.3 1-.1.4-.1.9-.1 1.3 0 .7-.2 1.3-.6 1.8-.6 1.1-1.5 1.9-2.6 2.5-.3.1-.6.3-.9.5-.8.6-1.7 1.1-2.6 1.4h-.3c.9-1.1 1.5-2.5 1.9-3.8.4-1 .8-2.1 1.2-3.1.5-.4.6-1.1.5-1.7zM83.6 68.8c0-.1 0-.3-.1-.4 0-.3.2-.6.5-.7h.3c.2 0 .4.1.7.2.4.1.6-.1.7-.5v-.5c0-.1 0-.3.1-.4.1-.1.2-.1.3-.1.1 0 .1.1.1.2.1 1.3-.2 2.5-1 3.6l-.5.5-.9.9c-.3.5-1 .7-1.5.4l-.1-.1c-.1-.1-.3-.2-.4-.3-.4-.4-1-.5-1.6-.4-.5.1-1 .1-1.5 0-.4-.1-.8-.3-1.1-.6 1.1.3 2.2.2 3.1-.4.6-.3 1.3-.5 1.9-.5 1 .1 1.2-.2 1-.9zm2.4-3.2c0-.1.1-.1.1-.2.1.1.1.1.1.2s-.1.1-.1.1c0-.1-.1-.1-.1-.1zm-1.8 8c.2.2.4.1.6 0 .1-.1.2-.1.3-.2.2-.2.5-.3.7-.1.4.3.8.1.9-.5.1-.4-.2-.7-.3-1v-.2h.2c.2.1.3.3.4.5.1.3.2.7.5 1 .1.1.1.3.1.4.1.2 0 .3-.2.4h-.1c-.2 0-.4.1-.5.1-.5.1-1 .4-1.4.7-.1.1-.3.2-.4.3-.1.1-.3.1-.4.1v-.4c0-.3-.1-.7-.4-.7-.3-.1-.3-.2-.3-.5 0-.6-.1-.7-.7-.9-.2-.1-.6 0-.7-.3h.3c.6.2 1.2 0 1.5-.5.3-.4.7-.8 1.1-1 .1-.1.2-.1.4-.2 0 .1 0 .3-.1.4-.3.4-.6.7-.8 1.1l-.6.9c-.3.2-.3.4-.1.6zm5.4-1.9v-.2h.3c.3.1.4.4.4.7 0 .2-.1.4-.1.5-.2.4 0 .9.4 1.1.1.1.2.1.3.2.6.4.7.9.5 1.3-.3.6-1.1.9-1.7.7-.2-.1-.4-.3-.4-.5 0-.4-.1-.6-.6-.6-.3 0-.4-.1-.4-.4-.1-.4-.2-.7-.3-1.1 0-.2-.2-.4-.3-.6v-.4c.1 0 .2-.1.3-.1.4-.1.4-.1.6.3 0 .1.1.2.1.3.1.2.3.3.5.2 0 0 .1 0 .1-.1.4-.2.6-.6.5-1-.1 0-.1-.1-.2-.3zm-3.4 11.8c-.2.2-.5.3-.7.2-.3-.1-.7-.2-1-.3-.3-.1-.6-.2-.8-.4-.6-.5-1.5-.7-2.3-.6-.9.1-1.8.2-2.7.2-.2 0-.3-.1-.5-.2-.6-.4-1-1-1.1-1.7-.2-1-.3-2.1-.5-3.1v-.3c.1 0 .2.1.3.1.6.4 1.3.7 2 .9.3.1.5.2.7.4.6.4 1.1.7 1.7 1.1.7.5 1.6.8 2.5.8.7 0 1.3 0 2 .1h.7c.3 0 .5.1.7.1 0 .3 0 .7-.1 1-.2.8-.5 1.3-.9 1.7zm.9-.5c-.1.1-.1.1 0 0-.1 0 0 0 0 0zm-1.4 1.3c-.2.3-.4.2-.7.1-.4-.1-.8-.2-1.3-.3-.2-.1-.5-.1-.8-.1h-.4c-1 .2-2-.1-2.8-.7-.2-.1-.6-.1-.6-.5.3 0 .5 0 .8-.1.5-.1 1-.1 1.5-.2.7-.2 1.5 0 2 .5.4.3.8.4 1.2.5.3.1.7.2 1 .3.3.3.2.4.1.5zm-14.4-17c.1 0 .1.1 0 0 0 .4.2.7-.1 1-.1.1-.7-.2-.9-.5-.1-.1-.1-.2 0-.3.2-.2.1-.3-.1-.4-.5-.4-1.2-.5-1.8-.2-.5.3-1.1.2-1.5-.1-.2-.1-.4-.2-.6-.4-.8-.9-1.6-1.8-2.3-2.7-.4-.6-.8-1.1-1.3-1.6-1.2-1-2.1-2.3-2.6-3.8-.3-.6-.3-1.4.1-2 .2-.2.3-.6.4-.8.1-.2.3-.3.4 0 .6.7 1.3 1.4 2 2l.5.5c.3.5.8.9 1.4 1.2 1 .5 1.9 1.1 2.6 1.9.9 1 1.9 2 3 2.9.3.2.5.5.7.7.1.2.3.5.4.8 0 .3-.1.7-.2 1-.2.2-.2.5-.1.8zm-10.6 2.3c-.1 0-.2.1-.4.1-.4.3-.7.2-1-.1-.3-.3-.6-.5-1-.4-.5 0-.6-.5-.8-.9-.1-.3.1-.5.3-.7 0-.1.1-.1.2-.1.1.1 1.9 1.3 2.7 1.9.1.1.1.2 0 .2zm.1.5l-.4.4s-.2-.1-.3-.2c.1-.1.3-.2.4-.3.1-.1.2 0 .3.1zm-3.4-3c-.3.1-.6.3-1 .4l-.1-.1c.1-.2.3-.4.4-.6.1-.1.3-.2.4-.3.1.1.2.3.3.4.1.1.1.2 0 .2zm0 .3c0 .1 0 .2-.1.3-.3.7-.3.7-.9.1l1-.4zm-.7 2.5c.2-.1.2-.2.1-.4l-.3-.9c0-.1 0-.1.1-.2 0 0 .1 0 .1.1.3.3.8.3 1 .7 0 .1.2.1.4.1.4 0 .9.2 1.1.6.3.3.6.5.9.7.3.2.5.1.7-.2 0-.1.1-.2.1-.3.2-.5.2-.5.7-.2.5.4 1.1.3 1.5-.2.1-.1.1-.1.1-.2.1-.2.2-.5.4-.8.1-.1.2-.2.4-.2 0 0 .1 0 .1.1.8.6 1.6 1.2 2.5 1.6.8.7 1.5 1.5 2 2.4.1.1.2.3.3.5.4.7.5 1.5.3 2.2-.1.8-.8 1.3-1.6 1.2-.3 0-.6-.1-.9-.1h-2.2c-.7 0-1.4-.1-2-.4-1.2-.5-2.3-1-3.4-1.6-.5-.2-.9-.5-1.3-.8-.5-.4-.8-.9-1-1.4-.2-.5-.5-1-.9-1.3-.2-.2-.2-.3.1-.4 0 0 .1 0 .1-.1-.1-.2.2-.4.6-.5zm3.8-7.5c-.1 0-.5.2-.6-.1-.1-.2.1-.5.1-.7.1-.4 0-.8-.2-1.1-.3-.6-.4-1.3-.1-1.9l.1-.1s.1 0 .1.1c.1.1.2.3.2.4.4 1 1.1 2 1.9 2.7.7.7 1.4 1.5 2 2.4.6.8 1.2 1.5 1.9 2.2.2.2.4.4.7.5.6.5 1.4.6 2.1.2.3-.2.7-.2 1 0 .4.2.5.4.4.8 0 .1-.1.2-.2.2-.8.1-1.6.5-2.2 1.1-.1 0-.1.1-.2.1l-1.2.6c-.5-.3-.9-.5-1.4-.8-.2-.1-.3-.3-.4-.4-.3-.2-.7-.2-.9.1 0 0-.1.1-.1.2-.2.3-.3.6-.5.9-.1.1-.2.1-.3.2-.1-.1-.1-.2-.2-.3-.1-.3-.2-.5-.4-.7-.2-.2-.2-.5-.1-.7.2-.7.1-1.5-.2-2.1-.2-.5-.3-1.1-.2-1.7.1-.3.1-.7.1-1 0-.8-.4-1.2-1.2-1.1zm-1.3-10c-.1-.4 0-.8.3-1.1.3-.5.3-.6-.3-.8-.2-.1-.3-.2-.5-.3.1-.1.3-.3.5-.4.1-.1.2-.1.4-.1.5-.1.6-.1.6.5.1.6.2 1.3.5 1.8.3.6.5 1.2.7 1.8s.5 1.2.8 1.8c.1.3.3.6.2.9-.3-.3-.7-.6-1-1-.5-.6-.9-.6-1.3.1l-.3.6c-.1.2-.2.4-.4.7-.5-.9-.7-2-.4-3 .2-.5.3-1 .2-1.5zm.3-13.3v-.2c0-.1 0-.3.1-.4.2-.1.2.1.3.2.1.1.2.2.3.2.5 0 .7.6 1.2.6l.1.1c.2.5.3 1.1.1 1.7-.5.9-.9 1.9-1.1 2.9-.1.7-.2 1.3-.3 2 0 .3-.1.4-.4.4-.3 0-.5.1-.7.2-.4.2-.8.3-1.3.2-.2-.1-.4.1-.4.4-.1.4-.1.8-.1 1.2 0 .1-.1.1-.1.2-.1 0-.1-.1-.2-.1-.1-.3-.2-.5-.4-.8-.2-.4-.2-1 0-1.4.2-.5.3-1 .4-1.6.2-1.4.6-2.7 1.3-3.9.2-.3.4-.6.7-.8.4-.2.6-.6.5-1.1zm6.6-1.3c-.2-.3-.4-.5-.6-.7-.6-.7-.4-1.2.4-1.6.3-.1.6-.3 1-.5-.3.1-.6.1-.9.2-.2 0-.3 0-.3-.2-.1-.8-.1-1.6-.2-2.5 0-.2 0-.3.3-.2.6.4 1.1.7 1.7 1.1.1.1.1.2 0 .3-.4.3-.6.7-.4 1.2.1-.2.1-.3.2-.5s.2-.3.4-.5c.3-.3.7-.6 1.1-.9.2-.2.3-.1.4.1.2.4.3.9.2 1.3 0 .1-.1.2-.2.3-.2.1-.4.3-.5.4-.3.3-.3.3 0 .6.1.1.2.3.2.4.2 1.3.6 2.6.9 3.9.2 1 .2 1-.6 2.2.1-.7.1-1.2.2-1.7.1-.6 0-1.3-.3-1.9-.1-.3-.4-.5-.7-.5-.2 0-.3.1-.4.3-.2.2-.3.4-.4.6-.3.6-.6 1.3-1 1.9-.1.1-.2.3-.3.3-.2-.1-.2-.3-.1-.5 0 0 0-.1.1-.1.1-.2.1-.5-.2-.7-.4-.4-.4-.4-.1-.8l.1-.1c.3-.4.3-.9 0-1.2zm-1.8-2.1c-.6-.4-1.4-.6-2.1-.5h-.5c-.3.1-.6 0-.8-.3-.2-.3-.5-.4-.8-.4-.2 0-.4-.1-.6-.1 0 0-.1-.1 0-.2.4-.3.9-.6 1.4-.9.1-.1.3.1.5.1.5.1.6 0 .8-.4.1-.1.2-.2.3-.2.4 0 .8 0 1.1.3.5.3.9.8 1.6.7.1 0 .2.1.2.2 0 .3 0 .5.1.8h.1c0 .3-.1.5-.2.8-.5.5-.6.5-1.1.1zm1.4-4.2c.1-.3.1-.5.2-.7.1-.2.2-.3.4-.1.2.2.4.2.7 0 .3-.3.4-.2.6.1l.1.1c.2.7.7 1.3 1.3 1.6-.3.3-.6.5-.9.7-.1.1-.3.2-.5 0-.6-.4-1.1-.8-1.7-1.1-.1-.2-.2-.4-.2-.6zm4.3 3.1c.5 0 .9-.3 1.1-.7l.4-.4c.1.2.2.3.3.5.1.2.1.3.2.5.2.5.3.5.7.2.1 0 .1-.1.2-.1.6-.2.8-.1.7.6-.1 1-.1 2-.1 2.9 0 .7.1 1.3.1 2 .1 1.2-.1 2.3-.7 3.3-.2.4-.4.7-.7 1.1-.3-.9-.4-1.7-.3-2.6.1-.6.1-1.3.1-1.9 0-.4-.1-.9-.1-1.3-.2-1.3-.9-2.5-2.1-3.1-.2-.1-.5-.2-.7-.3-.1 0-.3-.1-.4-.2l.3-.3c.5-.1.7-.2 1-.2zm-.4-1.6c.3.3.5.6.8.9.2.2.1.4-.1.5-.4.1-.6.1-.7-.4v-1zm5.2 4.6c.1 1.2-.1 2.3-.7 3.3-.1-.3-.1-.7-.1-1.1 0-.8-.1-1.7-.1-2.6-.1-1.3.1-2.5.8-3.7l.3-.3c0 .9-.1 1.8-.1 2.7-.2.7-.2 1.2-.1 1.7zm-.2 2.9c.1-.2.1-.3.2-.5 0-.1.1-.2.2-.2.1.1.1.2.1.2.3.7.5 1.4.8 2.1.4 1 .6 2 .5 3.1-.1 1.4-.3 2.8-.4 4.2 0 .3-.1.5-.4.5-.3 0-.6.1-.9.2-.2.1-.3.1-.3-.2-.2-.9 0-1.1.9-1.3.4-.1.4-.2.1-.5l-.9-.6c-.2-.1-.2-.2-.1-.3.2-.2.4-.4.5-.6.3-.3.5-.7.7-1 .2-.3.1-.5-.2-.6-.4-.1-.9-.2-1.3-.2-.2 0-.3.1-.4.3 0 .3-.1.6-.1.8 0 .1 0 .4-.2.3-.2-.1-.4-.1-.4-.4v-.6c-.2.1-.5.2-.7.2-.1 0-.2 0-.3.1 1.2-1.6 2-3.2 2.6-5zm5-2.7v.1-.1zm-.1.9c.1.1.1.3 0 .4-.2.6-.4 1.2-.6 1.7-.6 1.2-1.2 2.2-1.9 3.3 0 .1-.1.1-.2.1 0-.1-.1-.1-.1-.2-.1-.9-.3-1.7-.7-2.4-.5-.9-.7-1.8-.7-2.8 0-.2 0-.4.1-.6.3-1 .8-1.9 1.3-2.8.3-.3.6-.6.9-.8.2-.2.4-.1.5.2l.3.9c.3 1 .6 2.1 1.1 3zm-4.5 13c.1.2 0 .5 0 .7-.1.3 0 .4.3.5.2 0 .4.1.6.1-.1.1-.2.2-.4.2-.9.5-1.9.2-2.5-.6-.3-.3-.3-.9 0-1.2l.1-.1 2.1-1.2h.3v.4l-.3.6c-.1.2-.2.4-.2.6zm1.4-.3c.3.1.5.3.3.5l-.6.9c0-.4.1-.7.1-1.1.1-.1 0-.3.2-.3zm-8.9-.3h.8c-.5.4-1.1.7-1.7 1-.2.1-.5 0-.6-.2-.2-.5-.6-.8-1.2-.9-.4-.1-.4-.1-.4-.6.1-.6.2-1.2.2-1.8.1-.3 0-.7-.2-.9-.1 0 0-.2 0-.3.7-1.1 1.1-2.4 1.3-3.7.1-.5.3-1 .6-1.4.2-.2.3-.5.4-.7l1.2-2.4c.1-.1.2-.3.3-.4.2-.3.4-.3.6.1.3.6.4 1.4.3 2l-.3 1.8v.2c0 .1.1.2.1.3.1 0 .3-.1.3-.2.1-.2.2-.3.3-.5.2-.4.4-.8.7-1.2.2-.4.6-.7 1.1-.7.2 0 .3.1.2.3-.1.1-.1.2-.2.3-.6.9-.9 2.1-.8 3.2 0 .1.1.3.1.4.1 0 .3-.1.3-.1.3-.3.6-.2.9-.1l.6.3c-.3 1-1.2 1.7-2.3 1.9-.4 0-.8 0-1.2-.3l-1.2-.6c-.6-.3-1.3-.1-1.6.5-.1.1-.1.3-.1.4 0 .1 0 .1-.1.2 0 .3-.2.6-.5.6-.3.1-.5.4-.5.7-.1 1.5 1 2.8 2.5 3 0-.2 0-.2.1-.2zm-3.4-4l-.2.2c-.1-.1-.1-.2-.2-.3v-.5-.4c.2-.6.4-1.2.4-1.8.1-.3.2-.5.4-.7.3-.2.5-.6.6-.9.1-.2.1-.3.3-.5.1-.1.2-.2.4-.2v.4c-.1.5-.3 1-.4 1.5-.2 1.2-.7 2.3-1.3 3.2zm7.7-3.5c0 .4 0 .4-.3.4h-.3c-.5 0-.5 0-.5-.4 0-.9.3-1.7.8-2.5.2-.2.4-.5.2-.8-.2-.3-.5-.1-.8-.1-.1 0-.2.1-.3.1-.2.1-.3.2-.5.2-.1-.2-.1-.4-.2-.6 0-.2 0-.4-.1-.5-.4-1.1-.6-2.3-.8-3.5-.1-.3 0-.4.3-.3l.6.3c1.1.7 1.8 1.9 1.9 3.2 0 .4 0 .8.1 1.2-.1.6-.1 1.2-.2 1.8.1.5.1 1 .1 1.5zM66 40.5c-.2.3-.2.7.1.9 0 0 .1 0 .1.1.1.1 0 .3-.1.2-.6-.1-1.2.4-1.3 1-.1.2-.2.4-.3.5-.4.3-.7.8-.7 1.3 0 .1-.1.3-.1.4-.1-.4-.3-.8-.4-1.2-.1-.2-.1-.5 0-.8.1-.5.3-1 .4-1.5.3-.7.2-1.5-.1-2.2-.1-.2-.1-.3 0-.5s.4-.2.6-.1l.2.2c.7 0 1 .6 1.4 1 .1.4.3.5.2.7zm-2.6 6.8c-.5-.1-.9-.2-1.3-.3-.2-.1-.4-.2-.4-.4.2-1.1.3-2.1.5-3.2l.1-.1s.1 0 .1.1c0 .3.2.5.5.6.1.1.2.3.3.5.2.8.2 1.8.2 2.8zm0-5.9c-.2.7-.4 1.3-.5 2h-.1c-.2-1.2-.5-2.3-.7-3.5-.1-.3 0-.5 0-.8.1-.2.2-.5.4-.7.1-.1.2-.1.3-.1l.1.1c.5.9.7 2 .5 3zm-1.3.6c.1.2.1.5 0 .8-.1.4-.2.7-.3 1.1-.2.9-.3 1.7-.3 2.6 0 .2 0 .4-.2.4s-.4 0-.5-.1c-.1-.1-.1-.3-.1-.4.1-1.6.4-3.1 1.1-4.5.1-.1.1-.2.2-.2 0 0 0 .1.1.3zm-.9 5.2c.1 0 .3-.1.5-.1l1.2.3c-.2.3-.4.5-.5.8-.7.9-1.1 1.8-1.4 2.9 0 .1-.1.1-.1.2l-.2-.2-.3-1.2h.1c0-.7 0-1.3.1-2 0-.4.2-.6.6-.7zm.6 2.8c.2 1.3.4 2.5.6 3.8.1.4.1.8.1 1.2 0 .1 0 .1-.1.2-.1 0-.1-.1-.2-.1-.1-.2-.2-.5-.3-.7-.2-.4-.3-.8-.5-1.2-.4-1.1-.3-2.3.4-3.2zm.2 19.3l-.1.1c-.2 0-.4 0-.4-.3 0-.1.1-.2.2-.2.1.1.2.3.3.4zm7 7.2c.7-.8.9-2 .4-3 0-.1-.1-.2-.1-.3-.1-.1-.1-.3 0-.4.5-.5 1-1.1 1.5-1.6h.1l.1.1v1.5l-.3 2.1c-.3 1.3-.8 2.6-1.6 3.7-.1-.6-.2-1.1-.2-1.7-.1-.1 0-.3.1-.4zm.2-3.9c-.1.1-.2.1-.3 0-.2-.2-.3-.5-.5-.7-.4-.7-.9-1.2-1.6-1.7-.3-.2-.3-.3 0-.4.5-.3 1.1-.7 1.6-1 .5-.3 1-.5 1.6-.6.4.2.7.3 1.1.5.1 0 .1.2.1.3-.1 1.3-.9 2.7-2 3.6zm2.3-8.1c-.2-.1-.3-.2-.5-.4-1.5-1.2-2.7-2.6-4-3.9-.5-.5-1.1-.9-1.8-1.2-.7-.3-1.2-.8-1.6-1.4-.1-.2-.2-.3-.4-.4-.4-.3-.6-.8-.5-1.3 0-2-.2-4.1-.7-6.1-.1-.4 0-.8.2-1.1.1-.2.2-.3.4-.5.3-.5.8-.7 1.4-.5.3.1.4.2.4.4 0 .5-.1.9-.1 1.4 0 .2-.1.4-.1.5-.1.6-.2 1 .7 1 .4 0 .6.3.8.7.3.5.4.6 1 .4.3-.1.6-.2.9-.4.5-.3 1.1-.5 1.7-.6.1 0 .1-.1.2-.1l-.2-.2c-.5 0-.9-.1-1.4-.1-1.4 0-2.6-1-2.6-2.4-.1-.4.1-.8.5-.9.2-.1.4-.3.4-.6 0-.2.1-.3.1-.4.3-.8.7-.9 1.5-.6.3.1.6.3.9.4.7.4 1.5.5 2.2.2.6-.2 1.2-.5 1.8-.8.1 0 .3-.2.3.1 0 .2.1.4.3.6.1.1.1.5.2.7 0 .1.1.2.1.2.1-.1.2-.1.2-.2.2-.5.3-.9.5-1.4 0-.2.1-.4.1-.5 0-.2.1-.3.3-.2h.1c.3.1.7 0 .9.3-.2.2-.3.5-.5.7-.1.1-.2.3-.3.4-.1.3-.4.6-.7.8-.3.2-.2.3 0 .5.4.2.7.4 1.2.7-.3.1-.5.2-.6.2-.5.1-.7.6-.6 1.1 0 .1.1.3.1.5 0 .3-.1.5-.4.6l-.6.3c-.6.3-.8.9-.5 1.5.1.2.2.3.3.4 1.1 1 2.1 1.1 3.4 0l.6-.6c.1.2.2.5.3.7.3.7.3 1.5 0 2.3-.2.5-.3 1-.5 1.5-.1.2-.2.2-.3.1-.1-.1-.3-.2-.4-.2-.4-.3-1-.2-1.4.2-.1.1-.1.1-.1.2-.4.7-.6 1.4-.7 2.2 0 .2-.1.5-.1.7 0 .3-.2.6-.5.8-1 .6-1.6 1.6-1.6 2.8v.4c-.1.1-.2.3-.3.5zm6.3-10.6c-.2-.7.1-1.4.6-1.8 1.1-.9 2.2-1.8 3.4-2.7.3-.2.4-.2.5.1.2.6.8.9 1.2 1.3.1.1.3.2.5.3.2.1.2.2.1.4-.2.3-.4.5-.5.8-.1.3-.4.4-.6.3h-.1c-.5-.2-1-.3-1.5-.1-.1.1-.2.1-.3.2.1.1.2.1.3.2.2.1.5.1.7.2.3.1.5.3.8.5.2.1.2.3.1.5-.2.3-.3.6-.4.9-.5 1.3-1.3 2.5-2.3 3.6-.7.7-1.5 1.4-2.4 1.8-.6.3-1.2.7-1.7 1.2s-.9 1-1.4 1.5c-.1.1-.2.2-.3.2 0-.1-.1-.2-.1-.3v-.3c.1-.3.2-.5.3-.7.4-.5.8-1 1.2-1.4.3-.4.6-.7.9-1.1.3-.4.4-1 .4-1.5v-.7l.6-1.8c0-.7.1-1.2 0-1.6zm5.2-5.1c.1-.1.2-.1.4-.1.9-.3 1.1-.2 1.3.7.1.2.1.5.1.8-.1.2-.1.6-.3.8-.3.2-.6-.1-.8-.3-.3-.2-.6-.5-.9-.8-.3-.2-.3-.5-.1-.8.1-.2.2-.3.3-.3zm-8.4 14.9c-.1-.2 0-.3.2-.3s.4-.1.7-.2c1.6-.4 3.2-.7 4.7-1.1l.1-.1c-.1 0-.1-.1-.2-.1-.2 0-.4 0-.5.1-.9.2-1.9.5-2.8.7l-1.2.3H75c.1-.2.2-.4.4-.6.6-.7 1.3-1.3 2.2-1.7 1.6-.9 3-2 4.2-3.4.3-.3.6-.7.9-1 .3-.3.7-.5 1.1-.7.2-.1.3-.2.5 0s.4.4.1.7c-.3.4-.6.7-1.1 1-.6.4-1.1 1-1.3 1.7-.4 1-.8 2.1-1.2 3.1-.2.6-.4 1.2-.6 1.9-.2 1.3-1.3 2.2-2.6 2.1-.5-.1-.9-.2-1.4-.3-.5-.2-1.1-.3-1.6-.3-.2 0-.4 0-.2-.2.4-.5.4-1.1.2-1.6zm7.5-7.4zm.1-.1c.3-.7.6-1.4.8-2.1.1-.2.2-.1.3 0 .2.3.4.6.5.9.1.2 0 .3-.2.3-.5.2-1 .5-1.4.9zm2-1l-.9-1.5c-.3-.5-.8-.8-1.3-1-.1 0-.2-.1-.2-.1l.2-.1c.6.1 1.2.3 1.7.7.7.6 1.3 1.2 1.8 2 .1.1.1.3-.1.4-.8.3-.6.5-1.2-.4zM71.6 66.6c.1-.6.2-1.3.3-1.9l.3-2.1c.1-.7.6-1.3 1.2-1.6.4-.2.7-.7.7-1.2 0-.8.2-1.6.6-2.3.1-.2.2-.4.4-.6.1-.2.4-.3.6-.2.6.2 1 .8 1 1.4 0 .5-.2 1-.6 1.3-.3.4-.6.7-.9 1-.3.4-.7.8-1 1.2-.4.5-.5 1.3-.1 1.8.6.9.3 1.4-.5 2.1-.5.4-.9.9-1.4 1.3-.1.1-.3.4-.5.2-.1.1-.2-.2-.1-.4zm.5.8c.3-.2.6-.5.9-.8.6-.6 1-.7 1.6-.1.4.4.7.8.9 1.2l1.2 2.4c.1.1.1.2.2.3.8.7 1.8 1.1 2.9 1 .2 0 .4-.1.6-.1.6-.1 1.2.2 1.5.7-.9 0-1.9.3-2.5 1-.8.8-1.7 1.5-2.7 2l-1.2.9c-.2.2-.3.2-.4-.1-.4-1.3-.9-2.5-1.5-3.7-.5-1.4-1.1-2.7-1.6-4.1-.2-.2-.2-.4.1-.6zm3.7 8.6c.2-.2.4-.4.7-.5 1.3-.7 2.4-1.6 3.5-2.6.4-.3.8-.5 1.3-.6h.2c.6.2 1.1.5 1.7.6.1 0 .2.3.2.5 0 .4 0 .7.5.8.2 0 .3.3.3.5s-.1.4-.4.5c-.5.2-.9.5-1.3.8-.4.3-.9.6-1.3 1-.4.3-.7.6-1 1-.1.2-.4.4-.7.3-1.1-.1-2.1-.6-2.9-1.3-.2-.2-.4-.4-.7-.5-.4-.2-.4-.2-.1-.5zm4.6 3.1c-.2-.1-.3-.2-.5-.4.2 0 .4-.1.6-.1.4-.1.8-.1 1.2-.2 1-.2 2.1-.3 3.2-.3 1.7 0 3.3-.2 4.9-.8h.2v.2c-.1.4-.2.7-.3 1.1 0 .2-.1.3-.3.2-.5-.1-1 .1-1.3.5-.3.3-.8.5-1.2.5-.1 0-.3 0-.5-.1-.6-.2-1.3-.3-1.9-.2-.2 0-.5-.1-.6-.2-.4-.3-1-.5-1.5-.3-.5.1-.9.1-1.4.2-.2 0-.4 0-.6-.1zm9-1.9c-1.1.4-2.3.6-3.6.7-1.6 0-3.2.1-4.9.4h-.4l-.1-.2c.2-.3.5-.5.7-.8.6-.5 1.2-1 1.8-1.4.4-.4.9-.5 1.4-.5.4 0 .7-.1 1-.4.4-.4 1-.7 1.6-.8.5-.1.7 0 .8.5 0 .3.3.5.6.5h.1c.2 0 .4.1.4.3.2.8.4.9 1.2.9h.7l-.1.1c-.3.3-.7.6-1.2.7zm-6.1-7.8c-.1.1-.2.1-.3.1-1 0-1.9.3-2.8.8-1.4.7-3 .1-3.7-1.2V69c-.2-.3-.3-.6-.5-1-.3-.9-1.1-1.7-2-2 .4-.2.9-.3 1.3-.1.9.2 1.8.5 2.7.7.3.1.6.1.8.2.3 0 .5.1.7.2.6.3 1.2.6 1.9.7.5.2 1.1.4 1.6.6.4.2.5.6.3 1.1zm-.3-1.5c-.8-.3-1.7-.5-2.5-.8-.2-.1-.4-.2-.7-.4.2-.1.4-.3.6-.4.3-.2.7-.4 1-.6 0 .3.2.5.4.7l1.2 1.2c.1.1.1.2.2.4 0-.1-.1-.1-.2-.1zm-1.5-2.2l.3-.1c0 .1-.2.1-.3.1zm.4-.1c.1-.2.4-.3.6-.3-.2.2-.4.3-.6.3zm-1 .1c-.2.2-.5.3-.8.5-.5.4-1.1.1-1.7.1-.1 0-.1-.1-.2-.1h.1c.3-.1.6-.2.8-.4.6-.3 1-.8 1.1-1.4.1-.4.2-.7.3-1.1 0-.3.1-.5.2-.7.5-1.2.9-2.4 1.4-3.5.3-.5.5-1 .9-1.4 0-.1.1-.1.2-.1.6-.1.8-.6 1.2-1 .3-.4.7-.7 1.2-.8.6-.2 1.2-.6 1.5-1.1.3-.6.9-.9 1.5-.8.3.1.6-.1.7-.4.2-.4.6-.7 1-.8.4-.1.7-.5.7-1V51c0-.2 0-.5.2-.6l.3-.6c.1-.1.1-.2.2-.4.1.1.2.2.2.3.1.3.2.5.2.9-.1.3-.2.7-.4 1-.4.7-1 1.3-1.4 2-.3.5-.5 1-.7 1.5-.2.6-.5 1.2-.7 1.8s-.5 1.2-.8 1.8c-.6 1.2-1.2 2.5-1.8 3.7-.7 1.5-2.1 2.5-3.8 2.7-.4-.1-1 .2-1.6.6zm5.4-14.2h.2c.2.8.4 1.5.6 2.3.1.4-.2.6-.4.9 0 0-.1 0-.2-.1v-.1l-.2-3zm4.5-.4v.5c0 .4-.2.7-.6.7-.4.1-.8.3-1 .7-.2.4-.6.7-1.1.5h-.4c-.2 0-.3-.1-.3-.3v-.3c.2-.8.3-1.6.5-2.4.1-.5.5-.9 1-1 .1 0 .2-.1.3-.1.6-.5 1.2-.2 1.8-.2.1 0 .1.1.2.2 0 .2-.1.4-.2.6-.1.3-.2.7-.2 1.1zm2.3-.1c.4 0 .5-.2.6-.5.2-.7.4-1.4.5-2.1.4-1.5.9-3 1.5-4.4.1-.4.5-.6.9-.7.9-.1 1.8-.5 2.5-1.2.6-.5 1.3-1 2-1.4.2-.2.3-.1.3.2 0 .9-.1 1.9-.4 2.7-.5 1.4-1.1 2.8-1.8 4-.4.7-.7 1.4-1.1 2.1-.5 1-1.1 1.9-1.8 2.7-.7.8-1.4 1.5-2 2.3-.9 1.1-1.9 2-3 2.9-.2.2-.4.2-.4-.1-.2-.9-.3-1.8-.4-2.8 0-.7.2-1.3.6-1.8.4-.5.8-1.1 1.1-1.6.1-.1.5-.4.9-.3zm6.1-14.7c0-.2.1-.4.1-.5 0 0 .1-.1.2-.1l.1.1c0 .1 0 .1.1.2.2.9.6 1.8 1.2 2.5.3.4.5.9.6 1.4 0 .2 0 .4-.2.4-.9.4-1.8 1-2.6 1.7-.2.1-.3.2-.5.3.3-.3.6-.7.9-1 .3-.3.5-.7.5-1.2s-.1-1-.2-1.4c-.2-.5-.2-1.1-.2-1.7v-.7zm2.4 6.9c.2-.1.3-.1.5-.2 0 .1 0 .3.1.4.1.3.3.5.6.5.2 0 .4.1.4.4.1.5.2 1.1.2 1.6.1.7-.1 1.3-.6 1.8-.4.4-.8.8-1.3 1.2-.1.1-.3.2-.5 0-.5-.6-1.4-.6-2-.1l-.1.1c.1-.2.2-.5.3-.7.9-1.5 1.6-3 2.1-4.7.1 0 .2-.2.3-.3zm-2.4-3.8s0 .1 0 0c.3 1.1-.3 2.1-1.2 2.6.3-.9.6-1.8 1-2.6 0-.1.1-.1.2-.1v.1zm-1.4 2.4c0 .1-.1.2-.1.4-.1.4-.1.4.3.4-.4.3-.8.4-1.3.4-.2 0-.3-.1-.2-.3.1-.4.3-.8.6-1.1.5-.5.9-1 1.2-1.6.1-.1.1-.2.2-.2-.3.7-.5 1.3-.7 2zm.8 7.8l-.1.1.1-.1zM83.9 64.8c1.2-.3 2.1-1.1 2.7-2.1.7-1.4 1.4-2.8 2-4.2.2-.4.3-.8.5-1.2.3-.7.7-1.5 1-2.2.2 1 .4 2 .5 3.1.3 1.5-.3 3.1-1.4 4.1-1 1-2.1 1.7-3.4 2.2-.2.1-.3.1-.5.2-.4.3-.9.4-1.5.4h-.9V65c.4 0 .7-.1 1-.2zm7.1-5.6c0-.5.2-.9.6-1.2 1.2-1 2.3-2.1 3.2-3.3.3-.4.6-.7.9-1.1-.1.2-.1.3-.2.5-.4.5-.7 1.2-.8 1.8-.1.6-.3 1.1-.4 1.7-.2.7-.5 1.3-.9 1.9l-.1.1c-.8.6-1.7 1.2-2.5 1.8h-.2v.1c.3-.8.5-1.5.4-2.3zm4.2-3.9c.1-.3.3-.6.5-.9.4-.5.8-1.1 1.3-1.6.8-.9 1.4-1.9 2-3 .1-.1.1-.3.2-.4.5-.8.8-.9 1.6-.4.3.2.6.2.9.1 1.4-.7 2.2-2.1 2-3.7-.1-.4-.2-.8-.2-1.2-.1-.3 0-.6.2-.8.2-.2.5-.4.6-.3.3.1.1.4.1.7-.2 1-.3 1.9-.5 2.9-.2 1.3-.8 2.5-1.6 3.6-.7.8-1.3 1.7-1.9 2.5-1.2 1.6-2.6 3.1-4.1 4.4-.4.4-.8.7-1.2 1.1-.3.2-.6.4-.9.7.3-1.3.7-2.5 1-3.7zm7.8-5.5c.1-.3.4-.6.8-.7 1-.3 2-.8 2.9-1.4.4-.3.8-.5 1.2-.7.6-.3 1.1-.7 1.5-1.3.3-.4 1-1.3 1-1.3.5.4.5.4.9.1.4-.4.5-.4.8-.2.3.2.3.5.1.9-.3.6-.6 1.1-1.1 1.5-.3.4-.7.7-1.1 1.1-.8.7-1.6 1.2-2.6 1.7-.5.2-1.1.3-1.7.2-.8-.1-1.7 0-2.5.4h-.2v-.3zm3.6-8.3c-.7 1.9-1.4 3.8-2.2 5.6-.1.3-.2.5-.4.7l-.1-.1c.2-1 .3-2 .5-3.1.1-.6.3-1.2.7-1.6.2-.2.3-.5.4-.8.4-1 .6-2.1.7-3.3 0-.1 0-.2.1-.3.5 1 .6 2 .3 2.9zm-12.1-6.8c0-.3-.1-.6-.2-.9-.1-.3-.1-.7-.1-1 .2.3.5.5.7.8.6.7.9 1.5.9 2.4-.2 2-.7 3.8-2.4 5.2-.4.3-.8.7-1.1 1-.2.1-.3.2-.5.3 0-.2.1-.3.2-.5.5-1.1 1.1-2.1 1.6-3.2.2-.4.4-.8.6-1.3.4-.8.5-1.8.3-2.8zm-1.7 7.6c-.1.4-.3.8-.4 1.2-.1.2-.3.4-.5.6-1.3.9-2.5 1.7-3.8 2.6-.3.2-.3.2-.4-.2v-.4c0-.2.1-.5.3-.5.6-.3 1.1-.6 1.6-.9.3-.2.6-.4.8-.6.7-.9 1.5-1.5 2.4-1.8zm3.8-2.5l-.3.6c-.9.8-1.9 1.6-2.8 2.4-.1.1-.3.2-.4.3H93l-.1-.1c.2-.6.1-1.2.6-1.6 1.4-1.2 2.3-2.9 2.5-4.7 0-.1.1-.3.2-.4.2.8.4 1.4.5 2 .1.6.1 1.1-.1 1.5zm-1-11.4c-.6 1.2-.9 2.5-.9 3.8v.3l-.1.1s-.1 0-.1-.1c-.5-.6-.7-1.2-.8-2 0-.1 0-.2.1-.3.4-.7.7-1.3 1.1-2 .1-.2.2-.4.4-.6.1-.1.3-.1.3-.1.1.1.1.2.1.4.1.3 0 .4-.1.5zm-9.8 15.4c0-.1.1-.2.1-.3.1.1.2.1.2.2.3.4.4.9.4 1.4 0 .3.1.4.4.5.5.1.5.1.5.6.1.7.2 1.4.2 2.1 0 .3 0 .6-.1.9-.3.7-.6 1.4-.8 2.2-.1-.3-.2-.5-.4-.7-.1-.1-.2-.2-.3-.2-.1.1-.2.2-.2.3 0 .6 0 1.2.1 1.8 0 .8.1 1.6.1 2.4 0 .1-.1.2-.2.3-.1 0-.2-.1-.2-.2-.6-.8-1.3-1.6-2.1-2.2-.1 0-.1-.2-.1-.3v-.1c.4-.4.5-1.1 1.1-1.3.1 0 .1-.2.2-.3.2-.6.2-1.3-.1-1.9-.2-.5-.3-1-.1-1.5.2-.8.5-1.6.7-2.4.4-.5.5-.9.6-1.3zm-18-15.4c.3.2.6.5.7.9.2.5.7 1 1.2 1.2.2.1.4.3.5.5.1.5.5.9 1 1 .3.1.6.4.7.7l.6 1.5c0 .1-.1.2-.1.2-.1-.1-.2-.1-.2-.2-.1-.3-.2-.6-.4-.9-.2-.3-.4-.4-.7-.1-.2.2-.4.5-.5.4-.2-.1-.4-.3-.6-.5-.4-.4-.8-.8-1.3-1.1-.4-.2-.6-.5-.8-.9.1-.1.1-.3-.1-.5-.1-.3-.5-.5-.8-.3-.1 0-.1.1-.2.1-.2.1-.3.1-.4-.1-.3-.3-.4-.2-.6.1-.3.6-.5 1.2-.6 1.8 0 .4.1.6.1.9 0 .4-.2.5-.6.4-.2-.1-.4-.2-.6-.4-.5-.4-1.1-.6-1.7-.6-.3 0-.6.1-.6.4 0 .2-.2.3-.4.2-.2 0-.4-.1-.5-.1h-.6c.1-.2.1-.3.2-.5.2-.4.4-.9.6-1.3.2-.5.6-.8 1-1 .7-.2 1.3-.6 1.7-1.2.6-.7 1.2-1.4 1.7-2.1.1-.3.3-.3.5 0 .6.6 1.1 1.1 1.8 1.5zm-4.3.7c0-.1.1-.1 0 0 .1-.1.1 0 0 0zm-5 5c.1 0 .1 0 .2.1.4.3.8.5 1.3.5.6.1.9.5 1 1.1l-.1.2c-.5-.1-1 .2-1.2.6-.1.2-.2.2-.4 0-.1-.1-.2-.1-.3-.2-.7-.4-.7-.4-.6-1.3 0-.3.1-.6.1-.8-.1-.1-.1-.1 0-.2zm.1 2.4c.2.1.4.3.6.4.2.2.4.2.6 0l.1-.1c.1-.1.1-.2.2-.3.1-.4.5-.6.8-.4h.1c.1.1.3 0 .5 0 .3 0 .6.1.9.2.3.2.6.2.9.1.3-.1.4 0 .4.3 0 .2.1.3.1.5 0 .3.3.5.5.5.6.1.6.1.7.7 0 .1.1.2.1.3h.1s.1 0 .1-.1v-.8c0-.2-.3-.3-.5-.3-.6-.1-.6-.1-.7-.6 0-.1 0-.2-.1-.3-.1-.4-.2-.5-.6-.3-.3.1-.6.1-.9-.1-.3-.2-.6-.2-.9-.4 0 0-.1-.1-.1-.2l.1-.1h.8c.6-.1 1.2.1 1.8.4.2.2.6.2.8.4s.3.6.4.8c.2.3.5.6.7.9.2.2.2.5 0 .8-.2.3-.3.4-.7.2-.4 0-.7-.2-1-.4-.2-.2-.5-.2-.7 0-.3.2-.4.1-.6-.2-.1-.2-.2-.3-.3-.4-.2-.1-.3-.2-.4.1-.2.3-.3.6-.5.9-.1.3-.4.4-.6.2-.3-.4-1-.3-1.2-.9-.5-.1-1-.3-1.4-.7-.1-.1-.4 0-.5 0-.1-.2-.1-.4 0-.6 0-.2 0-.3.1-.5-.1-.1.1-.2.3 0zm-1.2-3.4s0-.1 0 0c.2-.1.3-.2.4-.3v.1c0 .2-.2.2-.4.2zm-.4 1.1c.1-.2.2-.4.3-.5.1-.1.2-.1.3-.2 0 .1.1.2.1.3l-.3 1.8c0 .2-.1.4-.1.5.1.6-.2 1.2-.8 1.5-.2.1-.3.4-.6.1-.1-.1-.4 0-.4.1-.2.3-.3.6-.5 1-.2-.4-.4-.7-.5-1.1-.3-.5-.2-1.1.2-1.4.1-.1.2-.1.2-.1.9-.5 1.6-1.2 2.1-2zm-.2-.8c-.1 0-.1-.1-.2-.2.1 0 .1-.1.2-.1h.7c-.2.2-.5.4-.7.3zm-1.4 5.3c0-.2.1-.3.2-.5 0-.1.2-.2.2-.1.4.4.6 0 .9-.3l.2-.2s.1-.1.1 0c0 0 .1.1.1.2v.3c-.1.8-.3 1.6-.6 2.4-.3.6-.5 1.3-.5 2 0 .4-.1.9-.3 1.3-.7 1.8-.8 3.9-.1 5.8.2.4-.1.9-.5 1.1-.1 0-.2 0-.3.1-.4 0-.6-.1-.5-.5.1-.4.1-.8.2-1.1.2-1.6.2-3.3-.1-4.9v-.8c.2-1.7.6-3.3 1-4.8zm-1.3 14c0-.3-.1-.6-.1-.9 0-.7 0-.8.7-.9.6 0 1.1-.4 1.4-.9.1-.3.5-.6.8-.6.6-.1.7-.3.7-.9V48c0-.5.1-.5.6-.5.3 0 .5-.1.7-.2.2-.1.5-.2.7-.3.3-.1.4.1.6.2.4.2 0 .3 0 .5 0 .3-.1.7-.1 1 0 .8 0 .7-.7.9-.4 0-.8.2-1 .5-.1.1-.2.4 0 .5l.1.1c.2.2.6.1.7.4 0 .2-.3.4-.3.7-.1.3-.1.6-.1.8.1.4.1.8-.1 1.1-.4.8-.4 1.7 0 2.5.1.2.1.3.2.5.3.7.2.6-.4 1-.1.1-.3 0-.4 0-.6-.3-1.2-.7-1.6-1.3-.4-.4-.7-1-.8-1.6 0-.7-.6-1-1.3-.8-.1 0-.1.1-.2.1-.1.1-.3.1-.2-.1 0-.2.1-.3.1-.5v-.8zm3.9 5.4c-.4.5-.8.9-1.2 1.4-.1.1-.2.1-.3.1l-.1-.1c-.2-.4-.6-.8-1-.8-.3 0-.3-.3-.3-.5-.2-.8-.2-1.5-.1-2.3 0-.1.2-.2.2-.3.2.1.3.1.5.2.1.1.2.2.2.3.5.7 1.2 1.3 2 1.7.2 0 .3.1.1.3zm-3.4-4c.2-.1.4-.1.6.1.1.2.2.5.3.7 0 .5-.4.3-.6.4-.1.1-.2.1-.2-.1s-.1-.4-.1-.7c-.1-.1-.2-.3 0-.4zm0 3.7c.1.2.1.3.1.5-.1.5-.4.9-.8 1.1.1-.5.2-.9.3-1.3.1-.1.3-.2.4-.3zm-1.8 6.6c.6.3 1.1.5 1.7.8.1.1.3.2.4.3h-.4c-2.7-.4-5.3-1-7.8-1.9-.6-.2-1.2-.3-1.9-.5-.5-.2-1.1-.4-1.6-.6-.1 0-.2-.2-.3-.2.1 0 .3-.2.4-.1.4 0 .8.1 1.2.3.7.3 1.4.5 2.2.5.4.1.8.2 1.2.4.3.2.6.3.9.5.7.5 1.6.7 2.5.6h.3c.4-.6.8-.3 1.2-.1zm1.5 2.9l-.1-.1v-.1l.1.1v.1zm.5.8c-.5-.1-.5-.4-.5-.7l.5.7zm-4.9-.1c.1 0 .2-.1.2-.1.3.2.7.2 1 0h2.3c.3 0 .6.1.9.2.6.3 1.2.6 1.8.8.2.1.3.2.2.3 0 .1-.2.1-.3.2-.9-.2-1.8-.1-2.7.1l-.9.3c-.2.1-.5.1-.7 0-.7-.4-1.3-1-1.7-1.7-.1 0-.1-.1-.1-.1zm6.6 10.2c.2 0 .4.1.6.1.4.2.8.2 1.2-.1.2-.1.4-.3.6-.4.3-.2.7-.2.9.1.1.1.2.2.3.4.2.3.7.4 1.1.2l.2-.2c.2-.3.4-.6.5-.9.3-.4.3-.5.7-.1.4.3.9.4 1.4.3.3 0 .6-.1.9-.2v.1c-.6.4-1.3.9-1.9 1.3-.2.1-.4.2-.7.2-.6 0-1.2-.1-1.8-.1-.5-.1-1-.1-1.5-.1-.9 0-1.7-.1-2.5-.4l-.1-.1.1-.1zm6.6 6.7c.3-1.6.8-3.1 1.4-4.6.4-1 .7-2 1.1-3 .2-.6.2-.6.9-.6.6 0 1.2.1 1.8.1.2 0 .3.1.4.3 0 .3.1.6.1 1-.1.3-.1.8-.2 1.2-.5 1.8-1.4 3.6-2.6 5-.2.2-.4.5-.6.7-.4.4-.8.8-1 1.3-.2.4-.8.6-1.2.3-.1-.1-.1-.2-.1-.3-.1-.4-.1-.9 0-1.4zm4.6-2.6c.1-.2.3-.5.3-.7.5-1.4 1.2-2.8 2-4.1.6-1.3 1-2.7 1.1-4.1.1-.8.1-1.5.2-2.3s.1-1.5.2-2.3h.1v2.3c0 1.5.1 3 .3 4.5.1 1.1.2 2.1.2 3.2 0 .6.2 1.3.5 1.9.2.4.2.9.1 1.4 0 .1-.2.3-.4.3-.4.2-.8.4-1.3.6-.5.2-.9.6-.9 1.1 0 .2-.1.5-.1.7 0 .3-.2.7-.5.9-.1.1-.2.3-.3.4-.1.2-.3.3-.5.4-.6.2-1.2.6-1.5 1.1-.2.2-.4.4-.6.5-.3.1-.7.3-1 .4-.3.1-.6.2-.8.5-.2.4-.5.3-.8 0-.1-.1-.1-.2 0-.3.3-.3.5-.6.8-.9l.6-.6c.9-.9 1.5-2 1.8-3.2.1-.8.3-1.2.5-1.7zm12.6 3.2c.1-.2.3-.5.4-.8.1-.3.2-.4.6-.4.2 0 .4 0 .7.1.7-.2 1.2.2 1.8.5.8.5 1.7 1 2.5 1.5.4.2.7.5 1 .8.5.6 1.2.9 1.9 1.1.4.1.8.2 1.1.2.2 0 .3.1.2.4-.1.3-.3.4-.5.3-.7-.4-1.5-.5-2.3-.5-.4 0-.7 0-1.1-.1-.8-.3-1.7-.4-2.6-.3-.3 0-.5-.1-.7-.2-1-.8-2-1.5-3.1-2.2 0-.2 0-.3.1-.4zm11.3-4.7c-.7-.2-1.4-.4-2.2-.5-.1 0-.2-.1-.2-.1.1-.1.1-.2.2-.2.3-.2.6-.3.9-.4.2-.1.5-.1.5-.4.1-.4.4-.6.7-.7l2.1-.6c.3-.1.7-.1 1-.1.8.1 1.6 0 2.3-.4.3-.1.6-.2.9-.1.3.1.6.1.9 0 .6-.3 1.2-.1 1.7-.2h.3c0 .1-.1.2-.2.3-.5.5-1 1-1.6 1.5-.5.4-1.1.8-1.7 1.2-.9.6-2 1-3.1 1-.8.2-1.7 0-2.5-.3zm-1.1-1.9c0 .3-.2.5-.4.5-.4.1-.8.3-1.2.6-.4.3-.8.6-1.3.7-.2.1-.3.1-.5.1-1.1 0-2.2-.1-3.3-.2-.9-.1-1.7-.4-2.3-.9-.1-.1-.1-.1-.1-.2.1-.1.2-.1.2-.1.2 0 .5 0 .7-.1.5-.2 1.2-.1 1.6.3.3.2.6.3.9.2.4-.1.8-.1 1.2.1.9.4 1.9.2 2.5-.5.3-.3.6-.4 1-.4.5 0 .5 0 .7-.5.1-.4.3-.9.4-1.3.1-.2.3-.4.5-.6.1-.1.2-.2.4-.2 0 .1.1.3.1.3.1.4-.1.8-.3 1-.5.3-.8.8-.8 1.2zm18.3-27.8c1.1.3 2.2.2 3.2-.3.1 0 .2-.1.3-.1 0 .5-.2.9-.5 1.2-.4.6-.9 1-1.6 1.4-2.1 1.2-4 2.8-5.5 4.7-.2.2-.3.4-.5.6-.1.1-.3.2-.4.2-.1-.1-.1-.3-.2-.4v-.2c-.5-1-.2-1.3-1.6-1h-.4c-.8 0-1.6.3-2.2.9l-2.7 2.1c-.5.4-1 .7-1.6.9.1-.1.1-.2.2-.3.8-1 1.7-2 2.7-2.9 1.2-1 2.1-2.2 2.9-3.5.3-.6.8-1 1.4-1.2.5-.2 1-.4 1.5-.5.4-.1.6 0 .7.4.1.4.1.8 0 1.1-.1.3-.1.6-.2.9 0 .1.1.1.1.2.1 0 .1 0 .2-.1.4-.8.8-1.6 1.1-2.4.3-.5.5-1.1.8-1.6.2-.4.7-.6 1.1-.5l1.2.4zm-.3-.4c.3-.3.7-.3 1.1-.5.7-.2 1-.1 1.2.4.1.2.1.4-.2.4h-.9l-1.2-.3zm4.9-3.2zm-1.6 3.1h-.2v-.1c.5-.9 1.1-1.9 1.6-2.8h.1c-.2.7-.4 1.5-.7 2.2 0 .3-.4.6-.8.7zm8.1 6.3c.1-.3.3-.5.4-.8.1-.3.4-.5.7-.7.2-.1.4 0 .4.3s-.1.5-.2.7c-.4.4-.6.9-.6 1.4-.1.5-.3 1-.8 1.4-1.2 1.1-2.8 1.7-4.5 1.7-.6 0-1.2.2-1.8.4-1.3.5-2.5 1.2-3.7 1.9-.9.6-1.8 1.1-2.8 1.4-.2.1-.4.1-.6 0-.6-.2-1.1-.4-1.7-.5-.4-.1-.7-.3-.9-.6l-.6-.9h1.6c1.3-.1 2.6-.3 3.8-.5.8-.1 1.6-.3 2.4-.4 1.3-.4 2.6-.9 3.8-1.6 1.3-.7 2.5-1.4 3.8-2 .6-.2 1-.7 1.3-1.2zm-1.3 1c0-.1 0-.1 0 0 0-.1 0-.1 0 0zm.1-.1c.1-.3.4-.6.7-.7-.1.3-.4.6-.7.7zm-1 .6c-1.9 1-3.7 1.9-5.6 2.9-1 .4-2 .6-3 .7-1.3.2-2.6.4-4 .6-.4.1-.8.1-1.2.1h-1.2c-.3 0-.3-.2-.2-.4.1-.4.5-.7.9-.8.8-.1 1.5-.3 2.3-.4.5-.1 1-.2 1.5-.4.9-.3 1.7-.7 2.6-1 1-.4 2.1-.6 3.2-.4.4.1.9 0 1.3-.2.2-.1.5-.2.7-.3.9-.4 1.8-.6 2.8-.5.1 0 .1.1.2.1-.2-.1-.3-.1-.3 0zm-14.6 13.5l-3.4 1c.3-.3 1.5-1.3 1.8-1.5.1-.1.3-.1.5 0 .3.1.7.3 1.1.5zm-.5-.6c0-.1.1-.1.1-.1.3-.1.6-.1.9-.1.2 0 .4.1.5.3.1.1.1.3.1.4l-.5.1c-.3-.1-.7-.3-1.1-.4.1-.2 0-.2 0-.2zm-.6-.3c-.1 0-.1 0 0 0-.1-.1 0-.1 0 0 0-.1 0-.1 0 0zm-2.2-.2c-.2 0-.4.1-.6.3-.3.4-.8.7-1.2.9-1.1.6-2.2 1.3-3.3 1.9-.7.3-1.4.5-2.1.5-.1 0-.1-.1-.2-.1l.1-.1c.2-.1.3-.2.5-.3l2.4-1.5c1.4-1 2.5-2.4 3.2-4 .1-.5.4-.9.8-1.3.2.4.4.5.8.4l.9-.3c.2-.1.4-.2.6-.2.4-.1.5-.1.5.3v.5c.1.5.2.5.6.6.5.1.6.2.5.7s-.2.9-.8 1c-.9.3-1.8.5-2.7.7zm-1.4-2.5c-.9 2-2.4 3.7-4.3 4.7l-1.8.9c0-.1.1-.3.1-.4l1.2-1.5c1.2-1.3 2.2-2.8 2.8-4.4.3-.9.8-1.8 1.4-2.6.2-.2.3-.5.4-.8.2-.5.6-.9 1-1.2-.1.5-.1 1-.2 1.4 0 .1 0 .3-.1.4 0 .4.2.5.5.4l.6-.2c-.1.2-.2.4-.2.6-.5.9-1 1.7-1.4 2.7zM97 64zm0 0c.2-.3.4-.7.6-1 .2-.3.4-.4.8-.4.2 0 .5 0 .7-.1-.2.5-.6 1-1.1 1.4-.3.1-.7.2-1 .1zm2.8.8c-.1 0-.3.1-.4.1v-.5c.1-.6.2-1.1.2-1.7 0-.2 0-.4-.3-.4.1-.3.3-.5.7-.4.2.1.5 0 .6-.2.4-.4.8-.8 1.3-1.1.7-.5 1.2-1.1 1.5-1.9 0-.1.1-.1.2-.1 0 .1.1.1.1.2 0 .4-.1.8-.2 1.2-.6 1.2-1.2 2.4-1.9 3.6-.2.5-.7.9-1.3 1-.3 0-.4.1-.5.2zm5.1-4c-.5 0-1 .1-1.5.3-.2 0-.3 0-.2-.2.3-.6.6-1.1.9-1.7.1-.2.4-.4.6-.4.8-.1 1.7.1 2.4.4.4.2.7.3 1.1.5-.9.6-2.1 1-3.3 1.1zm-1.7-8.2c.7-.9 1.8-1.4 2.9-1.5.1 0 .3 0 .2.2-.4.8-.7 1.6-1.2 2.5-.2-1.3-.4-1.5-1.6-1.2h-.3zm-7.6 11.7c0 .4 0 .6-.3.7-.2.1-.4.2-.5.4-.5.5-1.1.9-1.8 1.1 0 0-.2-.1-.1-.1.1-.4.2-.7.4-1.1.1-.2.2-.3.3-.4.4-.2.7-.5.9-.8.2-.2.4-.6.8-.5.3.1.3.5.3.7zm-3.5 11c0-.2 0-.5.2-.6.1-.1.4-.1.6-.1.8 0 1.6-.2 2.3-.6l3.6-2.1c.2-.1.4-.3.6-.5.2-.3.5-.4.8-.4.5 0 .9-.1 1.4-.2-1.2 1.2-2.5 2.2-4 3-1.7.8-3.4 1.4-5.2 1.8-.4.1-.4 0-.3-.3zm7.3-1.9c-.1.2-.3.1-.4.1v-.1h.4zm.1-.2c1-.4 2-.7 3.1-.9.3 0 .5-.2.8-.2.2-.1.5-.1.7 0 .3.1.7.1 1-.1 1.1-.5 2.3-1 3.6-1.2 1.7-.5 3.2-1.3 4.5-2.4.4-.4.9-.7 1.3-1.1.1-.1.3-.1.4-.2l-.5.5-.6.6c-.3.3-.2.4.1.5.2.1.3.1.5.2s.4.2.4.4h-.7c-.5-.1-1-.1-1.4.1-.8.3-1.5.7-2.1 1.2-1.1.8-2.4 1.4-3.8 1.7-.9.3-1.9.4-2.9.3-.5 0-.9.1-1.3.3-1.1.5-2.3.7-3.4.5.3-.1.3-.2.3-.2zm15.3-4.7c-.7-.3-.7-.3-.2-.7.5-.4 1-.8 1.5-1.3-.2.8-.5 1.5-.7 2.2 0 .1-.2.2-.3.1 0-.1-.2-.2-.3-.3zm.3.7zm.1-2.4s.1 0 0 0c.1 0 .1 0 0 0zm-6.2 1.3c-.5.6-1.2 1.1-1.7 1.6s-1.2.7-1.9.8c-.5 0-1 .2-1.4.2-.4.1-.9.1-1.3.1-.1 0-.2-.1-.3-.2.1-.1.2-.2.2-.3h.1c.5-.1.9-.5.9-1.1.1-.7 0-.9-.7-1-.3 0-.5-.2-.5-.5v-.1-.2c0-.8-.2-.9-1-.7-.3.1-.5.2-.8.3-.4.2-1 .2-1.4 0 .1-.2.1-.4.2-.6.2-.4.4-.7.6-1.1.2-.4.5-.8.9-1.1.3-.3.6-.7.9-1.2.3-.4.2-.4.7-.2.4.1.7.4 1 .8.2.3.5.5.9.6.2 0 .4.1.5.1.9.1 1.7.6 2.3 1.2.4.4.9.7 1.4.8 1.5.8 1.3.9.4 1.8zM121.3 55c0 .1 0 .1 0 0-.8.3-1.4.8-1.8 1.4-.3.4-.7.7-1.1 1.1-.3.3-.7.5-1.1.4-1-.1-2 .1-2.9.6-.6.3-1.2.4-1.9.3-1-.1-1.9 0-2.8.4-.7.3-1.5.3-2.2-.1-.5-.3-1.1-.4-1.7-.4-.3 0-.5-.1-.8-.1.4-.2.8-.3 1.2-.5l3-.6c2-.4 3.9-1.5 5.3-3 .4-.5 1-.8 1.6-1 .5-.2 1-.2 1.4 0 1 .4 2 .5 3 .2.4-.1.5-.1.7.4 0 .1.1.1.1.2.4.4.3.5 0 .7zm-5.4-2.3c-.3.4-.6.7-.9 1-.7.7-1.4 1.3-2.1 1.9-1.4.9-2.9 1.5-4.6 1.8-1 .2-1.9.4-3 .6.1-.1.2-.3.3-.4 1.3-1.2 2.8-2.3 4.4-3 .5-.2 1-.5 1.5-.8.7-.4 1.3-.9 1.8-1.5.6-.6 1.1-1.2 1.7-1.8.1-.1.3-.2.5-.2.6 0 1.2-.1 1.7-.5.2-.1.4-.2.6-.2v-.1c-.5 1.2-1.2 2.2-1.9 3.2zm-8.5-23.3c-.1 0-.1-.1-.1-.2l.3-.9c0-.1.1-.1.2-.2l.2.3c-.1.3-.2.6-.3.8-.1.2-.2.2-.3.2zm-12.9-4.1c.3.3.3.7 0 1-.3.4-.8.7-1.3.7-.4.1-.9-.4-1-.9v-.6c.1-.3.1-.6.3-.8.2-.4.6-.6 1-.3s.7.6 1 .9zm-7.6-.5l-1.5.9c.2-.7.6-1.3 1-1.8 0-.1.1-.1.2-.1 0 .1.1.1.1.2 0 .2 0 .3-.1.5s.1.2.3.3zm1.4-.9c-.5.2-1 .5-1.5.8v-.8c0-.2-.1-.3-.2-.5-.2-.2-.4 0-.5.2-.3.4-.5.8-.8 1.2-.3.5-.5 1-.9 1.5-.9 1.1-1.4 2.6-1.3 4v.4c0 .2 0 .4-.2.4-.1 0-.2-.2-.3-.3l-.1-.1c-.2-.8-.6-1.6-1.1-2.3-.3-.7-.5-1.5-.6-2.2 0-.2 0-.3.1-.4.6-1.5 1.1-3.1 1.4-4.7.2-.7.5-1.4 1-2l.3-.3c.2-.1.3-.1.3.1 0 .5 0 .9.1 1.4 0 .3 0 .5.1.8.1.3.3.4.5.1.2-.2.3-.5.4-.8l.3-.9c.1-.2.3-.3.5-.3.6.1 1.1-.3 1.3-.9v-.1c.1-.2.1-.6.4-.6.2 0 .3.4.4.6 0 .2.1.4.1.5.1.7.3 1.3.4 2 .1.8.2 1.6.4 2.4 0 .5-.1.7-.5.8zm-7.1.5c-.1.3-.2.7-.4 1.1-.2-.4-.4-.7-.6-1-.3-.6-.1-1.3.4-1.6.1 0 .2 0 .3.1.4.4.5.9.3 1.4zm-.5 2.1c.1 1 .5 2 1 2.8.3.5.5 1 .6 1.6-.2.1-.4-.1-.5-.2-.2-.3-.5-.6-.7-.9-.2-.3-.4-.5-.5-.8-.1-.3-.5-.4-.8-.2-.4.2-1 .2-1.4-.1-.2-.1-.5-.4-.8-.1l-.2-.1c-.5-.8-.8-1.8-1-2.7 0-.8-.2-1.7-.3-2.5-.1-.6-.1-1.2-.1-1.9s.4-1.3.9-1.6c.5-.5 1.3-.4 1.8.1.2.2.3.4.3.7.2.6.2 1.3.3 2 .1.3.1.6.1.8 0 .5.2 1.1.5 1.5.6.3.8 1 .8 1.6zm-2.2-7.4c-.5-.2-1-.1-1.5.2-.5.3-.9.7-1.2 1.2-.4.6-.7 1.2-1 1.8-.1.3-.2.3-.4.1-.2-.2-.3-.4-.5-.6-.1-.2-.2-.3-.2-.5s0-.3.1-.4c.1-.5.1-.6-.5-.6-.3 0-.5-.2-.7-.4-.3-.4-.4-1-.2-1.5s.3-1 .5-1.5c.1-.2.2-.5.3-.7.4-.6.5-.7.9-.1.5.8.6.8 1.3.1.3-.3.7-.6 1-.8.2-.2.5-.1.7.1.1.1.2.2.3.2.3 0 .4.2.4.5v.5c0 .3.1.5.4.6.5.1.6.4.6.8 0 .2.1.4.1.6.2.7.2.7-.4.4zm-12.8 3.1c-.3.5-.5.9-.8 1.4-.2.4-.3.4-.7.1-.4-.3-.7-.6-1-1-.4-.4-.7-.8-1-1.2-.2-.2-.3-.5-.1-.8.4-.9.7-1.9 1.1-2.8.1-.3.4-.5.6-.7.1-.2.4-.2.5 0 .1.1.1.1.1.2.1.4.2.7.2 1.1.1.4 0 .8.1 1.2 0 .2.2.4.3.4.6.1.7.6.7 1 0 .2 0 .4.1.6 0 .2 0 .4-.1.5zm-3.6-.3c.8 1 1.7 1.9 2.7 2.6.5.4.9 1 1.1 1.6.1.2 0 .3-.1.4-.2.2-.5.4-.6.7-.3.6-.9 1.1-1.5 1.5-.5.2-1 .5-1.4.8-.3.2-.6.2-.9 0-.3-.1-.6-.3-.9-.4-.4-.1-.6-.1-.7.3-.1.2-.3.4-.5.4-.3.1-.5.2-.7.3.1-.6.2-1.3.4-1.9.1-.5.1-1 0-1.4-.2-.5 0-1.2.4-1.5.4-.4.7-.8.9-1.3.4-.8.9-1.5 1.4-2.3.1-.2.2-.1.3 0 0 0 .1.1.1.2zm-6.4 5.6c0-.1.1-.2.2-.3.1.1.2.2.2.3.1.1.1.3.1.4.1.2.3.3.5.2.1 0 .1-.1.2-.1.1-.1.2-.2.2-.3.2-.3.3-.3.5 0 .1.3.4.2.6 0 .1-.1.2-.1.4-.2v.5c-.1.5-.2 1-.3 1.4-.2.8-.4 1.7-.6 2.5-.1.3-.2.5-.4.7-.3.3-.7.3-1 0-.1-.1-.2-.2-.2-.3-.2-1-.5-2-.7-3v-.5c.1-.3.2-.8.3-1.3zM56 33l-.1.1c-.2.1-.4.3-.6.4h-.1c0-.1-.1-.1-.1-.2 0-.2.1-.3.1-.4l.3-.6c.2.2.4.4.5.7zm-3.7 15.2c.3.6.6 1.1.8 1.7.2.5 0 .8-.5.9h-.5c-.5.2-.8-.3-1.1-.6-.3-.4-.5-.9-.3-1.4 0-.2.2-.1.3-.1.4.2.4.2.5-.2.1-.2.1-.3.3-.4.1-.3.3-.2.5.1zm-5.1-4.5c-.1.6-.1 1.2-.2 1.8 0 .1-.1.1-.1.2l-.1-.1c-.8-1.4-1.3-3-1.5-4.7l.4.4c.5.6.9 1.2 1.4 1.9.1.1.2.3.1.5zm-7.5-.2c.3.1.6.2.8.4.6.7 1.2 1.4 1.8 2v.2h-.2c-.2 0-.5-.1-.6 0-.2.2 0 .4.1.6.3.5.6 1 .9 1.6.1.1.1.2.2.4-.7-.2-1.2-.5-1.7-.7l-.3-.3c-.4-.9-.8-1.7-1.2-2.6-.1-.4-.3-.7-.3-1.1-.1-.5 0-.6.5-.5zm2.5 5.3c.5.3 1 .8 1.2 1.4.4 1.2.9 2.3 1.4 3.4.4 1 1 2 1.6 2.9.1.1.1.2.1.3-.6-.2-1-.5-1.4-1-.5-.7-1.2-1.2-1.9-1.5-.1 0-.1-.1-.2-.1-.5-.8-1.1-1.6-1.6-2.4-.4-.6-.8-1.1-1.4-1.5-.7-.5-1.3-1.1-2-1.7-.2-.1-.1-.2 0-.4.4-.4.9-.6 1.5-.4 1 .2 1.9.6 2.7 1zm-4.8.7c.5.6 1.1 1.3 1.7 1.8l1.2 1.2c-.4 0-.8-.1-1.2-.1-.3-.1-.6-.3-.9-.5-.2-.1-.3-.3-.5-.5-.3-.3-.7-.3-1.1-.2-.6.3-1 0-1.4-.4L34 49.6c-.2-.2-.4-.3-.6-.4-.1 0-.3 0-.4.1-.1 0 0 .2 0 .3.2.4.4.7.7 1 1.1 1.4 2.4 2.7 3.9 3.5 1.9 1 3.9 2 5.9 3 .3.1.7.2 1 .2.3 0 .5 0 .8.1.2.1.4.3.4.4-.1.2-.3.1-.5 0-.7-.2-1.4-.3-2.1-.2-.6.1-1.3-.1-1.7-.5-.4-.3-.9-.6-1.3-.8-.5-.3-1-.4-1.6-.3-.3.1-.6 0-.8-.2-.1-.1-.2-.1-.2-.2-.7-1.4-1.9-2.2-2.8-3.4-.9-1-1.8-2-2.7-3.1-.1-.1-.1-.2-.1-.3.1 0 .2-.1.3-.1h1.1c.5-.3 1.1-.3 1.7-.2h.7c.5.1 1.3.4 1.7 1zm.1 6.8c.2.3.6.4 1 .2.4-.1.8-.1 1.2.2.5.2.9.5 1.3.8.6.5 1.4.7 2.2.6.6-.1 1.2-.1 1.7.1h.1c.7 0 1.4.4 1.7 1 .2.2.5.4.8.5.7.3 1.4.7 2.1 1.2.3.2.4.6.7.9-.6-.1-1.1-.1-1.6-.2-.3 0-.5-.1-.7-.3-.8-.5-1.6-.8-2.5-.9-.9-.1-1.8-.3-2.6-.7-.4-.2-.8-.3-1.2-.3-1.3-.3-2.6-.7-3.8-1.2-.8-.3-1.6-.7-2.4-1-1.4-.5-2.7-1.4-3.8-2.5-.2-.2-.3-.4-.5-.7.3 0 .6.1.9.1.8 0 1.6.2 2.2.6.9.6 1.9 1 2.9 1.3-.1 0 .1.1.3.3zm4.3 3.5l-.1.1h-.8c-.7-.2-1.4-.4-2-.8h.2c.8.2 1.7.4 2.5.6.1 0 .1.1.2.1zm-6.7-2.4zm1 .6c1.1.5 2.1 1 3.1 1.5.9.5 2 .7 3.1.5h.8c.7.2 1.3.4 2 .5.9.1 1.7.4 2.5.9.4.2.9.4 1.3.4.5.1 1 .2 1.4.3.1 0 .1.1.2.1.4.5.8.9 1.2 1.4.1.1 0 .3-.1.3-.2 0-.3.1-.5.1-.7 0-1.4-.1-1.9-.5-.3-.2-.5-.3-.8-.5-.6-.4-1.2-.6-1.9-.6-.5 0-1-.2-1.4-.4-.7-.3-1.4-.5-2.2-.3-.2 0-.3 0-.5-.1-.5-.5-1.1-.7-1.7-.7-.2 0-.4-.2-.5-.3-.2-.2-.4-.4-.7-.6-.5-.3-.9-.2-1 .4-.1.4-.2.5-.7.5-.5-.1-.9.2-1.1.7-.1.3-.3.3-.5.1-1.1-.9-2.3-1.7-3.4-2.5l-.3-.3c-.1-.1-.1-.2-.1-.3h.4c.1 0 .2.1.4.1s.4 0 .4-.2c.1-.7.6-.8 1.2-.7.3-.1.8 0 1.3.2zm-.7 4.5c.3-.2.6-.3.9-.4.2-.1.5-.1.6-.4.1-.2.2-.1.3 0 .9 1 1.8 2.1 2.7 3.1.2.2.4.5.5.7-.2 0-.3-.1-.5-.1-.4-.2-.8-.3-1.2-.5-.3-.2-.7-.2-1 0-.2.1-.3.1-.5 0-.8-.4-1.5-1-1.9-1.8-.2-.3-.1-.5.1-.6zm5 3.1zm-2.3.1c.5.4 1 .8 1.6 1.1.3.2.3.2 0 .4-.2.2-.5.2-.8 0-.8-.5-1.6-1.2-2.1-2.1.5.1 1 .3 1.3.6zm1.7 3.1c.2 0 .5-.1.6-.3.4-.7.9-1.3 1.6-1.7.3-.2.2-.3 0-.4-.6-.3-1.1-.8-1.5-1.4-.5-.6-1-1.1-1.5-1.7-.1-.1-.2-.3-.3-.4l-.1-.1.1.1c1 .6 1.9 1.5 2.5 2.5.3.6 1 1 1.7.9.4 0 .8.1 1.1.1.7.2.8.2.6-.6-.1-.3-.1-.6-.2-.9 0-.1 0-.2.1-.3.4.5.8.9 1.3 1.3.5.3 1 .6 1.6.8.8.4 1.5 1 2 1.8 0 .1.1.2.1.2.9.2 1.2 1.2 2 1.4.1 0 .1.2 0 .3-.3.4-.7.8-1 1.3 0 .1-.1.2-.2.2-.7.1-1.3.6-2 .3-.6-.2-1.3-.3-1.9-.1-.5.1-1 .1-1.4-.2-.5-.2-1.1-.4-1.6-.6-.6-.3-1.3-.5-1.9-.8-.5-.3-1.1-.5-1.7-.5-.2 0-.3-.1-.4-.3-.1-.2-.2-.5-.3-.8.4-.1.6-.1.7-.1zm10.1 3.5zm-8.1-1.1c.1-.2.3-.2.5-.1l2.4.9c.1 0 .1.1.1.1-.1.1-.1.1-.2.1-1.3.4-2.6.3-3.8-.4.5-.1.8-.2 1-.6zm-.6 1c.2.1.5.2.7.3.6.2 1.2.2 1.8.1.9-.2 1.8-.2 2.7-.3.7-.2 1.4-.1 2.1.1.3.1.7.1 1.1.1v.1c-.3.1-.5.1-.8.2-.7 0-1.4.2-2 .6-.1.1-.3.1-.4.1-.9-.2-1.8-.1-2.6.2-1.2.3-2.5.2-3.6-.3-1-.5-2-.8-3.1-.9-.1 0-.1 0-.1-.1l-.1-.1c0-.1.1-.1.1-.1.3-.1.7-.2 1-.1.6.2 1.2.2 1.8.1.4-.3.9-.2 1.4 0zm-1.9 1c.2.1.3.2.4.3-.1.1-.2.3-.3.4-.2.1-.4.3-.6.4-.1-.2-.2-.3-.2-.4.1-.2.2-.4.3-.5.1-.2.2-.2.4-.2zm.4.8c.3-.3.7-.4 1.1-.3 1 .3 2.1.3 3.1 0 .8-.3 1.7-.3 2.5-.2.2 0 .5 0 .6-.1.5-.3 1-.5 1.6-.6.5-.1 1-.2 1.4-.3h.2v.2c-.1.1-.3.3-.5.4-.4.2-.6.5-.8.8-.1.2-.1.3-.1.5v.5h-.6c-.8-.4-1.7-.3-2.5.1-.7.3-1.4.3-2.1 0-1.3-.5-2.7-.5-3.9-.1h-.4c-.6-.4-1.4-.5-2.1-.5 0 0-.1 0-.1-.1s0-.2.1-.2c.2-.1.4-.1.6-.2.3 0 .5 0 .8.1.4.5.8.3 1.1 0zm15.1 5.5c0 .1-.1.1-.1.2-.1.1-.3.3-.5.4-.1.1-.2.1-.3 0-.1-.1-.3-.2-.4-.4.1-.1.3-.2.4-.2.2 0 .4-.1.7-.1l.2.1zm-13-2.4c.3.1.6.1.9 0 .4-.1.9-.1 1.3.1l1.5.6c.1 0 .1.1.1.1s-.1 0-.1.1h-.2c-.8-.2-1.6-.2-2.5-.2-.2 0-.5-.1-.7-.2-.2-.1-.5-.2-.7-.3-.3 0-.5-.1-.8-.1.5-.1.9-.3 1.2-.1zm5 1c.3 0 .6.1.8.2.2.1.5.2.7.4.5.4 1.1.6 1.7.7.2 0 .3.1.4.2h-.8c-.3 0-.6-.1-.7.3-.9.3-1.8.4-2.7.3-.3-.1-.6-.2-1-.3-.9-.4-1.9-.7-2.9-.8-.1 0-.1-.1-.2-.2h.9c.8.1 1.6-.1 2.2-.5.5-.1 1.1-.3 1.6-.3zm3 1.8h1c.5 0 .9 0 1.3-.3h.3v.3c-.1.1-.1.2-.2.3-.8.2-1.5.2-2.3-.1-.1 0-.1-.1-.1-.2-.1 0 0 0 0 0zm3.1 1c-.3.1-.4 0-.4-.3s.1-.6.3-.8c.3-.2.5.1.7.3.1.1.2.2.3.2.1.1.4.1.5 0 .5-.5 1.1-.9 1.5-1.4.1-.2.4-.3.6-.2.5.1 1.1.2 1.7.3.2 0 .5.1.7 0 .5-.1 1.1-.1 1.6 0H61.6c.1 0 .2.1.2.1 0 .1 0 .2-.1.3l-2.4 1.2-.9.3c-.9.2-3.1.6-3.3.7-.4 0-.8-.2-1.1-.5-.3-.3-.7-.4-1.1-.2zm7.2-.3c0 .1.1.1.1.2-.1.3-.2.7-.4 1-.4.7-.8 1.3-1.2 1.9 0 .1-.2.1-.2.2.3-.8.6-1.6.7-2.4.1-.7.6-.7 1-.9zm-2.9 7.1s.1.1 0 0c.1.2.1.3.2.4v.2l-.1.1s-.1 0-.1-.1c0-.2-.1-.3-.1-.5-.1 0 0-.1.1-.1zm-.1 2.2c0 .2.1.5.1.8-.1.9.1 1.4.9 1.6.2.1.3.2.5.3.3.2.5.2.7-.1.1-.1.2-.2.4 0 .3.3.6.7.9 1 .2.2.3.6.1.8-.4.5-.7 1.1-1.1 1.6-.5.6-1 1.1-1.5 1.6-.1.1-.3.2-.4.3-.3.2-.5.2-.6-.2-.1-.4-.2-.7-.3-1.1-.1-.6-.3-1.2-.6-1.7-.1-.2-.2-.5-.2-.7 0-.6.1-1.2.3-1.8.2-.8.5-1.5.8-2.3 0-.1.1-.1.1-.2-.3 0-.2 0-.1.1zm.3 1c0-.1.1-.1.1-.2h.1c.2.4.5.2.7 0 .1-.1.3-.2.5-.3.1-.1.2 0 .3.2 0 .4.1.8.2 1.1v.3c0 .2-.1.3-.3.3h-.2l-.6-.3c-.6-.1-.9-.6-.8-1.1zm.8-.4c-.2.2-.4.1-.5-.1-.2-.4-.4-.7-.5-1.1-.1-.3.1-.4.4-.3.3.1.6.3.9.5.5.3.6.3 1-.1l.3-.3c.3-.2.6-.5 1.1-.2.3.1.6.3 1 .3-.5.4-1.1.7-1.7.7-.8.1-1.5.3-2 .6zm5.1-1.7c.3.1.6.3.8.6-.3-.2-.6-.4-.8-.6zm1.8.1c.1-.2.3-.3.5-.3.2-.1.3-.1.5-.2.7-.2 1.3-.6 1.7-1.1.3-.4.6-.6 1-.7.2-.1.4-.2.5-.4.1 0 .1-.2.1-.2.6-.4.6-1 .8-1.6.1-.6.5-1.1 1-1.3.3-.1.7-.3 1-.4.1-.1.3-.2.4.1s.3.4.1.6c-.6.8-1.1 1.6-1.7 2.4-1 1.1-2 2.1-3.1 3-.8.3-1.6.7-2.4.9-.5.2-1 .1-1.4-.2.4-.1.8-.3 1-.6zm8.2-.7c0-.1.1-.1.2-.2.2-.3.5-.6.7-.9l1 .6h.1c.9.1 1 .8 1 1.6v1.8h.1V93c0 .1 0 .1-.1.2-.1 0-.1 0-.2-.1s-.2-.3-.4-.4c-.5-.7-1.1-1.3-1.6-2-.4-.6-.7-1.3-.9-2 0-.3.1-.4.1-.5zm2.1-.8c.5-.2 1.1-.5 1.6-.7.1 0 .2-.1.4 0 .3.1.5.2.8.3-.8.9-1.4 1-2.8.4zm1.1.7c.1-.1.5-.1.8-.2.2-.1.5-.2.7-.4.1 0 .1-.1.2-.1 0 0 .1 0 .1.1.3.4.7.7 1 1.1.2.2.1.4 0 .6-.3.8-.6 1.5-1.1 2.1-.4.5-.7.9-1.1 1.4-.1 0-.1.1-.2.1 0-.1-.1-.2-.1-.3-.1-1.1-.1-2.2-.1-3.2v-.5c-.1-.2-.3-.5-.2-.7zm.4 5.2c.5-.6 1-1.1 1.4-1.7.2-.3.3-.3.5 0 .3.7.5 1.4.8 2.1.1.4.2.9.3 1.4-.1 0-.2.1-.3.1-.9-.3-1.8-.8-2.6-1.4-.2-.2-.3-.3-.1-.5zm2.5-1.6c-.5-.3-.6-.9-.3-1.4l.1-.1c.1-.2.2-.5.3-.8l.3-.3.3.3c.3.5.6 1.1.8 1.7.1.3.2.7.2 1 .1.4.1.9.1 1.3h.1v.2c-.1 0-.2 0-.3-.1-.5-.6-1-1.3-1.6-1.8zm-.8-4.4c-.1-.2 0-.3.1-.4.3-.3.7-.2 1.1-.3.1 0 .3 0 .4-.1.3-.2.3-.3.5 0 .7.6 1.4 1.1 2.2 1.6.3.2.6.4.8.7-.2.3-.6.3-1 .4-.3.1-.6.1-.9.2-1.3 0-2.5-.8-3.2-2.1zm10 3c-.7.1-1.5-.1-2.2-.4-.6-.3-1.1-.5-1.7-.8-.2-.1-.4-.2-.5-.4.2-.1.5-.1.7-.1.4 0 .8.1 1.3.2.6.2 1.3.3 1.9.3.6 0 1.2.1 1.8.4.5.3.7.2 1-.4l.2-.2c.1.1.2.2.1.3 0 .4-.1.8-.2 1.2 0 .1-.2.2-.3.1-.3 0-.6-.1-.8-.1-.4-.1-.9-.2-1.3-.1zm8.2-3.1c0-.3 0-.4.3-.2.3.1.6.3.8.5.4.4.7.9 1.1 1.4 0 .1.1.1 0 .2 0 0-.1.1-.2.1-1-.2-1.9-.5-2.8-.7.7-.2.8-.4.8-1.3zm1.7.6c-.4-.6-1-1-1.6-1.1-.2 0-.4-.1-.4-.4 0-.1-.1-.2-.2-.3-.1-.1-.2-.2-.4-.3.2-.1.4-.1.6-.2h.3c.3-.1.6.1.8.3.7.7 1.2 1.5 1.7 2.4.1.3.5.6.2.8-.2.1-.4-.3-.5-.6s-.3-.4-.5-.6zm-3-2.2s-.2-.1-.2-.2c0-.2 0-.5.1-.7 0-.5 0-.6-.5-.7-.8-.1-1.5-.6-1.7-1.4-.1-.3-.3-.6-.4-.9-.1-.3-.1-.3.3-.3h.7c1.5 0 3-.5 4.3-1.4.1 0 .1-.1.2-.1.1-.1.2 0 .3.1v.1c0 .2-.1.3-.2.5l-.6.6c-.2.2-.3.4-.4.7-.1.2 0 .4.2.4 1.1.2 2.2-.1 3.1-.7l.3-.3c.2-.2.4-.2.6 0l.9.9c.3.3.3.8.1 1.1-.1.1-.2.2-.4.2-.7.3-1.5.6-2.2.9-.5.2-1.2.3-1.5.9 0 .1-.2.1-.3.1-1.1-.3-1.9-.2-2.7.2zm7-3.7l-.9-.9c-.2-.2-.6-.2-.8 0-.1.1-.2.1-.2.2-.8.7-1.8 1-2.8.9-.2 0-.2-.2-.1-.3.2-.3.4-.6.7-.8.2-.2.5-.4.5-.8 0-.2.2-.2.3-.2 1.6-.2 3.2-.3 4.8-.3.6 0 1.2 0 1.9.1.1 0 .3.1.3.2 0 .7.4.8.9.9.1 0 .2.1.3.1-1.4.5-2.8.9-4.2 1.2-.4-.1-.6-.1-.7-.3zm2.2-2.5c-.2 0-.4 0-.6-.1-1.4-.1-2.8 0-4.2.2h-.2c-.2 0-.5-.1-.7-.1.2-.2.4-.4.6-.5.3-.1.6-.1.8-.1.6 0 1.1-.1 1.7-.2 1.2-.3 2.4-.3 3.6-.2h2.7c-1.1.8-2.4 1.1-3.7 1zm.4-1.1c-.9-.1-1.8-.1-2.7.1-.6.1-1.2.3-1.8.4h-.3c-.1 0-.2-.1-.3-.2 0 0 .1-.2.1-.3.3-.4.7-.8 1-1.1.1-.1.1-.2.1-.3-.1 0-.2-.1-.3-.1-.8.2-1.6-.1-2.4.3-.2.1-.4.1-.6 0-.4-.1-.9-.1-1.3.1-.6.3-1.3.4-1.9.4-.6 0-1.2 0-1.8.3-.5.2-1.1.3-1.6.5h-.2v-.2c.6-.5.8-1.2.6-1.9-.1-.3.1-.4.3-.4 1.1-.1 2.1-.4 3.1-.8 1.5-.5 3.1-.8 4.7-1h1.4c.2 0 .4-.1.7 0 .2 0 .7-.2.7.3h.1c1.4.5 2.7 1.1 3.9 2 .5.3 1.1.5 1.7.6.8 0 1.5.2 2.2.7.1.1.2.2 0 .3-.7.2-1.4.4-2.1.5-1.1-.1-2.2-.1-3.3-.2zm3.2-3.2h-.1c-.2 0-.3-.1-.5-.1-.7-.1-1.3-.2-2-.2.7-.2 1.5-.3 2.3-.2.1 0 .3.2.4.3-.1.1-.1.2-.1.2zm.1.4c.5.2.9.5 1.2.9 0 .1.1.2.1.3h-.2c-.4 0-.9-.1-1.3-.1l-.9-.3c-.6-.3-1.2-.7-1.8-1.1.9-.2 1.9-.1 2.9.3zm-.7-1.1h-1.1c-.4 0-.8.1-1.1.2-.3.1-.6.2-.8.2-.4-.1-.7-.3-1-.5.9-.1 1.7-.3 2.5-.4.3-.1.5-.2.8-.3.2-.1.3-.1.5-.2.4-.1.5 0 .6.4.1.5 0 .6-.4.6zm-4.6-.4v-.2h1.8c-.5.2-1.1.3-1.8.2zm6.6 2.1c-.8-.6-1.4-1.5-1.4-2.5 0-.2.1-.3.3-.3.8-.2 1.5-.5 2.3-.6 1.3-.3 2.6-.8 3.9-1.4l.9-.3v.9c0 .5 0 .5-.5.5-.2 0-.4.1-.6.2-.3.2-.6.3-.9.2-.6-.2-.8-.1-1.1.6-.2.5-.4 1-.7 1.5-.4.6-.9 1-1.5 1.4-.3 0-.6 0-.7-.2zm4.3-4.8c-1 .5-2.1.8-3.2 1.1-1.3.3-2.6.7-4 1l-3 .3c-.5 0-1.1.1-1.6.1l-3.8.2c.5-.3 1-.4 1.6-.3 1.1 0 2.2-.2 3.1-.7.5-.3 1.1-.4 1.6-.2h.4c2.2-.2 4.2-.9 6-2.1.4-.3.9-.6 1.4-.9.7-.5 1.7-.6 2.5-.3.4.2.8 0 1-.3.3-.4.9-.6 1.3-.3.1 0 .1.1.1.1.3.2.3.4 0 .6-.3.3-.6.5-1 .6-.7.4-1.6.7-2.4 1.1zm3.9-40.9l.1-.2c.1 0 .2.1.2.1.1.1.2.2.3.4.1.2 0 .3-.1.4s-.3.1-.4-.1c0-.3-.1-.4-.1-.6zm-13.7-17c0-.3.1-.3.3-.2l.6.3c.3.1.5.1.8.1.7-.2 1.5 0 2 .6.2.2.5.4.8.5.4.2.8.3 1.2.4.7.2 1.3.7 1.6 1.3.5.8.8 1.8.8 2.8 0 1.7-.3 3.5-.9 5.1-.2.5-.3.9-.3 1.4 0 .3.2.4.5.3.2-.1.3-.2.4-.4.2-.3.3-.5.5-.8.2-.4.3-.7.4-1.1.6-1.6 1.9-2.9 3.5-3.5.5-.2 1-.4 1.5-.5 1.1-.3 1.6 0 2 .8.3.5.6.9 1 1.4.5.6.8 1.3.9 2 0 .5.3 1 .6 1.4.1.2.2.4.4.5.6.8.9 1.7.9 2.7 0 .3.1.7.1 1 .1.4.1.4-.4.4-.7 0-1.3.1-2 .1s-1.4.2-2 .5c-.3.1-.5.2-.7-.2v-.1c-1.1-1.2-1-1.1-2.2-.7-1.1.3-2.2.7-3.2 1.2-.4.2-.9.4-1.4.5-.3 0-.6-.1-.9-.3-.1-.1-.2-.2-.2-.3 0-.2-.2-.4-.4-.4h-.2c-.3.1-.6 0-.9-.2-.1-.1-.2-.2-.4-.3-.3-.2-.6-.4-1-.6.1-.4.2-.8.2-1.1 0-.1.1-.2.1-.2.4-.2.2-.3 0-.5-.3-.2-.6-.3-.9-.5-.1-.2-.4-.3-.6-.3h-.8c-.4.1-.6.1-.6-.4 0 0 0-.1-.1-.1-.5-.1-.8-.5-.8-1 0 0-.1-.1-.2-.1-.4.1-.4-.1-.3-.5.4-1.7.4-3.5-.1-5.2-.3-1-.3-2-.2-3 .3-.8.5-1.8.6-2.8zM75.6 4.9c1.9-1.7 4.2-2.8 6.7-3.2.5-.1 1-.1 1.5 0 .9.1 1.8 0 2.6-.4.5-.2 1-.5 1.6-.6.8-.3 1.8-.2 2.4.5.3.3.8.5 1.2.3.7-.2 1.5.2 1.7.9v.1c.1.5.4 1.1.7 1.7.3.8.9 1.5 1.6 1.9.6.3 1.1.8 1.5 1.3.4.5 1 .8 1.7.8.3 0 .7.1 1 .2.5.1 1 .4 1.3.8.6 1 1.4 1.8 2.3 2.5.4.3.6.8.5 1.3 0 .7-.1 1.4-.2 2.1-.1.6-.2 1.2-.2 1.8-.1.8 0 1.6.2 2.3.5 1.6.6 3.2.3 4.8 0 .2-.1.4-.1.6-.1.4-.4.8-.8 1-.5.3-.9.5-1.4.9-.1.1-.2.1-.3.2.1-.3.1-.6.2-.9.2-.6 0-1.3-.5-1.8-.2-.2-.3-.5-.3-.8.1-.5-.3-.7-.7-.5-.7.3-1.1.7-1.4 1.3-.1.2-.1.3-.2.5-.2.4-.2.4-.6.1-.1-.1-.3-.2-.4-.1-.1.1-.2.1-.4.2.1-.2.2-.4.3-.7.3-.6.2-.8-.4-1-.6-.2-1.3-.1-1.8.4-.2.2-.4.4-.7.5-.5.3-1.1.3-1.6-.1-.1 0-.1-.1-.2-.1-.6-.5-1.4-.6-2.1-.3-.5.2-1.1.3-1.6.5.1-1 0-2-.2-3-.2-.7-.3-1.5-.4-2.2-.1-.4-.2-.7-.3-1-.1-.2-.3-.4-.6-.3-.2.1-.3.2-.4.4-.1.1-.1.2-.2.4-.1.5-.5.8-1 .8s-.7.3-.8.7-.2.7-.3 1.1c0 .1-.1.1-.2.1 0-.1-.1-.1-.1-.2v-1.5c0-.3 0-.7-.3-.8s-.6.2-.8.4c-.5.5-.9 1.2-1.1 1.9-.2.8-.4 1.5-.6 2.2 0 .1-.1.1-.1.2-.1 0-.1-.1-.2-.1-.5-.7-.7-.7-1.2 0-.1.1-.2.2-.3.4-.2-1.3-.6-4.8-.7-5.4-.1-.4-.2-.9-.8-1-.2 0-.3-.2-.3-.4v-.2c.2-.8-.5-1-.9-1.3-.4-.2-.9-.1-1.2.2-.3.3-.7.6-1 .9-.2.2-.3.1-.4-.1-.1-.2-.3-.4-.5-.6-.1-.2-.4-.3-.7-.2-.1 0-.1.1-.2.2-.2.3-.4.7-.5 1-.2.6-.4 1.1-.5 1.7 0 0-.1.1-.2.1l-.1-.1c-.1-.3-.1-.7-.2-1-.2-.6-.5-.7-.9-.3-.2.1-.3.3-.5.4-.3.2-.5.2-.6-.1-.3-.5-.5-1-.9-1.5-.4-.6-.4-1.4 0-2 .4-.6.6-1.3 1-1.8 1.2-1.8 2.5-3.6 3.9-5.2.6-.4 1.2-1.2 1.9-1.8zM56 7.4c0-.1.1-.2.1-.3v.3c-.2 1-.3 2-.5 3 0 .1-.1.1-.1.2-.1-.1-.2-.1-.2-.2-.1-.2-.1-.4-.2-.7l.3-.9c.2-.5.4-1 .6-1.4zm-12.4 9c.5-1.3 1-2.6 1.7-3.8.6-.9 1.1-1.9 1.7-2.8.5-.7 1-1.3 1.5-1.8.3-.4.8-.6 1.3-.6.3 0 .7-.1.9-.3.5-.2 1-.5 1.4-.8 1-.5 2.2-.6 3.2-.4.2 0 .3.1.3.3.1.6 0 1.2-.2 1.8-.2.4-.3.8-.5 1.2-.2.6-.1 1.3.3 1.8 0 .1.2.2.2.2.1 0 .2-.1.3-.2l.3-1.2c.1-.9.2-1.7.3-2.6 0-.2 0-.4-.1-.6-.1-.3 0-.4.2-.7.3-.4.6-.9.9-1.4.5-.9 1.2-1.8 2-2.5C60.7.9 62.4.4 64.2.8c.8.1 1.5.3 2.3.5 1 .2 1.9.6 2.7 1.2.6.4 1.2.9 1.9 1.2 1 .7 1.8 1.5 2.4 2.5.1.2.1.4 0 .6-.2.2-.3.4-.5.6-1.4 1.6-2.7 3.4-3.8 5.2-.4.6-.7 1.3-1 1.9-.1.2-.2.2-.3.1-.6-.6-.7-.5-1.1.2-.4.8-.7 1.5-1.1 2.3-.2.5-.2 1-.1 1.4.2.7.4 1.3.5 2 .1.2.2.5 0 .7 0 0-.1.1-.2.1l-.1-.1c0-.2 0-.4-.1-.5-.1-.3-.2-.6-.6-.7-.3-.1-.4-.3-.4-.6 0-.4 0-.9-.1-1.3 0-.1 0-.3-.1-.4-.2-.9-.8-1.1-1.5-.5-.2.2-.4.5-.6.8-.3.9-.6 1.9-1 2.9-.1.2-.2.3-.3.4-.1.1-.2.2-.3.1 0 0-.1 0-.1-.1-.2-.1-.4-.3-.6-.4-.4-.2-.5-.2-.7.2-.2.3-.3.3-.5 0-.4-.6-.8-1.2-1.1-1.8-.3-.5-.5-.5-.9-.2-.6.5-1.1 1.2-1.2 1.9 0 .2-.1.4-.2.5-.3.3-.5.8-.4 1.2.1.7-.3 1.4-.2 2.1 0 .1 0 .1-.1.1-.6.7-.3 1.5 0 2.2.1.2.2.5.1.8-.2.7-.2 1.4.1 2.1.1.4.2.8.3 1.1.1.2.2.5-.2.5-.1 0-.1.2-.2.3-.1.2-.2.5-.2.7-.2.6-.2.6-.8.5-.3 0-.3.1-.3.3.1.3 0 .6 0 .9-.1-.1-.2-.3-.2-.4-.3-.7-.6-1.3-1-1.9-.1-.2-.2-.4-.4-.6-.1-.1-.3-.3-.4-.2-.2.1-.1.3-.1.5v.4c0 .1-.1.1-.1.2 0 0-.1 0-.2-.1s-.1-.2-.2-.3c-.1-.1-.2-.1-.3-.1-.4.3-.5 0-.7-.2-.3-.3-.3-.3-.7-.2H49c-.3-.1-.6-.5-.8-.3-.3.2 0 .6.1.9.3.9.4 1.8.3 2.8 0 .1 0 .2-.1.4-.2.2-.3.3-.5.4l-.2-.2c-.1-.2-.2-.5-.5-.4-.3.1-.2.5-.1.7.1.5.2 1 .4 1.5.3.9.7 1.8 1.1 2.8.1.2.1.3 0 .5l-.2-.2c-.1-.1-.3-.4-.5-.2-.1.1 0 .4 0 .6.5 1.1 2.6 5.4 3.1 6.6.1.1.2.3.1.4-.1.2-.3.4-.4.5l-.3-.1c-.1-.5-.6-.7-.8-1.1s-.3-.8-.7-1.1c.1.1 0 0 0-.1-.1-.3-.2-.6-.4-.9-.1-.3 0-.7-.1-1 0-.2-.1-.4-.4-.3-.3.1-.4 0-.6-.2-.7-.9-1.4-1.9-2.1-2.8-.1-.1-.1-.2-.2-.2-.1-.1-.3-.2-.4-.3v.5c.1.4.2.9.2 1.3.1.8.3 1.5.7 2.2.4.8.7 1.6 1 2.3-.8-.9-1.6-1.9-2.5-2.8-.6-.7-1.2-1.5-1.6-2.3-.1-.2-.2-.4-.3-.5-.1-.1-.4-.3-.5-.3-.3 0-.7-.1-.9-.4-.3-.3-.7-.6-1-.9-.1-.1-.2-.1-.3-.1-.1 0-.1.2-.1.3 0 .2.1.4.1.6 0 .3-.1.5-.4.4-.4-.1-.5.1-.7.3-.4.7-.4 1.5-.1 2.2l.3.6c.2 1.1.6 2.2 1.2 3.2 0 .1.1.1.1.2.1.2.2.4.2.6h-1.9c-.2 0-.4 0-.5-.2-.1-.2-.3-.3-.4-.4-.2-.2-.3-.4-.3-.7.1-.6-.2-1.1-.7-1.5-.9-.8-1.9-1.4-3.1-1.7-.8-.2-1.4-.7-1.8-1.4-.2-.4-.5-.8-.7-1.2-.4-.7-.9-1.4-1.6-1.9-.7-.6-1.3-1.4-1.7-2.3-.1-.3-.2-.7-.2-1-.1-.6-.2-1.2-.3-1.7-.1-.4-.1-.8 0-1.1l.6-1.8c.5-1.3 1.6-2.4 2.9-2.9.7-.3 1.3-.6 2-.8.8-.2 1.7 0 2.3.6.3.3.6.6.8.9.3.3.5.6.8.8.1.1.3.2.5.3.6.2.7.1.8-.5v-.8c0-.5.3-1 .8-1.1.3-.1.7-.2 1.1-.2 1.4.1 2.7-.4 3.8-1.3.4-.3.8-.5 1.3-.6.5-.1.9-.4 1.1-.9.1-.2.1-.3-.2-.4h-.3c-.2 0-.3-.1-.2-.3.2-.3.4-.6.7-.9.1-.1.1-.2.2-.2l.5-.5c.1.2.3.4.4.6.3.5.9.7 1.4.7.4-.1.8-.2 1.2-.4.1 0 .1-.1.2-.2-.1 0-.2-.1-.3-.1h-.8c-.6-.1-.8-.2-.7-.8 0-.2 0-.3.1-.5.2-.7.1-1.5-.3-2.2-.1-.1-.1-.2-.1-.4-.1-.2.1-.2.2-.2 1.6.1 3.2.2 4.9.3.6.1 1.1.3 1.5.8.3.4.6.7 1 1.1l.3.3c.1.1.2.1.3.2 0-.1 0-.2-.1-.3-.3-.4-.6-.7-.9-1.1-.6-.7-1.5-1.2-2.4-1.2-1.6 0-3.1-.1-4.7-.3l-1.5-.3c-.2 0-.3-.2-.4-.3-.1-.5-.5-.6-.9-.7s-.8-.2-1.2-.2c-.1 0-.2 0-.1-.2zm5.1 24.8c0-.1 0-.1 0 0v-.1.1zM38.4 26.8c.2-.4.5-.7.8-.9.4-.2.9-.5 1.3-.7.5-.3 1-.4 1.6-.3.6.1 1.2.1 1.7-.1.6-.2 1.1-.3 1.7-.5-.2.3-.6.5-1 .6-.5.1-1 .3-1.5.7-.9.8-2.1 1.1-3.3 1.1-.4 0-.8.1-1.3.1zm7.1-2.5zm3.1-1.7c.1 0 .2.1.3.1-.1.1-.2.1-.3.1-.5.1-1.1-.2-1.3-.6-.2-.4-.4-.8-.4-1.2 0-.5-.2-.9-.4-1.3-.1-.1 0-.3.1-.4h.1c.7-.4 1.2-.2 1.3.6v.6c0 .2-.1.6-.1.9-.2.8-.1.9.7 1.2zm-5.3-5.8c.7.1 1.2.2 1.8.3.2 0 .4.2.5.4.1.5.4.6.9.6h.5c.2.1.3.2.5.4 0 0 0 .2-.1.2-.3.1-.6.2-1 .3-.1 0-.3 0-.4-.1-.7-.5-1.6-.7-2.4-.8-.2 0-.3 0-.5-.1-.3-.1-.5-.4-.4-.8.1-.2.4-.4.6-.4zm-2.6 2.9c.2-.4.2-.9.2-1.3-.1-.8.4-1.5 1.1-1.7h.5c.1 0 .2.1.1.2v.1c-.5.9-.2 1.4.8 1.5.7.1 1.4.3 2.1.6 1 .5 1.3 1.7.8 2.7-.1.2-.2.3-.3.4-.3.3-.6.7-.9 1-.1.2-.3.5-.2.6.2.3.1.4-.2.5-.5.1-1 .3-1.5.4-.4.1-.8.1-1.1 0-.7-.1-1.5 0-2.1.5-.3.2-.7.4-1 .6l-.1-.1c.1-.1.1-.3.2-.4.6-1 1-2.1 1.1-3.2.1-.9.2-1.6.5-2.4zm-8.2 6.5c.2-.5.5-.9.9-1.1.3-.2.5-.4.5-.7.1-.8.7-1.4 1.4-1.6.6-.3 1.3-.5 2-.6.6-.1 1.1-.4 1.4-1 .3-.6.8-1.1 1.4-1.4h.2v.2c-.1.7-.3 1.4-.4 2-.1.7-.2 1.3-.5 2-.2.5-.4.9-.6 1.3-.4.7-.7 1.5-1.1 2.2-.1.4-.2.7-.2 1.1 0 .3.1.7-.2.8-.3.1-.6-.2-.8-.4-.4-.4-.8-.8-1.2-1.3-.5-.6-1.1-.9-1.9-1h-.8c-.2 0-.5.1-.7.1.3-.2.5-.4.6-.6zM21.9 40.9c-1-.9-1.5-2.2-1.5-3.6 0-.4-.1-.8 0-1.2.1-2.1.3-4.1.5-6.2.1-.9.6-1.7 1.4-2.1.3-.2.7-.3 1.1-.5.5-.2 1-.6 1.3-1.1.3-.5.7-.8 1.3-.9 1.1-.3 2.3-.2 3.3.3.5.1.9.3 1.4.4.5.1 1 .4 1.4.7l-1.2.6c-1.7.7-3 2-3.5 3.8l-.3.9c-.2.6-.2 1.3 0 1.9-.1.1-.1.3-.1.4-1.1 0-2 .5-2.6 1.4-.8 1.1-1.4 2.3-2.1 3.5-.1.3-.2.6-.3 1-.1.2-.1.5-.1.7zm.5 2.1c-.1-.1-.2-.2-.2-.3v-.9c-.1-1.2.2-2.5.9-3.5.4-.7.8-1.4 1.3-2 .4-.7 1.1-1.2 1.8-1.5.1 0 .3-.1.4-.1 0 .1-.1.3-.1.4-.1.3-.3.5-.4.8-.2.4-.3.9-.4 1.3-.1.6-.3 1.2-.6 1.7l-1.2 1.8c-.4.5-.8 1.2-1 1.8 0 .1-.1.2-.1.3 0 .2-.2.3-.4.2zm1.3 3.4c.5.3.9.6 1.4 1 .1.1.1.2.2.3-.1.1-.2.1-.3.2h-.4c-1.1-.2-2.1-.8-2.8-1.7-.3-.6-.2-1.3.3-1.8h.2c.1.1.1.3.2.4.2.7.7 1.3 1.2 1.6zM21 61.5c-.4-.6-.9-1.1-1.3-1.7-.6-.8-.9-1.7-.9-2.7-.1-.9-.3-1.8-.7-2.7-.5-1.3-.7-2.7-.5-4.1.2-1.5.7-2.9 1.4-4.2.2-.3.3-.6.5-.9.3-.5.8-.8 1.3-.9.3-.1.6-.2.9-.5.1-.1.3-.2.4-.3h.3c0 .1 0 .1-.1.2-.1.2-.3.3-.5.5-.6.7-.5 1.8.1 2.4.6.7 1.5 1.1 2.4 1.3.4 0 .8 0 1.2-.1.3 0 .3-.3.1-.5-.1-.1-.3-.2-.4-.3-.4-.3-.8-.6-1.3-.9-.7-.4-1.1-1.1-1.3-1.9-.1-.2 0-.5.1-.7.2-.3.4-.7.5-1.1.2-.5.4-1.1.8-1.5.3-.5.7-.9 1-1.4.6-.8 1-1.7 1.1-2.7.1-.5.2-.9.4-1.3s.3-.8.5-1.3c.1.2.1.3.1.5 0 1.3.5 2.5 1.5 3.4l.2.2c1 .9 1.9 1.9 2.5 3.1.4.9 1.3 1.6 2.2 1.8 1.1.3 2.1.9 3 1.7.2.1.3.3.4.5 0 .2.1.4.1.7-.2-.1-.3-.2-.5-.3-.3-.2-.7-.4-1-.6-.1 0-.3-.1-.4-.1v.4c.2.5.5 1 .9 1.4.3.4.7.7 1.1 1 .1.1.1.2-.1.3-.6.2-1.3.3-2 .3h-1.4c-.5.3-1.1.2-1.6.2-.2 0-.4.1-.5.1-.1 0-.2.1-.1.3.7.8 3.9 4.1 4.7 5 .3.4.7.8 1 1.2v.3h-.2c-.4-.2-.9-.3-1.3-.5-.5-.2-1-.5-1.4-.8-.6-.4-1.2-.5-1.9-.5-.4 0-.8-.1-1.2-.3-.1-.1-.3 0-.5-.1 0 .1.1.3.1.4.7 1.1 1.7 2 2.8 2.6l1.2.6.1.1c-.1 0-.1.1-.2.1-.4 0-.8.1-1.2.3-.1 0-.2.1-.3 0-.5-.1-1-.4-1.3-.9-.4-.6-.9-1.2-1.4-1.8-.2-.2-.5-.4-.8-.6-.4-.2-.8-.3-1.2-.4-.4-.1-.8 0-1.1.2-.3.3-.7.5-1 .7-.3.2-.6.4-.8.8-.4.7-.9 1.2-1.5 1.6-.6.4-1.1 1.1-1.3 1.8-.3.7-.5 1.4-.8 2l-.3.6c-.1.1-.2.1-.2 0-.2.3-.3.1-.4 0zm5.4-6.2c-.4.8-.9 1.5-1.5 2.1-.7.6-1.3 1.4-1.7 2.2-.2.3-.4.7-.6 1 .2-1.2.8-2.4 1.8-3.1.6-.4 1-.9 1.4-1.5 0-.3.2-.7.6-.7zM20.7 65c.1-1.1.6-2.2 1.3-3.1.6-.8 1.1-1.7 1.6-2.5.3-.5.7-1 1.1-1.5.6-.6 1.2-1.2 1.6-1.9.3-.5.6-.9 1-1.3s.5-.4 1.1-.3c1 .2 1.8.8 2.3 1.7.2.3.5.6.6.9.2.5.7.8 1.2.9.2.1.6 0 .5.4h-.8c-.3 0-.5.2-.4.5.1.2.3.4.4.6l.3.3.4.4c-.2 0-.3.1-.5.1-.3 0-.5.1-.4.5v.2c-.1.6-.1.8.4 1 .6.3 1.3.5 1.9.8l.1-.1c.1 0 .2.1.2.1 0 .2-.1.4-.1.6 0 .2-.1.5.3.6.4.6 1 1 1.4 1.6.4.7.9 1.3 1.5 1.8-.4-.1-.7-.2-1.1-.2-.1 0-.2 0-.2.1v.2c.6.6 1 1.4 1.9 1.7l.3.3c.1.2.2.3.2.5.1.3.2.5.7.5.6 0 1.2.2 1.6.6.1.1.1.2.1.2-.2.3-.3.6-.7.6-.7.1-1.3.2-2 .3-.2 0-.5 0-.7-.1-.7-.2-1.4-.1-2 .3-.1 0-.1.1-.1.2 0 0 .1.1.2.1.4.1.9.2 1.3.2.1 0 .3 0 .4.1.9.2.9.2.4 1.1-.1.2-.3.2-.5.2h-1.6c-.2 0-.4.1-.5.2-.1.1-.3.2-.4.3.1.1.2.3.4.4.3.2.5.3.3.7-.1.4.1.6.3.9.2.2.4.3.6.1.2-.3.3-.1.4.1.3.5.7.8 1.3 1 .3.2.7.2 1.1.1.4-.1.8-.1 1.2-.2.2 0 .5 0 .7.1.7.4 1.6.5 2.4.4h.1c.3.1.6.2.9.2-.2.3-.4.4-.7.5-.8.1-1.6.1-2.4 0-.4-.1-.9-.1-1.3 0-.1 0-.1.1-.2.2.1.1.1.2.2.2.7.1 1.4.2 2.1.4.7.2 1.5.4 2.2.6 1.1.5 2.4.6 3.6.2.4-.1.9-.1 1.4 0 .6.2 1.3.2 2 .2.2 0 .4-.1.5.2 0 .2 0 .3.1.5h-.4c-.3 0-.7.1-1 .1-.5.1-1.1.1-1.6-.1-.6-.3-1.2-.3-1.9-.3s-1.4 0-2.1-.2c-1.6-.3-3.2 0-4.5.9-.6.4-1.2.7-1.8 1.1-.6.4-1.2.7-1.8.9-.6.2-1.2.4-1.8.7-.9.5-1.9.8-2.8 1-.4.1-.9.2-1.2.4-.6.3-1.3.3-2 .1-1.4-.3-2.8-.8-4.2-1.5-.4-.2-.7-.5-1-.8-.7-.8-1.1-1.8-1.3-2.9-.2-1.2-.6-2.4-1.2-3.5-.5-1-.8-2.1-.8-3.2v-.9c0-1.1 0-2.3-.1-3.4V65zm21.4 14c-.5.1-.9 0-1.3-.2.4-.1.9 0 1.3.2zm-8.3 6.3c-.1 0-.2.1-.3.1 0 0-.1 0-.1-.1h.4zm-1 .2l-.1.1-.1-.1h.2zM15 85.2c.8-1.3 1.6-2.7 2.2-4.1.4-1 1-1.9 1.8-2.6.6-.6 1.1-1.3 1.7-2 .2-.2.3-.2.4.1.7 1.5 1.3 3.2 1.6 4.8 0 .2 0 .3-.2.4l-.6.3c-.7.4-1.4.8-2.1 1.1-1 .4-1.9 1.1-2.6 1.9-1.3 1.4-2.7 2.7-4.3 3.9 0-.2.1-.4.2-.5.6-1.1 1.2-2.2 1.9-3.3zm-4.6 9.1c.1-.3.2-.7.4-1 .5-1.1 1-2.1 1.5-3.2.1-.3.3-.5.6-.7 1.8-1.4 3.5-3 5-4.6.5-.6 1.1-1 1.8-1.2 1-.4 1.9-.8 2.7-1.4.1-.1.2-.1.3-.1.1 0 .2 0 .3.1.2.4.4.7.6 1.1.4.7 1 1.2 1.7 1.5.9.4 1.8.8 2.8 1 .1 0 .2.1.3.2-.1.1-.1.2-.2.2-.3.3-.6.5-1 .5-1.7.1-3.4.4-5.1 1l-2.7.9c-1 .4-2 .9-3 1.5-.8.5-1.6.9-2.3 1.4-1.4.7-2.6 1.7-3.7 2.8zM22.3 90c-1.1 0-2.2.2-3.2.6-1.3.5-2.5 1.1-3.7 1.8-.8.6-1.8 1-2.8 1.2-.5.1-1 .3-1.7.5.1-.2.2-.3.4-.4.9-.9 2-1.7 3.1-2.3.7-.4 1.5-.9 2.2-1.3 1-.7 2.2-1.2 3.4-1.6 1.5-.5 3.1-1 4.6-1.4.7-.2 1.4-.3 2.1-.3.6 0 1.2-.2 1.6-.6.2-.2.5-.3.8-.2.7.2 1.4.2 2.1-.1 1.7-.3 3.3-.4 5-.5 1.4.1 2.8 0 4.3 0v.1c-1.7.5-3.4 1-5.1 1.6-1.6.6-3.3.9-5.1.9-1.2 0-2.4.2-3.5.6-1.2.4-2.3.8-3.4 1.2-.2.2-.7.3-1.1.2zM48 84.7c-1.1 0-2.2.3-3.2.8-.5.2-.9.4-1.4.6-.8.4-1.7.6-2.5.7-1.4.1-2.8.4-4.1.9-2.5.8-5.1 1.6-7.6 2.4-1.8.5-3.6.5-5.4.1v-.1c1.5-.6 3.1-1.1 4.6-1.5 1.2-.2 2.4-.3 3.5-.3 1-.1 2.1-.3 3-.6.8-.3 1.6-.5 2.4-.8.7-.2 1.3-.4 2-.7.7-.3 1.5-.4 2.3-.5.5 0 1-.2 1.4-.6.7-.5 1.5-.9 2.3-1.1.9-.3 1.9-.7 2.8-1 .5-.2 1.1-.3 1.7-.2-.5.6-.9 1.1-1.3 1.6.1.2-.2.3-.5.3zm43.2 27.9c-.1.2-.3.5-.6.6-.4.2-.7.5-.8.9-.2.7-.9 1.3-1.6 1.4-.7.2-1.4.6-1.9 1.1l-1.3 1.3c-.4.4-.9.5-1.4.3-.8-.2-1.5-.5-2.2-.8-.9-.5-1.9-.8-2.9-.9-1.2-.2-2.4-.6-3.5-1.2-2.6-1.4-4.5-3.9-5-6.8-.1-.3-.1-.6-.1-.9 0-.2-.1-.4-.1-.6 0-.1-.2-.1-.3-.2-.1.1-.2.2-.2.3 0 .2 0 .5.1.7.1 1.4 0 2.8-.1 4.2 0 .7-.3.9-.9.9-.3 0-.6 0-.9.1-1.1.1-2.1-.1-3.1-.5-.8-.3-1.5-.5-2.3-.7-.6-.2-1.2-.3-1.8-.5-1.3-.4-2.6-.4-3.9-.1-.6.1-1.1.2-1.7.3-.8.2-1.1 0-1.3-.8-.2-.9-.6-1.7-1.2-2.4-.2-.3-.4-.6-.5-1-.1-.5-.4-1-.7-1.4-.4-.5-.7-1-.8-1.7-.1-.5-.4-1.1-.6-1.6-.6-1.1-1.2-2.1-1.7-3.2-.4-.9-.5-1.9-.3-2.9.1-.6.1-1.2 0-1.8-.1-1.2-.2-2.3-.2-3.5-.1-.6.1-1.2.5-1.7.4-.6.6-1.3.6-2 0-.5.1-1.1.1-1.6 0-.4.2-.9.5-1.2.3-.3.5-.7.8-1.1.2-.2.4-.5.6-.7.2-.2.5-.4.8-.4.2 0 .4 0 .5-.1.7-.3 1.4-.5 2.1-.6.6-.1 1.1-.2 1.7-.2.3 0 .6-.1.9-.2.7-.1 1.4-.3 2.1-.4.3-.1.4 0 .2.3-.3.8-.6 1.5-.9 2.3-.2.5-.3 1.1-.5 1.6 0 .2-.1.4-.2.7-.2.3-.3.7-.2 1.1.1.1 0 .4 0 .5s-.1.4 0 .5c.1.3.1.7 0 .9l-.9 2.7c-.2.5-.3 1-.4 1.5-.1.6 0 1.2.3 1.7.2.3.3.7.4 1.1.1.5.2 1 .4 1.5.2.6.5.7 1 .4.2-.1.4-.3.6-.4 1-.9 1.9-1.9 2.6-3 .1-.2.2-.2.4 0 .5.7 1 .7 1.5.1.3-.4.5-.8.7-1.3.3-1 .9-2 1.6-2.8.1-.1.2-.3.3-.4 0 0 0-.1-.1-.1h-.1l-.3.3c-1.1.8-1.7 1.8-2 2.9-.1.3-.2.6-.4.9-.1.2-.2.4-.3.5-.4.5-.7.5-1-.1-.3-.7-.7-1.3-1.2-1.9-.5-.5-.8-1.2-.8-2 0-.2.2-.4.4-.5.3-.1.7-.1 1-.2.6-.1 1.1-.4 1.5-.8.1-.2.3-.2.5-.1.1 0 .2-.1.3-.1.3.2.5.3.8.5.4.3.8.4 1.2.4.3 0 .5.1.5.4.1.4.1.8-.1 1.2-.2.4-.3.9-.5 1.3-.3.7-.3 1.5-.1 2.2.1.3.1.7-.2.9-.3.4.2 1.3.7 1.3.2 0 .3-.1.5-.2 1.1-1.2 2.3-2.3 3.6-3.2.7-.5 1.3-1.2 1.8-1.9.2-.3.4-.6.7-1 0-.1.1-.1.2-.1 0 .1.1.1.1.2-.1.5-.1 1-.2 1.4l-.6 1.8c-.6 1-.3 2 .6 2.5.5.3.9.5 1.4.7.6.2 1.1.5 1.6 1l.1.1c1 .7 1.7 1.6 2.2 2.7.6 1.2 1.6 2.2 2.7 2.9.6.3 1.1.8 1.5 1.3.5.7 1.2 1.3 2 1.8.4.2.7.5 1 .8.3.3.6.5.9.7.3.2.7.4 1 .6.9.6 1.9 1.1 3 1.3.5.1 1 .3 1.4.7.1.1.1.1.2.1.2.1.6.3.6.4-.1.5-.2.8-.4 1zm7.6-4.9c-.4.2-.8.3-1.1.4-1.2.4-2.4.7-3.6 1.1-.8.2-1.4.8-1.6 1.5-.1.3-.4.5-.6.4-.1 0-.2-.1-.3-.1l-.6-.6c-.2-.2-.3-.5-.5-.7-.4-.5-.6-1.2-.4-1.9.3-1.1.3-1.1 1.3-1.1h.2c.7.1 1.5 0 2.1-.3 1.1-.5 2.4-.5 3.5.1.5.2 1 .5 1.6.7.1.1.2.1.4.2-.2.1-.3.2-.4.3zm7-1.4c-.4.4-.9.6-1.4.8-.5.2-1.1.4-1.5.7-1 .7-2.2.8-3.3.3-.1 0-.2-.1-.2-.1 0-.1.1-.2.2-.2.9-.6 1.8-1 2.8-1.3.6-.2 1.2-.4 1.9-.5.5-.1.9-.7.8-1.2v-.1c-.1-.4-.2-.8-.2-1.2-.1-.4.1-.8.5-1 .4-.2.8-.4 1.2 0 .9.7 1.6 1.6 2.1 2.5-1.2.1-2.2.6-2.9 1.3zm-2.7-.5c.1 0 .1.1.2.1-.1.1-.1.1-.2.1s-.2.1-.4.1c-.5.2-1.1.3-1.6.6s-1 .5-1.5.7l-.1-.1c.2-.3.4-.5.6-.8.7-.9 1.9-1.2 3-.7zm-1.2-.5c.1-.2.3-.4.4-.5.1-.2.3-.4.5-.6.3-.3.6-.5.9-.7.7-.4.8-.4.9.5 0 .3.1.6.1.8.1.7-.2 1-1 1-.1 0-.3-.1-.6-.1-.2 0-.3-.1-.5-.1-.2-.2-.5-.3-.7-.3zm5.2-3.1c.2-.1.4-.2.6-.2.5-.1.9-.2 1.4-.4-.3.6-.7 1.1-1.3 1.4-.3.2-.5-.2-.7-.3s-.2-.4 0-.5zm2.6 3.3c-.2.1-.4.2-.6.2-.3 0-.5 0-.8-.1-.1-.1-.3-.1-.4-.2.1 0 .3-.1.4-.1h1.3c.1 0 .1.1.2.1 0 0 0 .1-.1.1zm.3-.6c-.3.2-.6.1-.9 0-.1 0-.1-.1-.2-.1-.1-.1-.1-.2-.2-.2.1 0 .1 0 .2-.1h.2c.4.1.8 0 .9.4.1 0 .1 0 0 0zm2.3-3.2c.1.1.2.3.1.4v.1c-.1.2-.3.4-.5.5-.3.2-.6.4-.9.7-.1.1-.3.2-.4.4-.2.2-.3.5-.5.8-.6 0-1.1-.1-1.7-.2-.3-.1-.5-.5-.8-.8 0 0 .1-.2.1-.3.4-.4.9-.8 1.3-1.3.1-.2.3-.3.3-.5v-.2c-.1 0-.1-.1-.2 0-.9.3-1.7.7-2.6 1-.1.1-.3.1-.4 0-.4-.2-.9-.1-1.3.1-.6.3-1.2.6-1.8 1-.3.2-.5.4-.7.7-.5.8-1.2 1.4-2 1.9-.3.2-.6.5-.8.8-.3.4-.4.4-.9.2-.6-.2-1.1-.5-1.7-.7-1-.4-2-.5-3-.1-.7.3-1.5.5-2.3.5-.4 0-.8 0-1.2-.1-.2 0-.3.1-.4.2v.1c-.1.4-.1.8-.2 1.2-.2.5-.1 1 .2 1.4.4.7.8 1.3 1.4 1.8 0 0 0 .1.1.2h-.2c-.9-.6-1.9-1.1-2.9-1.3-.4-.2-.8-.3-1.2-.6-.4-.2-.8-.5-1.3-.8-.6-.3-1-.7-1.4-1.2-.2-.2-.4-.4-.7-.5-.9-.4-1.7-1.1-2.3-1.9-.3-.5-.8-.9-1.2-1.1-1.4-.8-2.4-2-3.1-3.4-.4-.9-1.1-1.7-1.8-2.3-.7-.5-1.4-1-2.2-1.3-.5-.2-.9-.4-1.3-.7-.6-.5-.8-1.3-.5-2 .4-.9.7-1.9.8-2.8.1-.5.1-1 .1-1.5.1-.4.2-.7.3-1 0-.1.1-.1.2-.1s.1.1.2.1c.5 1.2 1.1 2.2 1.9 3.1 1 1.5 2.4 2.6 4.1 3.2l.6.3c.5.2.6.1.6-.4 0-.3-.1-.5-.1-.8-.1-.5-.3-1.1-.4-1.6.2.2.4.3.6.5.3.3.7.6 1 .9.1.1.2.1.3 0 .1-.1.1-.1.1-.2-.1-.8-.1-1.5-.3-2.3-.1-.4-.2-.7-.4-1.1-.1-.3-.3-.7-.4-1h-.1l.1-.1v.1h.7c.3 0 .6.2.8.4.4.4.8.8 1.3 1.1.4.2.6.6.8 1 .1.4.2.9.4 1.3 0 .1.1.1.2.2 0 0 .1-.1.1-.2.1-.3.1-.6.2-.9 0-.2.2-.1.3-.1h.1c.2.1.2.5.6.4.3-.2.5-.7.3-1.1-.1-.2-.1-.4-.2-.6.2 0 .5.1.7.1 1.1.3 2.2.4 3.3.2.1 0 .1-.1.1-.1 0-.1 0-.1-.1-.2-.3-.2-.6-.5-.8-.7.4.1.9.1 1.3.2.5.1.6 0 .7-.5.1-.3.1-.7.1-1 0-.2.1-.3.3-.2.6.1 1.2.5 1.6.9.1.1.2.3.4.4.1 0 .2 0 .3-.1.1 0 .1-.1.1-.2.1-.5.4-1 .9-1.2.2-.1.4-.2.6-.1 1 .1 1.9.3 2.9.6.4.1.8.1 1.1 0 .2-.1.3-.2.2-.5-.4-.7-.7-1.3-1.1-2-.2-.3-.4-.5-.6-.8-.1-.1-.2-.2-.3-.4.1-.1.3-.1.4-.2.1 0 .1-.1.2-.1.5-.9 1.5-.8 2.2-1.1l.2.1c0 .7.1 1.3.4 2 .1.3.1.6.1.9 0 .6.1 1.2.5 1.7.3.4.5.9.5 1.4 0 .8.5 1.5 1.2 1.8l.6.3c.9.4 1.7.9 2.4 1.6.2.2.4.4.6.5 1.6 1.1 2.2 2.7 2.9 4.4 0 .1.1.2.1.3 0 .8.5 1.2 1.1 1.5.3.4.7.7 1 1zm-3.3-.1c.1-.1.1-.1 0 0zm1.4-3.5c.4.5.8 1.1 1 1.7.1.3.3.6.5.9-.8-.1-1.4-.7-1.5-1.5-.1-.6-.3-1.2-.6-1.8-.3-.7-.7-1.3-1.1-2-.1-.2-.2-.3-.4-.4l-2.1-1.8c-.4-.3-.8-.5-1.2-.7-.4-.2-.9-.4-1.3-.6-.6-.3-.9-.8-1-1.5 0-.6-.2-1.1-.5-1.6-.4-.5-.5-1.1-.5-1.7 0-.6-.1-1.2-.4-1.7-.2-.4-.2-.9 0-1.3 0-.1.1-.1.2-.2 0 .1.1.1.1.2 0 .3.1.6.1.9.2.9.6 1.8 1.2 2.6.6.9 1.1 1.8 1.7 2.6.4.6.8 1.1 1.2 1.7.6.6 1.2 1.2 1.9 1.8.9.7 1.6 1.7 1.9 2.8.1.6.4 1.2.8 1.6zm21.4-1.2c-.1 0-.2 0-.3.1-1.4 0-2.8-.1-4.2-.3-.6-.1-1.3-.2-1.9-.2-.7 0-1.4-.1-2.1-.2-.3-.1-.7-.1-1-.2-1-.2-2.1-.2-3.2 0-.7.2-1.5.1-2.1-.1-1.2-.3-2.4-.5-3.7-.4-.3 0-.6.1-.8.2-.5.2-1 .3-1.5.1-.1 0-.2-.1-.4-.1-.8 0-1.6-.5-2-1.2-.2-.3-.6-.4-.7-.9.4 0 .7-.1 1.1-.2.8-.3 1.7-.6 2.5-.9 1.7-.8 3.7-.9 5.5-.2 1.1.4 2.2.6 3.3.7 1.2.2 2.4.4 3.6.8.4.1.7.3 1 .6.6.6 1.4 1 2.3 1 1.1 0 2.2.4 3.1 1 .3.2.5.3.8.4.2.1.4.1.6.2l.1-.2zm.7.1s0 .1 0 0zm1.8-15.3c-1.8.9-3.6 1.7-5.4 2.6-.6.3-1.2.5-1.8.6-.9.2-1.9.3-2.8.5l.4-.4c1.4-.6 2.5-1.7 3.3-3 .4-.6.8-1.1 1.3-1.6.4-.6 1.1-.7 1.7-.3.1 0 .1.1.2.1.2.1.4.3.6.5.4.5 1 .7 1.7.6.4 0 .9 0 1.3.1-.2.1-.3.2-.5.3zm4.9-3.9c-.9 1.3-2.2 2.4-3.6 3.1-.3.1-.6.2-.9.2h-1.2c-.5 0-1-.2-1.4-.5-.3-.3-.6-.5-.9-.7-.6-.4-1.5-.3-2 .3-.4.4-.8.9-1.2 1.4-.5.6-.9 1.2-1.4 1.8-.2.2-.4.5-.7.6-.9.5-1.7 1-2.7 1.4-.6.2-1.2.3-1.8.3-.5.1-.9.1-1.4.2-.1 0-.2.2-.3.3l.3.3c0 .1.1.2.1.2 1.2.7 2.5 1.4 3.8 2 .9.5 1.9.8 2.8 1.2.7.3 1.4.8 2 1.2.8.6 1.6 1.1 2.5 1.4l1.8.9c.6.3 1.2.7 1.8 1 .7.4 1.3 1 1.7 1.7.2.3.1.7-.1.9-.2.3-.6.5-.9.4-1.4-.3-2.9-.7-4.3-1.1-.3-.1-.5-.2-.7-.4-.8-.6-1.7-.9-2.7-.9-1 0-2-.4-2.7-1.1-.4-.3-.8-.6-1.3-.7-1.4-.4-2.9-.7-4.3-.8-.6 0-1.1-.2-1.7-.4-.8-.4-1.7-.6-2.6-.6-1.3-.1-2.5.1-3.7.6-.9.5-1.9.8-2.9 1.1-.6.2-1.2 0-1.5-.4-1-.9-1.9-2.1-2.6-3.3-.5-.8-1-1.6-1.6-2.4-.6-.9-1-1.9-1.1-3 0-.3 0-.4.3-.5.5-.1.8-.6.8-1.1 0-.3.2-.3.4-.3.6-.1 1.1-.2 1.7-.4.6-.2 1.2-.4 1.9-.5.3-.1.7-.1 1-.2.1 0 .1-.1.2-.1 0-.1-.1-.1-.1-.2-.3-.1-.7-.2-1-.3-.3-.1-.5-.3-.5-.5-.1-.3 0-.4.3-.5 1-.2 1.9-.6 2.8-1.1.5-.2 1-.4 1.4-.6.3-.1.3-.2.1-.5-.1-.1-.2-.3-.4-.4-.2-.2-.3-.3-.5-.4.2-.1.3-.2.5-.3.9-.6 1.5-1.4 1.9-2.4.1-.2.1-.4.2-.5.1-.3.3-.4.6-.3.4.2 1 .1 1.3-.2.1-.2.4-.2.6-.1l.1.1c.1.2.4.2.5.1l.1-.1c.8-.6 1.6-1.2 2.3-1.9.8-.8 1.5-1.7 2.1-2.7.6-.9 1.3-1.8 2-2.7.7-.9 1.4-1.9 2-2.9.2-.3.3-.4.6-.2.2.1.4.1.7.2.3 0 .6.2.7.5 0 .3.3.6.6.7.3.1.6.4.7.7.1.3.4.6.8.7.4.1.7.2 1.1.4.5.2.9.5 1.2.9.2.3.5.4.8.5 1.2.3 2.4.6 3.7 1 .3.1.7.2 1 .3.5.2.9.5 1.2.9.3.4.6.8 1 1.1.6.5.9 1.2 1 2 0 .4.1.9.3 1.3.1.1.1.2.1.3 0 .6.1 1.2.3 1.8-.3.9-.5 1.6-1 2.2zM26 128.6h1.5l2.3 6.7 2.2-6.7h1.5v7.9h-1v-4.7-.8-1.2l-2.3 6.7h-1.1l-2.3-6.7v6.7h-1l.2-7.9zm9.8 6.4c0 .3.1.5.3.7.2.2.5.2.7.2.3 0 .7-.1 1-.2.5-.2.8-.7.8-1.3v-.8c-.1.1-.3.1-.5.2-.2 0-.4.1-.5.1l-.6.1c-.3 0-.5.1-.8.2-.3.1-.4.4-.4.8zm2.3-2c.2 0 .4-.1.4-.3 0-.1.1-.2.1-.4 0-.3-.1-.6-.4-.7-.3-.2-.7-.2-1-.2-.4 0-.8.1-1.1.4-.1.2-.2.4-.2.7H35c0-.6.2-1.1.7-1.5.5-.3 1-.4 1.5-.4.6 0 1.1.1 1.6.4.4.3.7.7.6 1.2v3.3c0 .1 0 .2.1.2.1.1.2.1.3.1H40.1v.7c-.1 0-.2.1-.3.1h-.3c-.3 0-.6-.1-.7-.4-.1-.2-.1-.3-.2-.5-.2.3-.5.5-.8.7-.4.2-.8.3-1.2.3-.5 0-1-.2-1.3-.5-.3-.3-.5-.8-.5-1.2 0-.5.2-.9.5-1.2.4-.3.8-.5 1.3-.5l1.5-.3zm3.1-2.3h.9v1c.1-.3.3-.5.6-.7.3-.3.6-.4 1-.4H44v1h-.2-.2c-.4 0-.8.1-1.1.5-.3.3-.4.7-.4 1.1v3.3h-1l.1-5.8zm3.6.1h1v5.7h-1v-5.7zm0-2.2h1v1.1h-1v-1.1zM48 135c0 .3.1.5.3.7.2.2.5.2.7.2.3 0 .7-.1 1-.2.5-.2.8-.7.8-1.3v-.8c-.1.1-.3.1-.5.2-.2 0-.4.1-.5.1l-.6.1c-.3 0-.5.1-.8.2-.2.1-.4.4-.4.8zm2.3-2c.2 0 .4-.1.4-.3 0-.1.1-.2.1-.4 0-.3-.1-.6-.4-.7-.3-.2-.7-.2-1-.2-.4 0-.8.1-1.1.4-.1.2-.2.4-.2.7h-.9c0-.6.2-1.1.7-1.5.5-.3 1-.4 1.5-.4.6 0 1.1.1 1.6.4.4.3.7.7.6 1.2v3.3c0 .1 0 .2.1.2.1.1.2.1.3.1H52.3v.7c-.1 0-.2.1-.3.1h-.3c-.3 0-.6-.1-.7-.4-.1-.2-.1-.3-.2-.5-.2.3-.5.5-.8.7-.4.2-.8.3-1.2.3-.5 0-1-.2-1.3-.5-.3-.3-.5-.8-.5-1.2 0-.5.2-.9.5-1.2.4-.3.8-.5 1.3-.5l1.5-.3zm6.3-4.4h1.1v6.9h4v.9h-5.1v-7.8zm8.2 7.3c.5.1 1.1-.2 1.3-.7.2-.5.4-1.1.4-1.6s-.1-.9-.3-1.3c-.3-.5-.8-.8-1.4-.8-.5 0-1 .2-1.3.7-.3.5-.4 1.1-.4 1.6s.1 1.1.4 1.5c.3.4.8.6 1.3.6zm.1-5.3c.7 0 1.4.3 1.9.7.5.6.8 1.4.8 2.2 0 .8-.2 1.6-.7 2.3-.5.6-1.3 1-2.1.9-.7 0-1.4-.3-1.9-.8-.5-.6-.7-1.4-.7-2.2 0-.8.2-1.7.7-2.3.5-.6 1.2-.9 2-.8zm4.7.1v3.8c0 .2 0 .5.1.7.2.4.6.6 1 .5.6 0 1.2-.3 1.4-.9.1-.4.2-.9.2-1.3v-2.8h1v5.8h-.9v-.8c-.1.2-.3.4-.5.5-.4.3-.9.5-1.3.5-.7.1-1.3-.2-1.7-.8-.2-.4-.3-.8-.2-1.2v-3.9l.9-.1zm5.2.1h1v5.7h-1v-5.7zm0-2.2h1v1.1h-1v-1.1zm3 6.1c0 .3.1.5.2.7.3.3.8.5 1.3.5.3 0 .7-.1.9-.2.3-.1.4-.4.4-.7 0-.2-.1-.5-.3-.6-.3-.1-.5-.2-.8-.3l-.8-.2c-.4-.1-.7-.2-1.1-.4-.4-.2-.6-.6-.6-1.1 0-.5.2-1 .6-1.3.4-.4 1-.5 1.6-.5.7-.1 1.4.2 1.9.8.2.3.4.7.3 1h-.9c0-.2-.1-.4-.2-.6-.3-.3-.7-.4-1.2-.4-.3 0-.6.1-.8.2-.2.1-.3.3-.3.6s.1.5.4.6c.2.1.4.2.6.2l.6.2c.5.1 1 .3 1.4.5.4.3.6.7.6 1.2s-.2 1-.6 1.3c-.5.4-1.1.6-1.8.6-.7.1-1.3-.1-1.8-.6-.4-.4-.6-.9-.6-1.4h1zm7.3-4.1c.4 0 .8.1 1.2.3.4.2.7.4.9.7.2.3.3.7.4 1 .1.4.1.8.1 1.3h-4.2c0 .5.1 1 .4 1.4.3.4.7.6 1.2.5.5 0 .9-.2 1.2-.5.2-.2.3-.4.4-.7h1c0 .2-.1.5-.2.7-.1.2-.3.5-.5.6-.3.3-.7.5-1.1.6-.3.1-.5.1-.8.1-.7 0-1.4-.3-1.8-.8-.5-.6-.8-1.4-.7-2.2 0-.8.2-1.6.8-2.2.3-.5 1-.8 1.7-.8zm1.6 2.6c0-.3-.1-.7-.3-1-.3-.5-.8-.7-1.3-.7-.4 0-.8.2-1.1.5-.3.3-.5.8-.5 1.2h3.2zm8.7-4.8c1.2-.1 2.3.4 3.1 1.3.5.8.8 1.7.8 2.7 0 1.1-.3 2.1-.9 2.9-.7.9-1.8 1.4-3 1.4-1.1.1-2.1-.4-2.9-1.2-.6-.8-1-1.9-.9-2.9 0-1 .3-1.9.8-2.7.7-1 1.9-1.6 3-1.5zm.2 7.4c.8.1 1.6-.3 2-1 .4-.7.6-1.5.6-2.3 0-.8-.2-1.6-.7-2.2-.5-.6-1.2-.9-2-.8-.8 0-1.5.3-2 .8-.6.7-.8 1.6-.8 2.5 0 .8.2 1.6.7 2.2.5.5 1.3.8 2.2.8zm4.9-5.1h.9v1c.1-.3.3-.5.6-.7.3-.3.6-.4 1-.4H103.3v1h-.2-.2c-.4 0-.8.1-1.1.5-.3.3-.4.7-.4 1.1v3.3h-1l.1-5.8zm3.8-1.6h1v1.6h.9v.8h-.9v3.8c0 .2.1.3.2.4.1 0 .2.1.4.1h.4v.8c-.1 0-.2.1-.3.1h-.4c-.3 0-.7-.1-.9-.3-.2-.3-.3-.6-.2-.9v-3.8h-.8v-.8h.8l-.2-1.8zm5.3 1.5c.4 0 .8.1 1.2.3.4.2.7.4.9.7.2.3.3.7.4 1 .1.4.1.8.1 1.3H108c0 .5.1 1 .4 1.4.3.4.7.6 1.2.5.5 0 .9-.2 1.2-.5.2-.2.3-.4.4-.7h1c0 .2-.1.5-.2.7-.1.2-.3.5-.5.6-.3.3-.7.5-1.1.6-.3.1-.5.1-.8.1-.7 0-1.4-.3-1.8-.8-.5-.6-.8-1.4-.7-2.2 0-.8.2-1.6.8-2.2.2-.5.9-.8 1.7-.8zm1.5 2.6c0-.3-.1-.7-.3-1-.3-.5-.8-.7-1.3-.7-.4 0-.8.2-1.1.5-.3.3-.5.8-.5 1.2h3.2zm4.2-2.6c.4 0 .8.1 1.2.3.2.2.4.3.6.5v-.7h.9v5.2c0 .6-.1 1.2-.3 1.7-.5.8-1.3 1.3-2.3 1.2-.6 0-1.1-.1-1.6-.4-.4-.3-.7-.8-.7-1.3h1c0 .2.1.4.3.6.3.2.7.4 1 .3.6.1 1.2-.2 1.5-.8.2-.5.2-1.1.2-1.6-.2.3-.4.5-.7.7-.3.2-.7.2-1.1.2-.6 0-1.2-.2-1.6-.7-.5-.6-.8-1.4-.7-2.2 0-.8.2-1.6.7-2.3.3-.4 1-.7 1.6-.7zm1.8 3c0-.6-.1-1.1-.4-1.6-.3-.3-.7-.5-1.1-.5-.6 0-1.2.4-1.4 1-.1.4-.2.9-.2 1.3 0 .5.1 1 .4 1.5.2.3.6.5 1.1.5.6 0 1.2-.3 1.5-.9 0-.5.1-.9.1-1.3zm3.1 1.4c0 .3.1.5.3.7.2.2.5.2.7.2.3 0 .7-.1 1-.2.5-.2.8-.7.8-1.3v-.8c-.1.1-.3.1-.5.2-.2 0-.4.1-.5.1l-.6.1c-.3 0-.5.1-.8.2-.3.1-.5.4-.4.8zm2.3-2c.2 0 .4-.1.4-.3 0-.1.1-.2.1-.4 0-.3-.1-.6-.4-.7-.3-.2-.7-.2-1-.2-.4 0-.8.1-1.1.4-.1.2-.2.4-.2.7h-.9c0-.6.2-1.1.7-1.5.5-.3 1-.4 1.5-.4.6 0 1.1.1 1.6.4.4.3.7.7.6 1.2v3.3c0 .1 0 .2.1.2.1.1.2.1.3.1H124.5v.7c-.1 0-.2.1-.3.1h-.3c-.3 0-.6-.1-.7-.4-.1-.2-.1-.3-.2-.5-.2.3-.5.5-.8.7-.4.2-.8.3-1.2.3-.5 0-1-.2-1.3-.5-.3-.3-.5-.8-.5-1.2 0-.5.2-.9.5-1.2.4-.3.8-.5 1.3-.5l1.5-.3zm-74.7 16.3c.2 0 .4 0 .5-.2.1-.1.2-.2.2-.4v-5-.7h-.7v-.4h4.6v1.8h-.3c0-.4-.1-.8-.4-1.1-.3-.2-.7-.3-1-.3H50c-.2 0-.4 0-.5.2-.1.1-.2.2-.2.4v2.4H51l-.1-.9h.4v2.1H51c0-.2 0-.4-.1-.6 0-.1-.1-.2-.3-.3-.2-.1-.3-.1-.5-.1H49.2V149.1h1v.4h-2.5v-.2zm7.5 0c.2 0 .4 0 .5-.2.1-.1.2-.2.2-.4v-5-.7h-.7v-.4h2.2v.3c-.2 0-.4 0-.5.2-.1.1-.2.2-.2.4v5.8h1.9c.4 0 .7-.1 1-.4.2-.4.4-.8.3-1.3h.3l-.1 2.1h-5v-.4zm11 .5c-.7 0-1.4-.2-2-.5-.5-.3-.9-.8-1.2-1.4-.3-.6-.4-1.2-.4-1.8 0-.6.1-1.2.4-1.7.3-.6.7-1 1.2-1.4.6-.4 1.2-.6 1.9-.5.7 0 1.4.2 2 .5.5.3.9.8 1.2 1.4.3.5.4 1.1.4 1.7 0 .6-.1 1.2-.4 1.7-.3.6-.7 1-1.2 1.4-.5.4-1.2.6-1.9.6zm.1-.4c.5 0 1-.1 1.3-.4.4-.3.7-.7.8-1.1.2-.5.3-1 .3-1.5 0-.6-.1-1.1-.3-1.6-.2-.5-.5-.9-.9-1.3-.4-.3-.9-.5-1.4-.5-.5 0-1 .1-1.3.4-.4.3-.7.7-.8 1.2-.2.5-.3 1-.3 1.5s.1 1.1.3 1.6c.2.5.5 1 .9 1.3.3.2.8.4 1.4.4zm6.3-.1c.2 0 .4 0 .5-.2.1-.1.2-.2.2-.4v-5-.7h-.7v-.4H75c.7 0 1.4.1 2.1.5.4.3.7.8.7 1.3 0 .4-.1.9-.4 1.2-.4.4-.9.7-1.5.8l.3.3c.1.1.2.3.4.6l.7 1.1c.1.2.3.4.4.5l.3.3c.2.1.3.1.5.1v.3h-1.3c-.2-.1-.3-.3-.5-.5-.1-.2-.3-.4-.4-.6l-.7-1.1-.1-.2c-.1-.2-.2-.3-.3-.4l-.3-.3h-.7v2.7h.7v.4h-2.2v-.3zm2-3.2c1.4 0 2-.5 2-1.6 0-.4-.1-.8-.4-1.1-.4-.3-.9-.4-1.4-.4-.2 0-.4 0-.5.1-.1.1-.2.2-.2.3V146c.3.1.4.1.5.1zm6.3 3.2c.2 0 .4 0 .5-.2.1-.1.2-.2.2-.4v-5-.7H81v-.4h2.2v.3c-.2 0-.4 0-.5.2-.1.1-.2.2-.2.4v5.7h.7v.4H81v-.3zm7.7.5c-.3 0-.6 0-.9-.1-.3-.1-.6-.2-.8-.4l.1.4h-.5l-.1-2.1h.4c0 .5.2 1 .6 1.3.4.3.9.5 1.4.5.4 0 .7-.1 1-.3.3-.2.4-.6.4-.9 0-.3-.1-.5-.2-.7-.2-.2-.4-.4-.6-.5-.3-.2-.6-.3-.9-.5-.4-.2-.8-.4-1.1-.6-.3-.2-.5-.4-.7-.6-.2-.3-.3-.6-.3-1 0-.3.1-.6.2-.8.1-.3.4-.5.6-.7.4-.2.8-.3 1.2-.3.3 0 .6 0 .9.1.3.1.6.2.8.4v-.4h.5v2.2h-.4c0-.5-.2-1-.5-1.3-.3-.4-.8-.6-1.3-.5-.3 0-.7.1-.9.3-.2.2-.3.5-.3.8 0 .2.1.5.2.7.2.2.3.4.6.5.2.1.5.3.9.5s.7.4 1.1.6c.3.2.5.4.7.7.2.3.3.6.3 1 0 .3-.1.7-.3 1-.2.3-.5.5-.8.7-.4-.1-.9 0-1.3 0zm6.9-.5c.2 0 .4-.1.6-.2.1-.2.1-.4.1-.7v-5.5h-1c-.3 0-.7.1-.9.4-.2.4-.3.9-.3 1.3h-.4l.1-2.1h5.8l.1 2.1h-.4c0-.3 0-.7-.1-1-.1-.2-.2-.4-.4-.6-.2-.1-.5-.2-.8-.2h-.9v6.3h.8v.4h-2.3v-.2z" fill="#1a1818"/>
</svg>
