<svg xmlns="http://www.w3.org/2000/svg" viewBox="0 0 150 150">
  <path d="M8.3 99H6.2l-4.1-6.7V99H0V88.8h2.1l4.1 6.7v-6.7h2.1V99zm7.7-2.1h-3.7l-.7 2.1H9.4l3.8-10.2h1.9L18.9 99h-2.2l-.7-2.1zm-3.1-1.7h2.5l-1.3-3.8-1.2 3.8zm13.8-4.7h-3.1V99h-2.1v-8.5h-3.1v-1.7h8.3v1.7zm8.9-1.7v6.7c0 1-.3 2-1 2.6-.8.7-1.8 1-2.9 1-1 .1-2-.3-2.8-.9-.7-.7-1.1-1.6-1.1-2.6v-6.8h2.1v6.7c0 .5.1 1.1.5 1.5.4.3.8.5 1.3.5 1.2 0 1.8-.6 1.8-1.9v-6.8h2.1zm5.5 6.4h-1.7V99h-2.1V88.8h3.8c1-.1 2 .2 2.8.8.7.6 1 1.4 1 2.3 0 .6-.1 1.2-.5 1.7-.3.5-.8.9-1.4 1.1l2.2 4.2v.1H43l-1.9-3.8zm-1.7-1.7h1.7c.4 0 .9-.1 1.2-.4.3-.3.5-.7.4-1.1 0-.4-.1-.8-.4-1.1-.3-.3-.8-.4-1.3-.4h-1.7l.1 3zm12.8 3.4h-3.7l-.7 2.1h-2.2l3.8-10.2h1.9L55.1 99h-2.2l-.7-2.1zm-3.1-1.7h2.5l-1.3-3.8-1.2 3.8zm9 2.1h4.5V99h-6.5V88.8h2.1v8.5zm11.4-1.9V99h-2.1V88.8h4c.7 0 1.4.1 2 .4.6.3 1 .7 1.3 1.2.3.5.5 1.1.5 1.8 0 .9-.3 1.8-1 2.4-.8.6-1.8.9-2.8.9h-1.9zm0-1.7h1.9c.5 0 .9-.1 1.3-.4.3-.3.5-.7.4-1.1 0-.4-.1-.9-.4-1.2-.3-.3-.8-.5-1.2-.5h-1.9v3.2zm13.2.9h-4v2.7h4.7V99h-6.8V88.8h6.8v1.7h-4.7v2.4h4v1.7zm5.7.7h-1.7V99h-2.1V88.8h3.8c1-.1 2 .2 2.8.8.7.6 1 1.4 1 2.3 0 .6-.1 1.2-.5 1.7-.3.5-.8.9-1.4 1.1l2.2 4.2v.1h-2.2l-1.9-3.7zm-1.7-1.7h1.7c.4 0 .9-.1 1.2-.4.3-.3.5-.7.4-1.1 0-.4-.1-.8-.4-1.1-.3-.3-.8-.4-1.3-.4h-1.7l.1 3zm13.2 1.2h-4V99h-2.1V88.8h6.6v1.7h-4.5v2.6h4v1.7zm7.8-.2h-4v2.7h4.7V99h-6.8V88.8h6.8v1.7h-4.7v2.4h4v1.7zm9.9 1c0 1-.5 1.9-1.2 2.6-.8.7-1.8 1-2.9.9-1.2.1-2.3-.4-3.1-1.3-.8-1-1.2-2.3-1.1-3.6v-.6c0-.9.2-1.8.5-2.6.3-.7.8-1.3 1.5-1.7.7-.4 1.4-.6 2.2-.6 1 0 2 .3 2.8.9.7.7 1.2 1.6 1.2 2.6h-2.1c0-.5-.2-1-.5-1.4-.4-.3-.9-.5-1.4-.4-.6 0-1.2.2-1.6.8-.4.7-.6 1.5-.5 2.3v.8c-.1.8.1 1.7.5 2.4.4.5 1 .8 1.6.8.5 0 1-.1 1.5-.4.4-.4.5-.9.5-1.4l2.1-.1zm8.9-5.1h-3.1V99h-2.1v-8.5h-3.1v-1.7h8.3v1.7zm3.4 8.5h-2.1V88.8h2.1V99zm10.3-4.9c0 .9-.2 1.8-.5 2.6-.3.7-.9 1.3-1.5 1.7-.7.4-1.5.6-2.3.6-.8 0-1.6-.2-2.3-.6-.7-.4-1.2-1-1.5-1.7-.4-.8-.6-1.7-.6-2.6v-.5c0-.9.2-1.8.5-2.6.3-.7.9-1.3 1.5-1.8.7-.4 1.5-.6 2.3-.6.8 0 1.6.2 2.3.6.7.4 1.2 1 1.5 1.8.4.8.6 1.7.5 2.6v.5zm-2.1-.4c.1-.8-.1-1.7-.6-2.4-.4-.5-1-.9-1.6-.8-.6 0-1.3.3-1.6.8-.4.7-.6 1.6-.6 2.4v.5c0 .8.2 1.7.6 2.4.4.6 1 .9 1.6.9.6 0 1.3-.3 1.6-.8.4-.7.6-1.6.6-2.4v-.6zM150 99h-2.1l-4.1-6.7V99h-2.1V88.8h2.1l4.1 6.7v-6.7h2.1V99zM43 115.1c.5 0 .9-.2 1.1-.6.2-.4.3-.9.3-1.4 0-.4-.1-.8-.2-1.1-.2-.5-.7-.7-1.2-.7s-.9.2-1.1.6c-.2.4-.4.9-.3 1.4 0 .5.1.9.3 1.3.3.4.7.6 1.1.5zm.1-4.6c.6 0 1.2.2 1.6.6.5.5.7 1.2.7 1.9s-.2 1.4-.6 2c-.4.5-1.1.8-1.8.8-.6 0-1.2-.2-1.6-.7-.4-.5-.6-1.2-.6-1.9s.2-1.4.6-2c.4-.4 1-.7 1.7-.7zm3.3.2h.8v.9c.1-.2.3-.4.5-.6.2-.2.6-.4.9-.4H48.9v.9h-.1-.1c-.4 0-.7.1-1 .4-.2.3-.3.6-.3.9v2.9h-.8l-.2-5zm4.9-.1c.4 0 .7.1 1 .3.2.1.3.3.5.5v-.6h.8v4.5c0 .5-.1 1-.3 1.5-.4.7-1.2 1.1-2 1-.5 0-.9-.1-1.4-.4-.4-.3-.6-.7-.6-1.1h.9c0 .2.1.4.2.5.2.2.6.3.9.3.5.1 1-.2 1.3-.7.1-.5.2-.9.2-1.4-.1.2-.4.4-.6.6-.3.1-.6.2-.9.2-.5 0-1-.2-1.4-.6-.5-.5-.7-1.2-.6-1.9 0-.7.2-1.4.6-2 .3-.4.8-.7 1.4-.7zm1.5 2.6c0-.5-.1-1-.4-1.4-.2-.3-.6-.5-1-.4-.5 0-1 .3-1.2.8-.1.4-.2.8-.2 1.2 0 .5.1.9.3 1.3.2.3.6.5.9.4.6 0 1.1-.3 1.3-.8.2-.4.3-.8.3-1.1zm2.7 1.1c0 .2.1.4.3.6.2.1.4.2.6.2.3 0 .6-.1.9-.2.4-.2.7-.6.7-1.1v-.7c-.1.1-.3.1-.4.2-.2 0-.3.1-.5.1l-.5.1c-.2 0-.5.1-.7.2-.3.1-.4.4-.4.6zm2-1.7c.2 0 .3-.1.4-.2 0-.1.1-.2.1-.3 0-.2-.1-.5-.3-.6-.3-.1-.6-.2-.9-.2-.3 0-.7.1-.9.4-.1.2-.2.4-.2.6h-.8c0-.5.2-1 .6-1.3.4-.2.9-.4 1.3-.4.5 0 1 .1 1.4.3.4.2.6.6.5 1v2.9c0 .1 0 .1.1.2s.1.1.2.1h.2v.6c-.1 0-.2.1-.3.1h-.3c-.2 0-.5-.1-.6-.3-.1-.1-.1-.3-.1-.5-.2.2-.5.4-.7.6-.3.2-.7.3-1.1.2-.4 0-.8-.1-1.1-.4-.3-.3-.5-.7-.4-1.1 0-.4.1-.8.4-1.1.3-.3.7-.4 1.1-.5l1.4-.1zm2.6-1.9h.8v.7c.2-.3.5-.5.7-.6.3-.1.6-.2.9-.2.6-.1 1.1.2 1.4.7.2.4.2.8.2 1.2v3.2h-.8v-3.1c0-.3 0-.5-.1-.7-.1-.3-.5-.5-.8-.5-.2 0-.3 0-.5.1s-.4.2-.6.4c-.1.1-.2.3-.3.5 0 .2-.1.5-.1.8v2.6h-.8v-5.1zm5.3 0h.9v5h-.9v-5zm0-1.9h.9v1h-.9v-1zm4.1 1.7c.5 0 1 .1 1.4.4.4.4.6.9.6 1.4h-.8c0-.3-.2-.5-.3-.8-.2-.2-.5-.3-.9-.3-.5 0-1 .3-1.1.8-.2.4-.2.8-.2 1.3 0 .4.1.9.3 1.3.2.3.6.5 1 .5.3 0 .6-.1.8-.3.2-.2.4-.5.4-.9h.8c0 .6-.3 1.1-.7 1.4-.4.3-.9.5-1.4.5-.6 0-1.2-.2-1.6-.7-.4-.5-.6-1.1-.6-1.8s.2-1.5.6-2c.5-.5 1.1-.8 1.7-.8zm7.6 4.6c.4 0 .7-.2 1-.5.3-.4.4-1 .4-1.5 0-.3-.1-.7-.2-1-.2-.5-.7-.9-1.2-.8-.6 0-1 .3-1.2.9-.1.4-.2.8-.2 1.2 0 .3 0 .7.2 1 .2.4.7.7 1.2.7zm-2.2-4.4h.8v.7c.1-.2.3-.4.5-.5.3-.2.6-.3 1-.3.6 0 1.1.2 1.4.6.4.5.6 1.2.6 1.9.1.9-.2 1.7-.9 2.3-.4.3-.8.4-1.3.4-.3 0-.7-.1-.9-.2-.2-.1-.4-.3-.5-.5v2.5h-.8v-6.9zm5.4 0h.8v.9c.1-.2.3-.4.5-.6.2-.2.6-.4.9-.4H82.8v.9h-.1-.1c-.4 0-.7.1-1 .4-.2.3-.3.6-.3.9v2.9h-.8v-5zm5.1 4.4c.5 0 .9-.2 1.1-.6.2-.4.3-.9.3-1.4 0-.4-.1-.8-.2-1.1-.2-.5-.7-.7-1.2-.7s-.9.2-1.1.6c-.2.4-.4.9-.3 1.4 0 .5.1.9.3 1.3.3.4.7.6 1.1.5zm.1-4.6c.6 0 1.2.2 1.6.6.5.5.7 1.2.7 1.9s-.2 1.4-.6 2c-.4.5-1.1.8-1.8.8-.6 0-1.2-.2-1.6-.7-.4-.5-.6-1.2-.6-1.9s.2-1.4.6-2c.4-.4 1-.7 1.7-.7zm3.8 2.7c0 .5.1.9.3 1.3.2.4.7.6 1.1.5.4 0 .7-.2 1-.5.3-.4.4-.9.4-1.4 0-.5-.1-1-.4-1.4-.2-.3-.6-.5-1-.5s-.8.2-1 .5c-.3.5-.4 1-.4 1.5zm1.3-2.6c.3 0 .7.1 1 .2.2.1.4.3.5.5v-2.5h.8v6.9h-.8v-.7c-.2.3-.4.5-.7.7-.3.1-.6.2-.9.2-.6 0-1.1-.3-1.4-.7-.4-.5-.6-1.2-.6-1.9s.2-1.3.6-1.9c.2-.5.8-.8 1.5-.8zm4.3.1v3.3c0 .2 0 .4.1.6.2.3.5.5.8.4.5 0 1-.3 1.2-.8.1-.4.2-.8.2-1.2v-2.5h.8v5h-.8v-.7c-.1.2-.2.3-.4.5-.3.3-.7.4-1.2.4-.6.1-1.1-.2-1.5-.7-.2-.3-.2-.7-.2-1v-3.4l1 .1zm6.4-.2c.5 0 1 .1 1.4.4.4.4.6.9.6 1.4h-.8c0-.3-.2-.5-.3-.8-.2-.2-.5-.3-.9-.3-.5 0-1 .3-1.1.8-.2.4-.2.8-.2 1.3 0 .4.1.9.3 1.3.2.3.6.5 1 .5.3 0 .6-.1.8-.3.2-.2.4-.5.4-.9h.8c0 .6-.3 1.1-.7 1.4-.4.3-.9.5-1.4.5-.6 0-1.2-.2-1.6-.7-.4-.5-.6-1.1-.6-1.8s.2-1.5.6-2c.5-.5 1.1-.8 1.7-.8zm3-1.2h.8v1.4h.8v.7h-.8v3.3c0 .1.1.3.2.3s.2.1.3.1H105.9v.7c-.1 0-.2 0-.3.1h-.3c-.3 0-.6-.1-.8-.3-.1-.2-.2-.5-.2-.8v-3.3h-.7v-.7h.7v-1.5zm3 4.8c0 .2.1.5.2.6.3.3.7.4 1.1.4.3 0 .6-.1.8-.2.2-.1.4-.4.4-.6 0-.2-.1-.4-.3-.5-.2-.1-.5-.2-.7-.2l-.7-.2c-.3-.1-.6-.2-.9-.4-.3-.2-.5-.6-.5-.9 0-.4.2-.9.5-1.1.4-.3.9-.5 1.4-.4.6-.1 1.2.2 1.6.7.2.3.3.6.3.9h-.8c0-.2-.1-.4-.2-.5-.3-.2-.6-.4-1-.3-.3 0-.5 0-.7.2-.2.1-.2.3-.2.5s.1.4.3.5c.2.1.4.2.5.2l.6.1c.4.1.8.2 1.2.4.3.2.5.6.5 1s-.2.9-.5 1.2c-.4.4-1 .5-1.5.5-.6.1-1.1-.1-1.6-.5-.3-.3-.5-.8-.5-1.2l.7-.2zM95.9 32.2c-3.4-.2-4.4 4.1-4.6 6.7-.3 3.6.7 7.2 2.8 10.1 0 .1.1.1.2.1 1.3 2.8 3.3 5.2 5.7 7-.9-.3-1.8-.6-2.8-.9 0-.1-.1-.1-.1-.2-3.1-1.8-5.9-4.1-8.3-6.7 0-.1-.1-.1-.2-.1-.3-3.5-1.9-6.7-4.4-9.1-3.3-3.1-8.1-3.8-11.6-6.5-.2-.1-.4 0-.5.1 0 .1-.1.2 0 .2v.1c.3.6.6 1.3.8 1.9v.2c2.8 6.3 8.2 11.2 14.8 13.4.1.1.1.1.2.1h.1v.1h.1c.1.1.2.1.3.2h.1c2 2.1 4.3 4 6.8 5.6-3.4-.9-6.9-1.6-10.4-2-1.6-.2-3.2-.3-4.8-.3-2.4-.6-4.5-1.9-6.2-3.7v-.1c-.2-.3-.4-.6-.4-1-1.2-2.9-4.1-4.6-6.8-6.2-1-.6-1.9-1.2-2.8-1.9-.9-.9-1.7-1.8-2.5-2.8-.7-.7-1.9-1.3-2.7-.4-1 1.1-.1 2.6.5 3.5 1 1.7 2.3 3.2 3.8 4.4 2.8 2.4 6.3 3.9 9.9 4.5v.1l.1.1v.2l.1.1c.1 0 .1.1.2.2 1.2 1.3 2.6 2.3 4.2 3-1.9 0-3.9 0-5.8-.1-4.2-.1-8.5-.7-12.1-3.1v-.2c-2.3-4.6-7.6-5.2-11.8-7.1-1.2-.5-2.4-1.2-3.4-2.1-1-.7-1.8-1.9-2.8-2.5-1-.5-2.1-.4-2.6.7-.7 1.5.3 3.3 1.1 4.4 1.1 1.6 2.6 3 4.3 4 4.3 2.6 9.5 2.9 14.4 3 1.1.8 2.4 1.5 3.7 2-1 0-2 .2-3 .5l-.2.2c-.2.1-.5.1-.7.1-7.4 1.2-17.4 3.9-17.8 13 0 .2.2.4.4.3 4.4-1.7 9.3-3 13.5-5.2 2.8-1.6 5.2-4.3 4.9-7.6 1.5-.6 3.2-.7 4.8-.4.1 0 .2 0 .3-.1 4.8 1.2 10.1.8 15 .9.2.1.4.1.7.2.1 0 .3 0 .3-.1.5 0 .9 0 1.4.1.3 0 .6.1.9.1-3.2.7-6.3 1.5-9.3 2.5-.1 0-.2.1-.2.1-.1 0-.1 0-.2.1h-.1-.1-.1v.1c-7.3 2.6-13.8 6.8-16.4 14.6.1.2.2.4.4.4h.1c8.7.6 14.1-7.2 16.8-14.5 3-1 6-1.8 9-2.5-1.8 1.1-3.1 2.8-4 4.7v.1c-.1-.1-.2-.1-.4-.1l-.1-.1c-1.2-.3-2.5.4-2.9 1.6-.3 1.1.2 2.3 1.3 2.7 1.1.5 2.3.1 2.9-.9.5-.9.3-2.1-.4-2.8.1 0 .2-.1.3-.2 1.1-2.3 3-4.2 5.3-5.2.4-.1.8-.2 1.2-.2 1 .1 2 .3 3 .5-1.7.1-3.5.3-4.8 1.6-1 1-1.1 2.6-.1 3.7 0 0-.1 0-.1.1-.7 1-.5 2.4.4 3.2.9.7 2.3.6 3-.4 1.7-2-.8-4.4-2.8-3.3-1.5-1.5.3-3.4 1.9-3.9 1.4-.3 2.8-.4 4.2-.5.1 0 .2-.1.2-.2 3.8.8 7.5 1.9 11.1 3.2-1.6.1-3.2.6-4.6 1.6-.1 0-.1.1-.1.2-.1 0-.3.1-.3.2-6.5 1.9-11.9 6.6-14.7 12.8-.1.2.2.5.4.4 3.5-.8 7.5-1.6 10.5-3.7 2.9-2.1 3.8-5.6 4.4-9h.1c0-.1.1-.2.1-.3l.3-.3c1.8-1.2 4-1.5 6.1-1 1.3.6 2.7 1.2 4 1.8.4.2.8-.4.4-.6-1.3-.6-2.6-1.2-4-1.8l-.1-.1h-.1c-.6-.2-1.1-.5-1.7-.7 0-.1-.1-.1-.1-.2-3.5-1.8-6.4-4.7-8-8.3 0-.1-.1-.2-.2-.2 3.1-4.8-.5-10.5 1.8-15.4.1-.1 0-.3-.1-.4h-.1c.1-.2 0-.4-.1-.5.1.1 0 .1-.1.1zm-13.2 6.6c2.9 2.2 4.7 5.4 5.2 9-4.5-4.9-9.3-9.4-14.4-13.7 3 1.7 6.4 2.6 9.2 4.7zM73.6 35c4.6 3.9 9 8 13.1 12.4-5.8-2.2-10.5-6.7-13.1-12.4zm-12.3 2.3c0 .1.1.1.1.2.3.4.8 1.2 1 1.4.4.4.8.8 1.3 1.2 1.2.9 2.4 1.7 3.7 2.4 2 1.2 4.1 2.6 5.2 4.7-4.7-1.9-8.8-5.2-11.8-9.3 0 0-.1 0-.1-.1l-.7-1c0-.1-.1-.1-.2-.1.6-.5 1.2.1 1.5.6zm3.8 7.6c-1.3-.9-2.4-1.9-3.4-3.1-.6-.6-1.1-1.3-1.5-2-.2-.3-.4-.6-.5-.9-.1-.2-.2-.3-.2-.5v-.1c-.1-.3 0-.7.1-1l.7 1.1c0 .1.1.1.2.1 3.1 4.3 7.4 7.6 12.3 9.5-2.9-.5-5.5-1.5-7.7-3.1zm-24.3-6.7c.4-.4.8-.4 1.1 0 .4.3.8.6 1.1 1.1.5.5 1 .9 1.6 1.4 1.4 1 3 1.9 4.6 2.5 3.3 1.2 7.1 2.1 9.3 4.9-7-1-13.3-4.5-17.7-9.9zm6.8 8.8c-1.8-.7-3.5-1.7-4.9-3-1.1-1-3-3.1-2.8-4.8-.1-.3 0-.6.3-.7h.1C45 44.3 51.8 48 59.1 48.7c-4-.1-7.9-.3-11.5-1.7zm10.6 6c-4.8 4.7-11.9 6.2-16.4 11.3 1-7.8 9.7-10.1 16.4-11.3zm-5.6 7.7c-3.3 1.4-6.7 2.5-10 3.8 4.6-5 12-6.4 16.6-11.4.2 3.7-3.4 6.2-6.6 7.6zm6 9.7c5.2-3.6 10-7.9 14.1-12.7-2.5 6.1-7.1 12.3-14.1 12.7zm-1-.2c2.5-6.8 8.2-10.7 14.7-13.1-4.2 5-9.2 9.4-14.7 13.1zm21.1-10.7c1.4 1.1.2 3.5-1.5 2.8-.8-.2-1.2-1.1-1.1-1.9.3-.8 1.1-1.4 2-1.2.1.1.1.1.2.1h.2l.2.2zm8.4 2.2c-.5.6-1.4.8-2 .3H85c-.6-.6-.8-1.5-.3-2.2v-.1s.1 0 .1-.1c1.5-1.1 3.5.7 2.3 2.1zm5.6 7.2c-2.5 1.5-5.6 2.4-8.5 3 4.5-3.3 8.8-6.9 12.9-10.8-.6 3.1-1.6 6.1-4.4 7.8zM84 71.2c2.7-5 7.2-8.8 12.6-10.6-3.9 3.8-8.1 7.4-12.6 10.6zm10.6-23.8c-1.4-4.2-1.1-8.8.7-12.8-1 4.2 1.2 8.9-.7 12.8zm-.8-.1c-1.2-2.1-1.9-4.4-1.9-6.8 0-2.3.5-7.2 3.5-7.5-2.5 4.3-3.1 9.5-1.6 14.3z" fill="#1a1818"/>
</svg>
