<svg xmlns="http://www.w3.org/2000/svg" viewBox="0 0 150 150">
  <path d="M38.9 71l1.1 3.4h1.7l-4.1-11.3h-1.7l-4.2 11.3h1.6l1.2-3.4h4.4zm-2.2-6.2l1.7 5h-3.5l1.8-5zm78.3 9.6v-9.9h-3.8v-1.3h9.1v1.3h-3.8v9.9H115zM66.4 63.1h1.5v11.3h-1.7l-5.8-9.1v9.1h-1.5V63.1h1.8l5.7 9.1v-9.1zm7.1 0l-4.2 11.3h1.6L72 71h4.5l1.1 3.4h1.7l-4.1-11.3h-1.7zm-1 6.7l1.8-5 1.7 5h-3.5zm-16.1 4.6h-1.5V63.1h1.5v11.3zm53.3-11.3v11.3h-1.5V63.1h1.5zm-5.7 3.5v-1.7l-3.2 9.5h-1.5l-3.2-9.5v9.5h-1.5V63.1h2.2l3.2 9.5 3.2-9.5h2.2v11.3H104v-6.7-1.1zm-12.7 4.9c0-.5-.2-1-.6-1.3-.6-.3-1.2-.5-1.8-.7l-1.5-.3c-.7-.1-1.5-.4-2.1-.7-.7-.5-1.1-1.3-1.1-2.1 0-.9.4-1.9 1.1-2.5.8-.7 1.9-1 3-1s2.1.3 3 .9c.9.6 1.3 1.7 1.2 2.7H91c0-.5-.2-1-.5-1.4-.6-.6-1.5-1-2.4-.9-.7-.1-1.4.1-1.9.6-.4.3-.6.8-.6 1.3s.2 1 .7 1.2c.7.3 1.3.5 2 .6l1.6.4c.6.1 1.2.4 1.8.7.7.5 1.1 1.4 1.1 2.3.1 1.1-.4 2.1-1.4 2.7-1 .6-2.1.8-3.2.8-1.2.1-2.4-.3-3.3-1.1-.8-.7-1.2-1.8-1.2-2.9h1.4c0 .6.2 1.1.5 1.6.6.8 1.7 1.2 2.7 1.1.5 0 1.1-.1 1.6-.2.8-.3 1.4-1 1.4-1.8zm-62.4-4.9v-1.7l-3.2 9.5h-1.5L21 64.9v9.5h-1.5V63.1h2.2l3.2 9.5 3.2-9.5h2.2v11.3h-1.5v-6.7c.1-.2.1-.6.1-1.1zm94.4-3.5v4.7h5.9v-4.7h1.5v11.3h-1.5v-5.3h-5.9v5.3h-1.5V63.1h1.5zm-75.5 0h-4.6v11.3h4.5c1.8.1 3.4-.9 4.1-2.6.5-1 .7-2.1.7-3.2.1-1.4-.3-2.7-1.1-3.8-.9-1.2-2.2-1.8-3.6-1.7zm3.1 6.9c-.1.6-.3 1.2-.7 1.7-.3.5-.9.9-1.5 1.2-.4.1-.8.2-1.3.2h-2.7v-8.7h2.7c1-.1 2 .3 2.7 1.2.6 1 .9 2.1.8 3.3.1.3 0 .7 0 1.1zm36.8 15.1v5.2h.7v-2.1c.2 0 .4.1.5 0 .6 0 1.2-.2 1.6-.6.3-.3.4-.7.4-1.1 0-.4-.2-.8-.5-1.1-.4-.3-1-.5-1.5-.4-.3 0-.8 0-1.2.1zm2.6 1.5c0 .7-.5 1.1-1.3 1.1-.2 0-.4 0-.6-.1v-2.1c.2 0 .4-.1.6-.1.8.2 1.3.5 1.3 1.2zM61.4 85zm-.3 5.4h.2c1.4 0 2.5-1.1 2.5-2.5v-.3c.1-1.3-.8-2.5-2.1-2.7h-.2c-1.4 0-2.5 1.2-2.5 2.6v.2c-.2 1.4.7 2.6 2.1 2.7zm.2-4.9c1.1 0 1.7 1.1 1.7 2.2 0 1.2-.6 2.2-1.7 2.2s-1.7-1-1.7-2.1c0-1.2.6-2.3 1.7-2.3zm21.9 4.8l.5-1.7h1.9l.6 1.7h.7L85.1 85h-.8l-1.8 5.3h.7zm1.2-3.7c.1-.3.2-.6.3-1 .1.3.2.6.3 1l.5 1.5h-1.6l.5-1.5zm8.2.7h2.6v-2.2h.7v5.3h-.7v-2.5h-2.6v2.5h-.7v-5.3h.7v2.2zm5.5 3v-2.2l-1.7-3h.8l.7 1.5c.2.4.4.7.5 1.1.1-.3.3-.7.5-1.1l.8-1.5h.8l-1.8 3v2.3h-.6zm-48.2-5.2v5.2h.7v-2.1c.2 0 .4.1.5 0 .6 0 1.2-.2 1.6-.6.3-.3.4-.7.4-1.1 0-.4-.2-.8-.5-1.1-.4-.3-1-.5-1.5-.4-.3 0-.7 0-1.2.1zm2.6 1.5c0 .7-.5 1.1-1.3 1.1-.2 0-.4 0-.6-.1v-2.1c.2 0 .4-.1.6-.1.8.2 1.3.5 1.3 1.2zM74 87.7v.3c.1 1.1 1 1.9 2.1 1.8.3 0 .6 0 .9-.1v-1.6h-1.1v-.5h1.7v2.5c-.5.2-1.1.3-1.6.3-.7 0-1.4-.2-2-.7-.5-.5-.8-1.2-.7-2v-.3c.1-1.5 1.4-2.5 2.9-2.4.5 0 .9.1 1.3.2l-.2.6c-.4-.2-.8-.2-1.2-.2h-.3c-1.1.1-1.9 1-1.8 2.1zm-8.6 2.6v-4.7h-1.6V85h3.9v.6h-1.6v4.7h-.7zm-10.6-5.2v2.2h2.6v-2.2h.6v5.3h-.7v-2.5h-2.6v2.5H54v-5.3h.8zm27.1 1.4c0-.4-.1-.7-.4-1-.4-.3-1-.5-1.5-.4-.4 0-.9 0-1.3.1v5.2h.7v-2.3h.6c.6 0 .9.3 1.1 1 .1.4.2.9.3 1.3h.7c-.2-.5-.3-1-.4-1.5 0-.5-.3-.9-.8-1.1.6-.2 1-.7 1-1.3zm-1.9 1h-.7v-1.9c.2 0 .4-.1.7-.1.7 0 1.2.3 1.2 1 0 .6-.5 1-1.2 1zm-12.2 0v.2c-.1 1.3.8 2.5 2.2 2.7h.2c1.4 0 2.5-1.1 2.5-2.5v-.3c.1-1.3-.8-2.5-2.1-2.7h-.2c-1.5.1-2.6 1.2-2.6 2.6zm2.4-2c1.1 0 1.7 1.1 1.7 2.2 0 1.2-.6 2.2-1.7 2.2s-1.7-1-1.7-2.1c.1-1.2.6-2.3 1.7-2.3zm19.7 37.7c-4.1-1.2-8.4-1.4-12.6-.7 2.2-1.7 4.2-3.6 5.9-5.8 4.4-.8 7.2-5 6.4-9.4-.1-.3-.1-.6-.2-.9 0-.1-.2-.2-.4-.2-.1 0-.1.1-.1.1h-.1c-3.5 2-5.8 5.6-6.1 9.7 0 .1 0 .2.1.2-1.8 2.3-3.8 4.3-6.2 6 2-3.5 2.6-7.7 1.6-11.7 0-.1-.2-.2-.3-.2h-.1c-.1-.1-.2-.1-.3 0-2.9 3.5-3.6 8.2-2 12.4h-.1c-.1 0-.2.2-.2.3-2.6 1.7-5.5 3.1-8.6 4 2.9-3.6 4.3-8.1 4-12.6 0-.1-.1-.3-.3-.3 0-.2-.2-.4-.4-.3-4.2 3.2-6.1 8.5-4.9 13.6-2.9.7-5.9 1-8.9.9-.4 0-.4.5 0 .6 3.1.1 6.1-.2 9.1-.9v.1c0 .1.2.2.3.2 0 0 .1 0 .1-.1l.4-.4c.1 0 .3-.1.4-.1 3.3 5 9.6 7.1 15.3 5.1.1 0 .1-.1.2-.2.1 0 .2-.2.2-.3 0 0 0-.1-.1-.1-3.9-3.2-8.7-5-13.8-5.1 2.6-.9 5-2.1 7.3-3.7 0 .1.1.1.1.2 4.3 2.6 9.7 2.6 14.1 0 .1 0 .1 0 .2-.1h.1c.5 0 .2-.5-.1-.3zm-6.3-7.2l.2-.2c2.2-2.5 3.8-5.4 4.9-8.5 0-.1.1-.1.2-.1s.1.1.1.2c-1 3.1-2.7 6-4.8 8.5l-.3.3c-.3.2-.5 0-.3-.2zm5.4-9.1c.7 2.9-.3 5.8-2.5 7.6 2.2-1.7 3.3-4.7 2.5-7.6-.4.2-.8.5-1.2.8.5-.3.8-.5 1.2-.8zM65.5 123c-.2 1.5-.1 3 .3 4.5h.1-.1c-.4-1.5-.5-3-.3-4.5zm.9 4.7c-.1.2-.4.1-.3-.1.1-.3.2-.5.3-.8 1.2-3.5 1.9-7.3 3.2-10.8.1-.2.4-.1.3.1-1.3 3.2-1.9 6.6-3 9.9-.1.7-.3 1.2-.5 1.7zm12.2 5.4h.2-.2zm1-.1c.1 0 .3-.1.4-.1-.1 0-.3.1-.4.1zm.9-.2c.3-.1.5-.1.8-.2-.2 0-.5.1-.8.2zm1-.3c-3.8-3-8.6-4.7-13.5-4.7.2 0 .4.1.6.1 1 .3 1.9.6 2.9 1 1.7.6 3.3 1.3 4.8 2.1.1 0 .1.1.1.2s-.1.1-.2.1c-1.4-.7-2.8-1.4-4.3-1.9-.9-.3-1.7-.7-2.6-1-.3-.1-1.4-.6-1.6-.3-.1.1-.3-.1-.2-.2l-.2-.2h.1c0 .1.1.2.2.2h.5c4.8-.1 9.6 1.6 13.4 4.6zm-5.6-9.9c0-.2 0-.4.1-.5.4-2.9.8-5.9 1.2-8.8 0-.2.3-.1.3.1-.4 2.9-.9 5.8-1.2 8.7 1.9-3.3 2.5-7.2 1.6-11 .9 3.7.3 7.7-1.6 11 0 .2-.1.4-.1.6 0 .1-.3.1-.3-.1zm.3.5c-.2 0-.2-.3 0-.3.5.1 1.1.1 1.6.2 2.8.2 5.7.1 8.5.5.2 0 .2.3 0 .3-3.2-.4-6.4-.2-9.6-.6-.2 0-.3.1-.5.1h-.1l.1-.1c.2 0 .3-.1.5-.1-.1.1-.3 0-.5 0zm7.4 2c1.9-.1 3.7-.6 5.4-1.5l-.1-.1s0 .1.1.1c-1.6 1-3.5 1.4-5.4 1.5zm-16 3zM79 107.7c.3-.1.5-.2.8-.3l-.2-.1c-.3-.2 0-.7.3-.5l.6.5h.1c0-.2 0-.5.1-.8 0-.4.6-.2.5.1v.3c.1 0 .1-.1.2-.1.3-.2.6.3.3.5.4 0 .7.1 1 .2.3.1.2.7-.1.5-.4-.2-.9-.2-1.4-.3l.8.6c.3.2 0 .7-.3.5l-.5-.4c.1.5.2.9.3 1.4.1.3-.4.5-.5.1-.2-.5-.3-1.1-.4-1.6-.1.2-.2.5-.2.8 0 .4-.6.4-.6 0 0-.5.2-.9.4-1.3-.4.1-.7.2-1.1.4-.2.1-.4-.4-.1-.5zm8 21.3l-1 .5.8.2c.1 0 .2.2.2.3 0 .1-.2.2-.3.2l-.9-.3.6.8c.2.3-.3.6-.5.3l-.4-.5-.3 1.1c-.1.4-.6.2-.5-.1l.4-1.6-.1-.1-1.1.5c-.3.1-.6-.3-.3-.5l.8-.4-1.1-.3c-.1-.1-.2-.2-.2-.4 0-.1.2-.2.3-.2l.8.2-.2-.3c-.2-.3.3-.6.5-.3l.6.8.1-.1.4-1.6c.1-.3.6-.2.5.1l-.3 1.2.8-.4c.5.3.8.8.4.9zm15.7-2.5c-3.7-.6-7.4-.5-11 .5-.1 0-.2.2-.2.3 0 .1.1.2.3.2h.2c0 .1 0 .2.1.3 2.8 1.4 6 2 9.1 1.8.3 0 .4-.4.1-.5-1.6-.8-3.3-1.4-5-1.7l6.4-.4c.2 0 .3-.5 0-.5zm-2.8 2.6c-2.4 0-4.7-.5-6.9-1.5 2.4.1 4.7.6 6.9 1.5zm-5.7-2.1c1.7-.3 3.4-.4 5-.3l-5 .3zM0 102.2h19c-.4.6-.7 1.2-1.1 1.8l-.3.6-2.2 3.9-1 1.8c-.1.2-.4.6-.2.8.3.1 1.5-.5 1.7-.6.7-.3 1.4-.7 2.1-1.1 1.3-.8 2.5-1.8 3.4-3 .9-1.2 1.3-2.7 1.2-4.2h.3c.9 6 5.2 10.9 11 12.5-.4.4-.8.9-.9 1.5-.4 1.2.3 2.5 1.5 2.9h.1c1.5.2 2.9-.7 3.4-2.1.5-1.3.1-2.8-1-3.7.1-.3.2-.7.1-1 1.2.7 2.5 1.4 3.7 2-.2.2-.3.4-.3.7-.2-.1-.4-.1-.6 0-.3.1-.4.5-.3.8.1.3.4.4.7.3.2-.1.3-.3.2-.5 0 .1.1.1.2.1v.1l-.1.1c-1.1 1.3-1.5 3-1.1 4.7v.2c.1.3.2.6.4.9.8 1.5 2.6 3.1 4.4 2.4 2-.8 2-3.4 1.3-5.1-.8-1.9-2.6-3.3-4.7-3.5-.1-.3-.1-.6.2-.8l.1-.1c1.1.6 2.3 1.1 3.4 1.7 1.8.9 3.6 1.7 5.4 2.6-.1 0-.2.2-.1.3 0 .1.1.2.1.3-.4.2-.8.1-1.2.3-.3.1-.5.5-.4.8.1.3.5.5.8.4.4-.1.6-.5.9-.8v.3c-.1.1-.1.2-.1.2-1.4.9-2.2 2.6-2 4.3.2 1.5 1.2 3.1 2.9 2.7 1.6-.3 2.3-2.1 2.1-3.6-.2-1.5-1.2-2.9-2.6-3.6 0-.5-.2-1.1-.4-1.6l4.1 1.9v.7c-.4.3-1.3 1-.8 1.5.2.2.5.2.7.1.2-.1.3-.3.3-.5.1.2.1.4.2.5-.1 0-.1.1-.1.2v.1c-.6.7-.7 1.7-.3 2.6.3.8 1 1.9 2 1.8.8-.2 1.4-1 1.2-1.8v-.2c-.4-1.2-1.2-2.2-2.4-2.8-.3-.6-.4-1.3-.4-1.9l3 1.4c-2 1.3.9 3.8 2 4.7.1.1.2 0 .3-.1v-.1c.1-.6 0-1.2-.1-1.8 1.5.7 4.3.2 3.7-1.7-.4-1.1-1.8-1.7-2.8-1.9-1-.3-2 0-2.7.7-1.2-.6-2.4-1.1-3.6-1.7.7-.1 1.3-.3 1.9-.5h.1c1 .8 2.4 1.1 3.7.8 1-.2 2.4-1 2.3-2.2-.1-1.2-1.8-1.6-2.7-1.5-1.4.3-2.5 1.1-3.3 2.3l-.1.1c-.3.1-.7.3-1 .3.2-.1.4-.3.5-.5.1-.3 0-.6-.2-.8-.7-.5-1.4 1.1-1.6 1.5h-.2l-3.7-1.7.5-.3s.1.1.2.1c1.9.4 4.2.8 5.7-.8 1-1 1-2.7 0-3.8l-.3-.3c-1.4-1-3.4-.9-4.7.1-1.1.7-1.7 1.9-1.6 3.2-.1-.1-.3-.1-.4-.2-.4 0-.7.3-.7.6v.1c0 .3.1.5.3.7-1.4-.6-2.8-1.3-4.1-2-.5-.3-1.1-.5-1.6-.8.2 0 .3-.1.4-.3.1-.2.1-.5-.1-.6-.2-.2-.5-.2-.7-.3h.1c.1 0 .2 0 .3-.1 1.8.7 3.8.5 5.5-.4 1.4-.8 2.9-2.7 1.5-4.3-1.3-1.3-3.5-1.1-4.9-.2-1.6 1-2.6 2.7-2.5 4.6l-.4.2c.1-.3.1-.7-.1-1-.1-.3-.4-.6-.8-.5-.3.1-.5.5-.4.8.1.3.4.6.8.7 0 .1 0 .1.1.2l-.5.3s-.1 0-.1.1c-1.5-.7-2.9-1.5-4.4-2.4.4-.1.8-.3 1.2-.6 1.2.5 2.7.3 3.6-.6.9-.8 1-2.2.4-3.2-.7-1-2-1.2-3-.6 0 0-.1 0-.1.1-1.2.9-1.5 2.6-1.3 4v.1c-.2.1-.3.2-.5.3 0-.1 0-.3-.1-.4.2-.2.2-.5.1-.7-.2-.3-.5-.5-.9-.3-.3.1-.5.5-.3.8v.1c.1.2.4.3.6.3l.1.1V111.5c-.1 0-.1 0-.2.1-.1 0-.1 0-.1.1-1-.6-2-1.3-3-2 .1-.1.1-.2.1-.3-.2-.5-.5-.9-.8-1.3.6.2 1.2.3 1.8.3.3 0 .3-.4.1-.5l-1.6-.7c.8-.1 1.5-.5 2-1 .2-.2 0-.5-.3-.5l-3.8.8c-.3.1-.2.6.1.5h.1c-.1.1-.1.3 0 .3.7.5 1.3 1.2 1.7 2-.3-.3-.7-.5-1-.8-.2-.2-.5.2-.2.3 1.5 1.2 3.1 2.2 4.7 3.2v.2c-.3.1-.6-.1-.9 0-.3 0-.5.3-.4.6.1.3.3.5.6.5s.5-.1.7-.3c0 .1 0 .2-.1.3v.2c-.5.1-1.1.3-1.6.6-2.3-4.2-5.1-8.2-8.2-11.8h3.2c0 .3.2.6.4.8.1.1.2.1.4.2.3.1.7.1 1-.2.1-.2.2-.4.2-.6v-.2h2.3c0 .3.1.6.2.9 1.1 3 5.7 3.6 7 .4.2-.4.2-.9.2-1.3h78l-.3 1.5c-1.2.7-2.3 1.6-3.4 2.5-.1 0-.1 0-.1.1-.4.4-.8.7-1.1 1.1 0-.4.2-.8.3-1.2l.1.1c.9-.1.6-1.7-.3-1.5-.4.1-.6.4-.5.8v.1c0 .2.1.4.3.5-.2.5-.3 1-.3 1.5v.1c-.3.3-.5.7-.7 1-.5.8-1.1 1.6-1.7 2.4-2 .7-3.9 1.6-5.7 2.6-.3.2-.6.3-.9.5-.1-.1-.1 0-.1.1-1.6.9-3.1 1.8-4.7 2.7.5-1 .8-2 1-3.1.1-.5.2-1 .3-1.6 0 .1.1.2.2.2 1.6-.6 2.9-1.6 4-2.9l1.4-.2s0 .1.1.1c0 0 .1.1.2 0v-.1c.1.4.4.7.7.7.4 0 .7-.4.6-.8 0-.4-.3-.8-.7-.9-.3 0-.6.1-.8.4l-1.1.2c.8-1.3 1.8-2.9 3.5-2.7 0 .1 0 .2.1.2h.1c.1.3.4.6.8.6.5.1.8-.4.8-.9s-.4-1-.9-1c-.4 0-.7.3-.8.6l-.1-.1c-1.4-.2-2.4.8-3.1 1.8v-.6-.1c.2-.1.4-.3.5-.5v-.2s.1 0 .1-.1c0-.5-.4-.9-.9-1-.4 0-.7.3-.7.7v.1c0 .4.2.8.6 1h.2v1c-.1.2-.2.3-.3.5-.5.8-1.1 1.6-1.9 2.2-.8.5-1.6.9-2.4 1.3l.6-3.3c.2-1 .4-2.1.5-3.1l1.3-1.3c.2.3.7.4 1 .2.3-.3.4-.7.1-1.1-.1-.4-.6-.6-.9-.4h-.1c-.3.2-.4.5-.3.8h-.1l-1.1 1c0-.9-.1-1.7-.3-2.5h-.2c.2.9.3 1.8.3 2.7l-.1.1c-.1.1 0 .2 0 .3-.1 1.2-.3 2.3-.6 3.4l-.6-1.4c.1-.1.2-.2.2-.3.1-.1-.2-.5-.2-.3-.2.4-1.1.6-1.1 0 0-.3.2-.5.4-.6.2-.1.7 0 .8.3 0 .1.1.3.1.3.1 0 .1 0 .1-.1 0-.5-.4-.9-.9-.9-.4 0-.8.4-.8.8s.2.8.6 1c.2.1.4.1.6 0l.6 1.6v.1c0 .2-.1.3-.1.4-.3 1.3-.5 2.7-.8 4-.2 1.3-.7 2.5-1.4 3.5-3 1.7-6.2 3-9.5 3.8.4-.2.7-.4 1-.7 1-1 1.5-2.4 1.5-3.8 0-.3.1-.6.1-.9 0 .1.1.1.1 0 .4-.5.9-1 1.5-1.3.2.5.7.7 1.1.6.4-.2.6-.7.4-1.1-.1-.5-.5-.8-1-.7-.3.1-.6.4-.6.7-.6.3-1.1.6-1.5 1.1.2-1.2.7-2.4 1.4-3.4.3-.4.5-.7.8-1.1 0 .1.1.2.2.2l1.4-.4v.1c.1.4.5.6.9.5.3-.1.5-.5.4-.8-.1-.3-.3-.7-.7-.7-.3 0-.5.2-.6.5 0-.1-.1-.1-.1-.1l-1.1.3c.7-.8 1.4-1.5 2.2-2.2h.5c.2 0 0-.4-.1-.4h-.4s-.1-.1-.1 0l-1.1.1c-.2 0 0 .4.1.4h.5c-1.5 1.3-2.8 3-3.7 4.8-.1-.3-.2-.6-.2-.9v-.2c.5-.3.6-.9.3-1.4 0 0 0-.1-.1-.1-.3-.4-.8-.4-1.1-.2-.1 0-.1.1-.2.2-.2.5-.1 1 .3 1.3.2.1.4.2.6.1 0 .5.1.9.3 1.4-.3.6-.4 1.3-.5 2-.2 1.6-.1 3.4-1.4 4.7-1.2 1.2-3 1.5-4.6 1.8-.1 0 0 .5.2.4.4-.1.8-.1 1.2-.2h.1c.8-.1 1.6-.2 2.4-.4l.1.1c3.5.5 7 .4 10.4-.4 0 .1 0 .2.1.3 1.2.9 2.6 1.5 4 1.6 0 .1 0 .1.1.2l.9 1.1c-.1.2-.2.4-.2.6 0 .6.5 1.1 1.1 1.1.5-.1.9-.6.8-1.1v-.2c-.1-.4-.4-.7-.8-.8-.2 0-.4 0-.5.1v.1s-.1 0-.1.1l-.8-1.1c1.9.2 3.7.8 4.7 2.7h-.2c-.1 0 0 .4.1.4l1 .2c.1 0 0-.4-.1-.4l-.5-.1c-.3-.6-.7-1.2-1.1-1.6h1c.1.1.1.1.2 0 .1.3.4.5.7.5.5 0 .6-.5.5-.8-.1-.4-.4-.8-.8-.7-.3 0-.6.3-.6.6h-1.2c-.1 0-.1.1-.1.2-.6-.5-1.2-.8-2-1-.9-.2-1.9-.3-2.8-.4-.1 0-.3-.1-.4-.1l.9-.5c.1 0 .1 0 .1-.1.1.3.4.5.7.5.4 0 .5-.5.4-.8-.1-.3-.4-.7-.8-.7-.3 0-.6.3-.6.6l-1.1.6c-.1 0-.1.1 0 .2-.8-.2-1.5-.7-2.2-1.2 1.6-.3 3.2-.7 4.8-1 2.1-.5 4.2-.8 6.3-1 0 .1.1.1.1.1l1 .5c-.2.5-.1 1.1.3 1.4.3.2.6.1.8 0 .1.1.1.2.2.1.4-.4.4-1.1 0-1.5-.3-.3-.7-.4-1.1-.2l-.9-.5c.5 0 1-.1 1.5-.1 1.1 0 2.3 0 3.4.1 0 0 0 .1.1.1l.8 1.1c-.1.1-.2.2-.2.3-.1.4 0 .8.3 1 .3.2.6.2.9-.1.1-.1-.1-.5-.2-.4-.1.1-.3.2-.5.1-.1 0-.2 0-.2-.1-.1-.1 0-.2 0-.3.1-.2.3-.3.5-.3.1 0 .3.1.3.3 0 .1 0 .2.1.3.1.1.1 0 .1-.1 0-.4-.2-.7-.5-.9-.1-.1-.2-.1-.4-.1l-.8-1.1c.8.1 1.6.1 2.4.2l.1-.1c-.1 0-.2-.1-.1-.2v-.1c-.6-.1-1.2-.1-1.7-.1.3-.1.5-.3.7-.5h.1c.2 0 .4-.2.6-.4.3-.3.4-.7.2-1-.2-.4-.6-.5-1-.3 0 0-.1 0-.1.1-.4.3-.4.9-.2 1.3 0 0 0 .1.1.1-.2.2-.4.3-.7.4-.1 0-.1.2 0 .3-1.3-.1-2.7-.2-4-.1-2.6.1-5.2.4-7.8 1h-.1c.3-.2.5-.5.7-.9v-.1l.1.1c.4.2.9 0 1.1-.4.2-.4 0-.9-.4-1.2-.3-.3-.8-.2-1 .1 0 .1-.1.1-.1.2-.1.3-.1.7.1 1-.3.5-.8 1-1.3 1.3 0 0-.1.1 0 .1-4.6 1-9.3 2.1-13.9 1.4 2.6-.7 5.2-1.7 7.6-3 .3-.2.7-.4 1-.6 1.9-1 3.7-2.1 5.6-3.2 1.2 1.2 2.9 1 4.6.7 0 .1.1.3.2.2l.1-.1c0 .1.1.1.1.2l.6.5c-.4.6.2 1.8 1.1 1.4.9-.5.2-2-.8-1.7v.1l-.8-.7.1-.1c1.5-.2 3-.3 4.1.9l-.4.3c-.1.1.1.5.2.4l1.1-.9c.1-.1-.1-.5-.2-.4l-.5.4c-1-1.2-2.3-1.3-3.7-1.1l.7-.6c.2.2.6.3.9.1.3-.3.4-.7.2-1.1-.1-.4-.5-.6-.9-.4h-.1c-.3.2-.4.6-.3 1l-1.3 1.1c-1.7.2-3.4.6-4.7-.4.7-.4 1.4-.8 2.2-1.2 1.3-.7 2.6-1.2 4-1.7 0 0 .1.1.1 0l.1-.1c.9-.3 1.9-.7 2.8-1h.3l-.1.1c-.2.2.1.5.3.3.1-.1.2-.3.4-.4h1c1 .1 2.1.3 3.1.5l.3.7c-.5.3-.7.9-.4 1.4.2.3.5.5.9.5 1.1-.1.8-1.7-.1-2 0 0-.1 0-.1.1l-.2-.1-.2-.6c.9.2 1.8.5 2.6.8.1-.1.1-.2.2-.3-.5-.2-1-.3-1.5-.5l.6-.4c.3.2.7.2 1 0 .3-.3.3-.8 0-1.1-.2-.4-.6-.5-1-.3 0 0-.1 0-.1.1-.3.3-.4.7-.2 1.1l-.7.5s-.1.1 0 .2c-.4-.1-.7-.2-1.1-.3-1.1-.3-2.2-.4-3.3-.6h-.2c.4-.1.8-.2 1.1-.3 2.6-.7 5-1.7 7.3-3l.1.1h.8v.2c0 .1 0 .2.1.3.1.3.3.5.6.7.5.2 1 0 1.2-.5 0-.1 0-.1.1-.2.1-.6-.2-1.1-.8-1.3-.4-.1-.8 0-1 .4h-.6c.4-.3.9-.5 1.3-.8.1-.1.2-.1.3-.2 1.2.6 2.5.6 3.8.2 1.1-.4 3.1-1.7 1.6-2.8-.3-.3-.7-.5-1.1-.7H150v-2H0v2.5zm40.4 13.3c.1.1 0 .3-.1.3h-.1c-.2 0-.3-.1-.3-.3 0-.2.1-.4.3-.4.1 0 .2 0 .3.1 0 0-.2.2-.1.3zm9.2 4.6c-.1.2-.3.3-.4.4-.1.1-.3 0-.4-.1 0-.3.5-.4.7-.4h.3c-.1-.1-.1 0-.2.1zm4.5 2.6c-.1.1-.3 0-.2-.1.1-.2.2-.3.4-.4 0 .1 0 .3-.2.5zm2.3 4.4c.1.2.5 0 .3-.3-.7-1-1.2-2.2-1.5-3.4.6.4 1.1.9 1.5 1.5.4.6.8 1.7 0 2.2-.9.6-1.7-.8-2-1.4-.3-.6-.2-1.3.1-1.9.5 1.2 1 2.3 1.6 3.3zm5.8-4.8c.3.1.5.3.7.5.4.3.6.9.5 1.4-.2.5-.8.6-1.2.6-.3 0-.5.1-.8.1.1-.1 0-.2 0-.2-.3-.4-.5-.8-.6-1.3l2.3 1c.2.1.4-.3.1-.4l-2-.9 1-.8c0 .1 0 .1 0 0zm-.4-.1l-1 .9-1.9-.8c.9-.6 2-.6 2.9-.1zm-3.1.4l1.8.8c-.1 0-.1.1-.1.2.1.5.3 1 .7 1.4-.4 0-.8-.1-1.1-.4-.3-.7-.8-1.4-1.3-2zm-.6.1s.1 0 0 0c.1-.1.1-.1.1 0 .5.5.9 1.1 1.2 1.8-.1.1-.1.2 0 .3l.1.1c.2.5.2 1.1.2 1.7-.5-.4-1-.9-1.5-1.4-.4-.7-1.1-1.9-.1-2.5zm3.9-4.4c.1.1.2.3.2.5-.1 1.1-1.6 1.6-2.5 1.6-.8.1-1.6-.1-2.3-.5 1.5-.4 3.1-.9 4.6-1.6zm-2.8-.6c.6-.2 1.2-.3 1.8-.1.3.1.5.2.7.3-1.5.7-3.1 1.2-4.7 1.6.5-.7 1.2-1.4 2.2-1.8zm-4.3 1.7c.1-.1.1-.2.2-.3 0-.1.1-.1.1-.2h.3c.2.3-.3.6-.5.7-.1.1-.3.2-.4.4h-.1c.2-.2.3-.4.4-.6zm-3.6 7.7c-.1 0-.2.1-.3.1v-.1c-.1-.7-.1-1.3-.2-2h.1l.9 1.4c0 .1.1.1.2.1-.1.3-.4.4-.7.5zm1-.7v-.1l-1-1.5c0-.1-.1-.1-.2-.1l-.3-.4-.1-.1v-.1c0-.4-.1-.7-.1-1.1.6.5 1.3 1 2 1.4h.2c.1.7-.1 1.4-.5 2zm-1.6-5.4c1 .5 1.7 1.4 2 2.6 0 .2.1.3.1.5-.8-.4-1.5-1-2.1-1.6-.1-.5-.1-1 0-1.5zm-.1 6.2s.1 0 0 0c-.6 0-1.2-.3-1.6-.9h.1c.5-.3.9-.7 1.3-1.1l.2 2zm-.2-2.6c-.4.5-.9.9-1.4 1.2 0 0-.1 0-.1.1-.3-.7-.4-1.5-.3-2.2h.1l1.6-1.1c0 .3.1.7.1 1v1zm-.1-3.6v.2c-.1.3-.1.6-.1.9l-1.5 1c.3-.8.8-1.6 1.6-2.1zm.7-3.2c0-.1-.1-.2-.1-.2.3-.3.7-.6 1.1-.9.3.6.8 1.1 1.4 1.5-.9-.1-1.7-.2-2.4-.4zm4.4 0c-.5.2-1 .4-1.6.4 0-.1 0-.2-.1-.2-.6-.3-1.1-.8-1.4-1.4.4-.3.9-.6 1.3-.8v.2c.5.8 1.3 1.4 2.1 1.7-.1 0-.2 0-.3.1zm.7-.5c-.9-.3-1.7-.9-2.2-1.6 0 0 0-.1-.1-.1.8-.4 1.6-.6 2.4-.8.1.1.2.1.3.1l.4-.1c.2.8 0 1.9-.8 2.5zm.2-3.4c.1.1.2.3.3.4l-.1.1s-.1-.1-.2-.1c-.8.2-1.7.4-2.4.7.1-.7.3-1.4.7-2 .6.2 1.2.5 1.7.9zm-3.9-.2v-.2c.5-.2 1.1-.4 1.6-.4-.3.7-.5 1.4-.6 2.1v.1c-.4.2-.9.5-1.3.7-.2-.8-.1-1.6.3-2.3zm-.5.1c-.4.8-.4 1.7-.1 2.5-.4.3-.8.7-1.2 1-.7-1.2.2-2.7 1.3-3.5zm-2.2 3.2c.3.2.3.6.2.9-.2-.1-.5-.3-.6-.6-.1-.3.2-.4.4-.3zm-6.6-2.5c.1 0 .3 0 .4.1.1.1 0 .2-.1.1-.2 0-.3-.1-.3-.2zm.7-.8c.3-.3.7-.7 1.1-.9.5.4 1.1.8 1.8 1.1-1 .1-2 0-2.9-.2zm4.2-.2c-.2.1-.5.2-.7.2 0-.1-.1-.1-.1-.1-.7-.3-1.3-.7-1.9-1.2.3-.3.7-.5 1.1-.7 0 .1 0 .2.1.2.6.6 1.4 1 2.2 1.3-.3.1-.5.2-.7.3zm.9-.5c0-.1-.1-.1-.1-.1-.8-.3-1.6-.7-2.2-1.2h-.1c.1-.1.2-.1.3-.2 0 0 .1 0 .1-.1.3-.1.6-.3.9-.4.6.5 1.3.9 2 1.2-.2.3-.5.6-.9.8zm1.5-2.8s.1 0 0 0c.3.6.1 1.2-.3 1.7l-.1-.1c-.6-.2-1.2-.6-1.7-1l2.1-.6zm-2.7-1.5c.8-.1 1.6.2 2.2.7.1.1.2.2.3.4-.8.1-1.6.4-2.4.7-.1 0-.1 0-.1.1-.2.1-.5.2-.7.3.1-.7.3-1.4.7-1.9.1-.1.1-.2 0-.3zm-2.3.9s0-.1 0 0c0-.1 0-.1.1-.1.6-.4 1.2-.6 1.9-.7-.4.7-.7 1.5-.8 2.3-.5.3-1 .5-1.4.9 0-.8 0-1.6.2-2.4zm-.5.3c-.1.8-.2 1.6-.1 2.4-.4.3-.8.7-1.2 1.1H43.3c0-1.3.6-2.6 1.6-3.5zm-3 3.2c-.1-.1-.1-.5.1-.4.2.1.2.3.2.5v.2c-.1-.1-.3-.2-.3-.3zm.7 1.2v.3c.1.1.1.2.2.3-.2-.1-.5-.2-.7-.3l.5-.3zm-2 7.3c-.1-.2-.3-.5-.3-.7 0-.1-.1-.2-.1-.4.4-.9.9-1.7 1.6-2.3l.4 1s-.1 0-.1.1l-1.5 2.3zm.2.4l1.5-2.4.6 1.3-.7 2.4c-.5-.3-1-.8-1.4-1.3zm1.8 1.5l.6-2 .9 2.1c-.5.2-1 .1-1.5-.1zm1.9 0l-1-2.1 1.8 1.3c-.1.3-.4.6-.8.8zm1.1-1.3l-1.8-1.3c-.1-.1-.2 0-.3.1l-.6-1.2 2.8 1h.1c0 .5-.1 1-.2 1.4zm-.4-3.4c.2.5.4 1.1.5 1.6l-3.1-1.1-.5-1.1 3.1.6c0-.1 0 0 0 0zm-4-2.9c1.6.2 2.9 1.1 3.8 2.4l-3-.5-.7-1.6s0-.1-.1-.1v-.2zm-.3.5l.6 1.4c-.6.6-1.1 1.3-1.5 2.1-.2-1.3.1-2.5.9-3.5zm-2-5.4l.7-.7 1.6.6c-.7.3-1.6.3-2.3.1zm2.6-.4c0-.1-.1-.1-.1-.2l-1.5-.6.7-.8 1.7.6c-.2.5-.4.8-.8 1zm.7-2.8c.3.5.4 1 .2 1.5l-1.5-.5 1.1-1.2c.1 0 .2.1.2.2zm-.5-.5l-1.1 1.1-.5-1.3v-.1c.5-.1 1.2 0 1.6.3zm-2.3.3l.3-.3.6 1.4-.8.9-.3-1.7c0-.1 0-.1-.1-.1.1-.1.2-.2.3-.2zm-.5.7l.3 1.8-.7.7c-.1-.9.1-1.7.4-2.5zm-1.7 2.4c-.3.1-.5-.2-.2-.4.3-.1.4.2.4.4h-.2zm-1.2 2.2c-.1 0-.3-.1-.2-.2.1-.1.4 0 .6 0-.1.1-.2.2-.4.2zm78.8-7.2c0-.2.2-.4.4-.4s.5 0 .5.3c0 .1-.1.2-.2.3h-.1c-.2 0-.5.1-.6-.2zm-6.6 3.4c.2-.1.5-.1.6.1.1.2 0 .4-.2.5-.1.1-.2.1-.4 0-.1 0-.3-.1-.3-.2s0-.2-.1-.3c.2 0 .3-.1.4-.1zm2.6-3.1c.2-.1.6-.1.8.2.1.3-.1.6-.3.7-.3.1-.8 0-.8-.4 0-.1 0-.1-.1-.2.1-.1.2-.3.4-.3zm-4.2.7c-.2 0-.5 0-.5-.3s.2-.5.4-.6c.2-.1.7.1.7.3v.1c-.2.3-.4.5-.6.5zm-1.6-3c.2-.1.5 0 .6.2.2.5-.7.7-1 .4-.1-.2.2-.6.4-.6zm-10.1 11c-.1-.6.9-1.1 1.2-.4.1.3-.1.6-.4.7-.3.1-.7 0-.8-.3zm2.5-4.3c.1-.1.4-.1.5.1.1.2-.1.4-.3.5-.2.1-.5 0-.6-.1.1-.3.2-.5.4-.5zm-4.7 1.3c-.2 0-.4-.2-.4-.4 0-.1 0-.2.1-.3.2-.3.5-.4.8-.2.2 0 .3.2.3.4-.2.3-.5.5-.8.5zm13.7 13.6c.1-.2.4-.4.7-.4.4 0 .8.2.7.6-.1.4-.4.6-.8.6-.5 0-.8-.4-.6-.8zm4.5-1.3c.2-.1.4 0 .5.1.1.2 0 .4-.2.5-.1.1-.2.1-.3 0-.1 0-.3-.1-.3-.2s0-.2-.1-.2c.2 0 .3-.1.4-.2zm-5.7-2.3c.2-.1.4-.1.6.1.1.1 0 .4-.2.4-.1 0-.2.1-.3 0-.1 0-.1 0-.2-.1 0 0-.1-.1-.1 0 0-.1 0-.2-.1-.3.2 0 .2-.1.3-.1zm8.6-1.1c0-.1.1-.1.1-.1h.1c.1 0 .1 0 .1-.1.2-.1.4-.1.5 0 .2.1.3.2.3.4 0 0-.1-.1-.1 0-.1.3-.3.5-.7.5-.2 0-.4-.2-.4-.4 0-.1 0-.2.1-.3zm5.5-3.2c.2-.1.5-.2.7 0 .1.1.1.3 0 .4h-.1s0 .1-.1.1h-.1l-.1.1-.1.1c-.1-.1-.1-.2-.2-.2-.1.1-.1.2-.2.3 0 0-.1 0-.1-.1-.1-.2.1-.6.3-.7zm-12.3.6c.1 0 .1 0 0 0 .2-.2.5-.3.8-.1.6.4-.3 1-.7.8-.2-.2-.2-.5-.1-.7zm4.7-1.3c.1 0 .1-.1 0 0l.1-.1c.2-.1.6 0 .8.2.1.2-.2.5-.4.6-.2.1-.5.1-.7-.1 0-.2 0-.5.2-.6zm.8-3.2c.2-.1.4 0 .5.2.1.4-.5.6-.8.5 0-.1-.1-.1-.1-.2 0-.2.1-.4.4-.5zm8.2-1.2l.2.1c.1 0 .1 0 .1-.1.6.2.4 1-.2 1.1-.3 0-.7 0-.7-.4.1-.3.3-.6.6-.7zm1.9-2.6c.2-.1.5 0 .6.3.1.2-.1.4-.3.5-.2.1-.4.1-.5 0 0-.1-.1-.2-.2-.2-.1-.2.2-.6.4-.6zm3.8-2.5v-.1c.1-.2.3-.3.5-.4.4-.1.9.1.8.6-.1.8-1.6.8-1.3-.1zm-108.6-2.4c.4-.9.9-1.7 1.5-2.6h1.3c-1.2 3.4-3.3 6.3-6.1 8.5l3.3-5.9zm2.9 2c-1.4 1.6-3.2 2.8-5.2 3.5 2.5-2.2 4.4-5 5.5-8.1h1.4c0 1.7-.6 3.4-1.7 4.6zm2.6-4.6h.7c.6 1.8 1.7 3.5 3.1 4.9 2.4 2.5 4.9 4.9 7.4 7.3-.1 0-.1.1-.2.1-5.8-1.5-10.1-6.4-11-12.3zm10.4 13.6c0 .1.1.2.2.2l1.8-.4-.6 1.2H35c-.4.3-1 .4-1.5.4 0 0-.1 0-.1.1-.1-.5 0-1.1.3-1.5zm-.2 1.8h.1c.4 0 .8-.1 1.1-.3-.2.4-.5.8-.7 1.1-.3-.2-.5-.5-.5-.8zm1.4 1.2c-.2 0-.4-.1-.5-.1.3-.4.5-.8.7-1.2l.6 1.2c-.3.1-.6.2-.8.1zm1.2-.2l-.7-1.5c.2-.3.3-.6.5-.9.4.5.8 1 1.1 1.6l.1.1c-.3.3-.7.6-1 .7zm.7-4.6v-.1c.6.6.9 1.3 1 2.2l-1.3-1.3c.1-.3.2-.6.3-.8zm.8 2.3c.1.1.1.1.2.1-.1.5-.2.9-.5 1.2-.4-.7-.8-1.3-1.3-1.8.1-.2.2-.5.3-.7l1.3 1.2zm-1.3-2.3c-.1.4-.3.8-.4 1.1l-2 .5c.2-.2.4-.5.7-.7.3.1.6.1.9.2h.1c.1 0 .1-.1.1-.2-.1-.2-.2-.3-.3-.5.2-.2.6-.3.9-.4zm-1.5.2s-.1 0 0 0c-2.4-2.2-4.7-4.4-6.9-6.7-1.5-1.5-2.9-3.2-3.6-5.2h2.1c3.2 3.6 6 7.6 8.4 11.9zm2.4-9.3c-1.2-.5-1.9-1.5-2.1-2.7h2c.2.5.5.9 1 1.2.2.1.4.2.6.2.8.1 1.6-.5 1.7-1.4h1c.2 2.2-2.4 3.4-4.2 2.7zm1.5-1.8h-.1l-.9-.7s0-.1-.1-.1h.5c0 .3.2.6.6.8zm91.2-.9h-.4.4zm-1.6 0c-.7.2-1.5.6-1.6 1.4v.5h-.2c0-.9.5-1.7 1.3-2.1h.5zm-1.1 2.8c-.2 0-.4-.1-.5-.3l.2-.1c.1.2.2.3.3.4zm-1.1-.6c-.6.2-1.3.4-1.9.6-.1-.1-.2-.3-.4-.3-.4-.2-.9 0-1.1.4 0 .1-.1.2-.1.3v.3c-1.1.4-2.1.9-3.2 1.4 1.6-1.4 3.2-3 4.5-4.7h3c-.5.4-.9 1.2-.8 2zm-1.9 1.1c0 .4-.5.8-1 .7-.1 0-.2-.1-.2-.2.4-.2.8-.3 1.2-.5zm-1.2 0c0-.1 0-.1 0 0 .2-.3.6-.5.9-.3l-.9.3zm-3.8 1.1c0-.1-.1-.2-.1-.2.3-.7.6-1.5.8-2.2.4-.3.9-.6 1.3-.8l.5.2c.1 0 0-.4-.1-.4l-.2-.1c0-.1-.1-.2-.2-.1l-.1.1-.6-.2-.2.1c0-.2 0-.3.1-.5h3.1c-1.4 1.3-2.8 2.7-4.3 4.1zm-1.2.9c-.2-.1-.4-.2-.4-.4 0-.1 0-.2-.1-.2 0 .1.1.1.1 0 .1-.3.6-.6 1-.5-.2.3-.4.7-.6 1.1zm.9-.3c-.1.1-.2.1-.3.2.1-.3.3-.6.4-.8v.2l-.1.1c-.1 0-.1.2 0 .3zm1.3-4.2l.5.1-.6.3c0-.1.1-.3.1-.4zm-.9 1.5l-.6 1.5c-.1 0-.1-.1-.2-.1-.5-.1-1 .1-1.2.6 0-.1-.1-.2-.2-.2-.2.1-.4.1-.5.1.9-.7 1.8-1.3 2.7-1.9zm-3.4 5.5l-.9.3h-.1s-.1 0-.1.1c-.6.2-1.2.4-1.7.6.4-.5.7-1 1-1.6.6-.9 1.2-1.7 2-2.4.1-.1.2-.2.3-.2.3.1.7.2 1.1 0v.1c0 .4.2.7.5.9-.5.7-1 1.5-1.5 2.1-.3 0-.5.1-.6.1zm6.4-2.2c-1.7.7-3.4 1.3-5.2 1.8.4-.5.8-1 1.1-1.6h.2c.1 0 .1-.1.2-.1.2 0 .3-.1.5-.2 1.2-.6 2.5-1.2 3.8-1.7.1.2.2.3.3.4l-.9 1.4zm3-1.5c-.8.5-1.6.9-2.4 1.3l.5-.8v-.1c.4.1.9-.2 1-.6v-.5c.6-.2 1.1-.4 1.7-.5 0 0 .1 0 .1.1v.1c0 .1.1.1.2.1.1.1.2.1.3.2-.4 0-.9.4-1.4.7zm2.3-1c.1 0 .1-.1 0 0l.1-.1c.1 0 .2-.1.2-.2v.1c0 .1.1.2.2.2.3.1.6.1.8 0 .1.1.2.2.3.2-.5.1-1 0-1.6-.2zm2-.8c-.1.1-.2.2-.3.2 0-.2.1-.3.2-.4 0 0 0 .1.1.2 0-.1 0-.1 0 0zm.2-1.3H129.5c-.1 0-.2 0-.3.1-.1 0-.2 0-.3.1h-.3c.2-.1.5-.3.8-.4h.1l.6.2h-.3zm2.1-.2c.3.2 1 .5.7 1.1-.2.3-.5.6-.8.7-.3.2-.6.3-.9.5l.1-.1c.3-.1.6-.3.8-.6.2-.1.5-.3.7-.5.1-.1.1-.2 0-.3 0-.1 0-.2-.1-.3.1-.1 0-.2-.1-.3-.5-.4-1-.7-1.6-.8 0-.1-.1-.2-.2-.2s-.3 0-.4-.1h.4c.4.3.9.6 1.4.9zm-.5-55.2c.4-.2.8-.5 1.1-.7 1.5-1.2-.5-2.4-1.6-2.8-1.2-.4-2.6-.3-3.7.2-.1-.1-.2-.1-.3-.2-.4-.3-.8-.6-1.3-.8h.6c.2.3.6.5 1 .4.5-.2.9-.7.8-1.3-.1-.5-.6-.8-1.1-.7-.1 0-.1 0-.2.1-.3.1-.5.4-.6.7-.1.1-.1.2-.1.3v.2h-.8s-.1 0-.1.1c-2.3-1.3-4.8-2.3-7.3-3-.4-.1-.8-.2-1.1-.3h.1s0 .1.1 0c1.1-.1 2.2-.3 3.3-.6.4-.1.7-.2 1.1-.3v.2l.7.5c-.2.4-.1.8.2 1.1.3.2.8.2 1-.2v-.1c.3-.3.3-.8 0-1.1-.3-.3-.7-.3-1 0l-.6-.4c.5-.2 1-.3 1.5-.5-.1-.1-.1-.2-.2-.3-.9.3-1.7.6-2.6.8l.2-.6.2-.1c0 .1 0 .1.1.1.9-.2 1.2-1.8.1-2-.6 0-1 .4-1 1 0 .4.2.7.5.9l-.3.7c-1 .2-2 .4-3.1.5h-1.1c-.1-.1-.2-.3-.3-.4-.2-.2-.5.1-.3.3h-.2c-1-.3-1.9-.6-2.8-1l-.1-.1h-.1c-1.4-.5-2.7-1.1-4-1.7-.7-.4-1.5-.8-2.2-1.2 1.3-1 3-.7 4.7-.4l1.3 1.1c-.1.4 0 .8.3 1 .4.2.8 0 1-.4.2-.3.2-.8-.2-1.1-.3-.2-.7-.1-.9.1l-.7-.6c1.4.2 2.7.1 3.7-1.1l.5.4c.1.1.3-.3.2-.4l-1.1-.9c-.1-.1-.3.3-.2.4l.4.3c-1.1 1.2-2.5 1.1-4.1.9l-.1-.1.8-.7v.1c.9.4 1.7-1.2.8-1.7-.8-.4-1.5.8-1.1 1.4l-.6.5c-.1.1-.1.1-.1.2l-.1-.1c-.1-.1-.2.1-.2.2-1.7-.3-3.3-.5-4.6.7-1.9-1-3.7-2.1-5.6-3.2-.3-.2-.7-.4-1-.6-2.4-1.3-4.9-2.3-7.6-3 4.7-.7 9.4.5 13.9 1.4v.1c.6.3 1 .7 1.3 1.3-.2.3-.2.7-.1 1 .2.4.6.5 1 .4.1 0 .1-.1.2-.1.4-.3.5-.8.4-1.2-.2-.4-.7-.6-1.1-.4l-.1.1V31c-.2-.3-.4-.6-.7-.9h.1c2.6.6 5.2.9 7.8 1 1.3 0 2.7 0 4-.1-.1.1-.1.3 0 .3.3.1.5.2.7.4l-.1.1c-.2.4-.2 1 .2 1.3.3.2.8.2 1-.2 0 0 0-.1.1-.1.2-.3.1-.8-.2-1-.1-.2-.4-.3-.6-.4h-.1c-.2-.2-.4-.4-.7-.5.6 0 1.2-.1 1.7-.1v-.1c0-.1 0-.2.1-.2l-.1-.1c-.8.1-1.6.1-2.4.2l.8-1.1c.1 0 .3 0 .4-.1.3-.2.5-.5.5-.9 0-.1-.1-.1-.1-.1-.1.1-.1.2-.1.3 0 .2-.2.3-.3.3-.2 0-.4-.1-.5-.3 0-.1-.1-.2 0-.3.1-.1.1-.1.2-.1.2 0 .4 0 .5.1.1.1.3-.3.2-.4-.2-.2-.6-.3-.9-.1-.3.2-.4.6-.3 1 0 .1.1.2.2.3l-.8 1.1s0 .1-.1.1c-1.1.1-2.3.1-3.4.1-.5 0-1 0-1.5-.1l.9-.5c.4.2.8.1 1.1-.2.4-.4.4-1.1 0-1.5-.1-.1-.1 0-.2.1-.2-.2-.6-.2-.8 0-.4.3-.6.9-.3 1.4l-1 .5-.1.1c-2.1-.2-4.2-.5-6.3-1-1.6-.3-3.2-.7-4.8-1 .6-.5 1.4-.9 2.2-1.2v.2l1.1.6c.1.3.3.6.6.6.4 0 .7-.3.8-.7.1-.4 0-.8-.4-.8-.3 0-.6.2-.7.5 0-.1-.1-.1-.1-.1l-.9-.5c.1 0 .3-.1.4-.1.9-.2 1.9-.2 2.8-.4.7-.2 1.4-.5 2-1 0 .1 0 .2.1.2h1.2c.1.3.3.6.6.6.4 0 .7-.4.8-.7s-.1-.8-.5-.8c-.3 0-.6.2-.7.5 0-.1-.1-.1-.2 0h-1c.5-.5.9-1 1.1-1.6l.5-.1c.1 0 .3-.5.1-.4l-1 .2c-.1 0-.3.5-.1.4h.2c-.9 1.9-2.7 2.4-4.7 2.7l.8-1.1.1.1v.1c.2.1.3.1.5.1.4-.1.7-.4.8-.8.2-.5-.1-1.1-.6-1.3h-.2c-.6 0-1.1.5-1.1 1.1 0 .2.1.4.2.6l-.9 1.1c0 .1-.1.1-.1.2-1.5.1-2.9.7-4 1.6-.1.1-.1.2-.1.3-3.4-.8-7-.9-10.4-.4 0 0-.1 0-.1.1-.8-.2-1.6-.3-2.4-.4h-.1c-.4-.1-.8-.2-1.2-.2-.2 0-.3.4-.2.4 1.6.3 3.4.6 4.6 1.8 1.3 1.3 1.2 3 1.4 4.7.1.7.3 1.3.5 2-.2.4-.3.9-.3 1.4-.2 0-.4 0-.6.1-.4.3-.5.9-.3 1.3.3.4.8.4 1.1.2l.2-.2c.3-.4.3-1-.1-1.4l-.1-.1v-.2c0-.3 0-.6.2-.9.9 1.8 2.2 3.5 3.7 4.8H96c-.1 0-.3.4-.1.4l1.1.1h.5c.1 0 .3-.4.1-.4h-.5c-.7-.7-1.5-1.4-2.2-2.2l1.1.3s.1 0 .1-.1c.1.3.3.4.6.5.4 0 .6-.3.7-.7.1-.3 0-.7-.4-.8-.4-.1-.8.2-.9.5v.1l-1.4-.4c-.1 0-.1.1-.2.2-.3-.3-.6-.7-.8-1.1-.7-1-1.2-2.2-1.4-3.4.4.5.9.9 1.5 1.1 0 .3.3.6.6.7.5.1.9-.2 1-.7.2-.4 0-.9-.4-1.1-.5-.1-1 .1-1.1.6-.6-.3-1.1-.7-1.5-1.3h-.1c0-.3-.1-.6-.1-.9 0-1.4-.5-2.8-1.5-3.8-.3-.3-.6-.5-1-.7 3.3.8 6.5 2.1 9.5 3.8.8 1 1.3 2.3 1.4 3.5.3 1.3.5 2.7.8 4 0 .1.1.3.1.4v.1l-.6 1.6c-.2-.1-.4-.1-.7 0-.4.2-.6.6-.6 1s.3.8.7.8c.5-.1.9-.4.9-.9 0-.1 0-.2-.1-.1s-.1.2-.1.3c-.1.3-.6.4-.8.3-.2-.1-.4-.3-.4-.6 0-.6 1-.3 1.1 0 .1.2.3-.2.2-.3 0-.1-.1-.2-.2-.3l.6-1.4c.3 1.1.5 2.3.6 3.4-.1.1-.1.3 0 .3l.1.1c.1.9 0 1.8-.3 2.7h.2c.2-.8.3-1.7.3-2.5l1.1 1h.1c-.1.3.1.6.3.8.4.2.8 0 1-.3v-.1c.2-.3.2-.8-.1-1.1-.3-.2-.8-.1-1 .2l-1.3-1.3c-.1-1-.3-2.1-.5-3.1l-.6-3.3c.8.3 1.6.8 2.4 1.3.8.6 1.4 1.3 1.9 2.2.1.2.2.3.3.5v1h-.2c-.4.2-.7.6-.6 1 0 .4.3.7.7.8h.1c.5-.1.8-.5.9-1 0-.1 0-.1-.1-.1v-.2c-.1-.2-.2-.4-.5-.5v-.1-.6c.7 1 1.7 2 3.1 1.8 0 0 .1 0 .1-.1.1.4.5.6.8.6.5 0 .8-.5.9-1 .1-.5-.2-1-.8-.9-.4.1-.6.3-.8.6h-.1c-.1.1-.1.1-.1.2-1.7.2-2.7-1.4-3.5-2.7l1.1.2c.2.3.5.4.8.4.4-.1.7-.5.7-.9s-.2-.8-.6-.8c-.4 0-.7.3-.7.7v-.1c0-.1-.1 0-.2 0 0 0 0 .1-.1.1l-1.4-.2c-1-1.3-2.4-2.3-4-2.9-.1 0-.1.1-.2.2-.1-.5-.2-1-.3-1.6-.2-1.1-.5-2.1-1-3.1 1.6.9 3.2 1.8 4.7 2.7 0 .1 0 .2.1.1.3.2.6.3.9.5 1.8 1 3.8 1.9 5.7 2.6.7.7 1.2 1.5 1.7 2.4.2.4.5.7.7 1v.1c0 .5.1 1 .3 1.5-.1.1-.2.3-.3.5-.1.3 0 .7.4.9h.1c.9.2 1.3-1.5.3-1.5 0 0-.1 0-.1.1-.2-.4-.3-.8-.3-1.2.3.4.7.8 1.1 1.1 0 .1 0 .2.1.1 1.1.9 2.2 1.7 3.4 2.5.1.5.2 1.1.3 1.6h-78c0-.4 0-.9-.2-1.3-1.3-3.2-5.9-2.5-7 .4-.1.3-.2.6-.2.9h-2.3v-.2c0-.4-.3-.8-.7-.9-.2 0-.3 0-.5.1-.5.1-.8.5-.8 1h-3.2c3.2-3.6 5.9-7.6 8.2-11.8l1.5.6v.2c0 .1.1.2.1.3-.2-.2-.5-.3-.7-.3-.3 0-.5.2-.6.5 0 .3.1.6.4.6.3.1.6-.1.9 0v.2c-1.6 1-3.2 2-4.7 3.2-.2.2 0 .5.2.3.3-.3.7-.5 1-.8-.4.8-1 1.5-1.7 2-.1.1-.1.2 0 .3h-.1c-.3-.1-.5.5-.1.5l3.8.8c.3.1.5-.3.3-.5-.6-.5-1.3-.9-2-1l1.6-.7c.3-.1.3-.5-.1-.5-.6 0-1.2.1-1.8.3.3-.4.6-.8.8-1.3 0-.1 0-.3-.1-.3 1-.7 2-1.3 3-2l.1.1c.1 0 .2 0 .2.1V38.2c-.1 0-.1 0-.1.1-.2 0-.5.1-.6.3-.2.3-.1.7.2.8h.1c.3.2.7 0 .9-.3.1-.2.1-.5-.1-.7 0-.1.1-.2.1-.4.2.1.3.2.5.3v.1c-.2 1.4.1 3.1 1.3 4 .9.7 2.3.5 3-.4 0 0 0-.1.1-.1.7-1 .5-2.4-.4-3.2-1-.9-2.4-1.1-3.6-.6-.4-.3-.7-.5-1.2-.6 1.4-.8 2.9-1.6 4.4-2.4l.1.1.5.3s-.1.1-.1.2c-.4.1-.6.4-.8.7-.1.3.1.6.4.8.4.1.6-.2.8-.5.1-.3.1-.7.1-1l.4.2c-.1 1.9.9 3.6 2.5 4.6 1.4.8 3.7 1.1 4.9-.2 1.4-1.5 0-3.5-1.5-4.3-1.7-.9-3.7-1.1-5.5-.4.4.4.3.3.2.4h-.1c.2-.1.5-.1.7-.3.2-.1.2-.4.1-.6-.1-.1-.3-.2-.4-.3.5-.3 1.1-.5 1.6-.8 1.4-.7 2.8-1.3 4.1-2-.2.2-.3.4-.3.7 0 .4.3.7.6.7h.1c.1 0 .3-.1.4-.2-.1 1.3.5 2.5 1.6 3.2 1.4 1.1 3.3 1.1 4.7.1 1.2-.9 1.4-2.6.5-3.7l-.3-.3c-1.5-1.6-3.8-1.2-5.7-.8-.1 0-.1 0-.2.1l-.5-.3 3.7-1.7h.2c.2.5.9 2 1.6 1.5.3-.2.4-.5.2-.8-.1-.2-.3-.4-.5-.5.3.1.7.2 1 .3l.1.1c.7 1.2 1.9 2 3.3 2.3 1 .1 2.6-.2 2.7-1.5.1-1.2-1.3-1.9-2.3-2.2-1.3-.3-2.6 0-3.7.8h-.1c-.6-.3-1.3-.4-1.9-.5l3.6-1.7c.7.7 1.8.9 2.7.7 1-.2 2.5-.8 2.8-1.9.6-2-2.2-2.4-3.7-1.7.1-.6.2-1.2.1-1.8 0-.1-.1-.2-.2-.2h-.1c-1.1.8-4 3.3-2 4.7l-3 1.4c0-.7.2-1.3.4-1.9 1.1-.6 2-1.6 2.4-2.8.3-.8-.2-1.7-1-1.9H56c-1-.1-1.7 1-2 1.8-.4.9-.3 1.9.3 2.6v.1c0 .1 0 .1.1.2-.1.2-.2.4-.2.5 0-.2-.2-.4-.3-.5-.2-.1-.5-.1-.7.1-.5.5.4 1.2.8 1.5v.7l-4.1 1.9c.2-.5.3-1 .4-1.6 1.4-.7 2.4-2 2.6-3.6.2-1.5-.5-3.2-2.1-3.6-1.7-.4-2.7 1.2-2.9 2.7-.2 1.7.6 3.4 2 4.3 0 .1 0 .2.1.2v.3c-.3-.3-.5-.7-.9-.8-.3-.1-.7 0-.8.4-.1.3.1.7.4.8.4.2.8.1 1.2.3 0 .1-.1.2-.1.3 0 .1 0 .2.1.3-1.8.9-3.6 1.7-5.4 2.6-1.1.5-2.3 1.1-3.4 1.7l-.1-.1c-.2-.2-.3-.5-.2-.8 2.1-.2 3.9-1.5 4.7-3.5.7-1.7.7-4.3-1.3-5.1-1.8-.7-3.6.9-4.4 2.4-.1.3-.3.6-.4.9 0 0-.1.1 0 .2-.4 1.7 0 3.4 1.1 4.7l.1.1v.1c-.1 0-.1 0-.2.1 0-.2-.1-.4-.2-.5-.3-.1-.6 0-.7.2-.1.3 0 .7.3.8.2.1.4.1.6 0 0 .2.1.5.3.7-1.3.6-2.5 1.3-3.7 2 0-.4 0-.7-.1-1 1.1-.9 1.5-2.4 1-3.7-.5-1.4-1.9-2.3-3.4-2.1-1.2.3-2 1.6-1.6 2.8v.1c.2.6.5 1.1 1 1.5-5.8 1.7-10.1 6.5-11 12.5h-.3c.1-1.5-.4-3-1.2-4.2-.9-1.2-2-2.3-3.4-3-.7-.4-1.4-.7-2.1-1.1-.3-.1-1.4-.7-1.7-.6-.3.2.1.6.2.8l1 1.8 2.2 3.9.3.6c.3.6.7 1.2 1.1 1.8H0v2h150v-2h-18.6zm-3.7-5.1c.1.4-.5.7-.8.6-.2-.1-.4-.2-.5-.4v-.1c-.3-.9 1.2-.9 1.3-.1zm-5.5-3c.1 0 .1 0 .2-.2.2-.1.4-.1.5 0 .2.1.4.3.3.5-.1.2-.4.3-.6.3-.2 0-.5-.4-.4-.6zm-2-2.8c0-.3.4-.4.7-.4.6.1.8.9.2 1.1 0-.1 0-.1-.1-.1l-.2.1c-.4 0-.6-.3-.6-.7zm-8-1.1c.3-.2 1 0 .8.5-.1.2-.3.3-.5.2-.2-.1-.4-.3-.4-.5 0 0 .1-.1.1-.2zm-.6-3.1c.2-.2.4-.2.7-.1.2.1.5.3.4.6-.1.3-.5.3-.8.2h-.1s0-.1-.1-.1c-.1-.1-.2-.4-.1-.6zm-4.6-1.4c.1 0 .1 0 0 0 .5-.2 1.4.4.8.8-.2.2-.6.1-.8-.1-.1-.2-.2-.5 0-.7zm12.1.6c0-.1.1-.1 0 0 .2 0 .2.1.3.2 0 .1.1 0 .2-.2l.1.1c0 .1 0 .1.1.1h.1s0 .1.1.1h.1c.1.1.2.3 0 .4-.2.1-.5.1-.7 0-.3-.1-.5-.5-.3-.7zm-5.3-3.1c.1-.1.2-.1.3-.1.3 0 .6.2.7.5 0 .1.1 0 .1 0 0 .2-.1.4-.3.4-.2.1-.4.1-.5 0 0-.1 0-.1-.1-.1h-.1c-.1 0-.1-.1-.1-.1-.2-.2-.2-.4 0-.6zm-8.7-.9s.1-.1 0 0c.1-.1.2-.1.2-.1h.3c.1.1.3.3.2.4-.1.2-.4.2-.6.1-.1 0-.2-.1-.2-.2.1-.1.1-.1.1-.2zm5.6-2.4c0-.1.2-.1.3-.2h.3c.2.1.2.3.2.5-.1.2-.4.2-.5.1-.1 0-.2-.1-.3-.2-.1-.1 0-.1 0-.2zm-3.7-1.6c.4 0 .7.3.8.6.1.4-.3.6-.7.6-.3 0-.5-.2-.7-.4-.2-.4.1-.8.6-.8zM93.3 38.8c0 .2-.1.3-.2.4-.3.1-.6 0-.8-.2-.1-.2-.1-.4.1-.6.1-.1.2-.1.3-.1.3 0 .6.2.6.5zm3.8.4c.1-.2.4-.2.6-.1.2.1.3.3.3.5-.1.2-.3.2-.5.1-.3-.1-.4-.3-.4-.5zm-2.2-3.9c.1-.3.6-.3.8-.2.3.1.5.4.4.7-.3.5-1.4 0-1.2-.5zm9.7 10.4c.3-.3 1.1-.1 1 .4-.1.2-.3.3-.6.2-.2 0-.5-.4-.4-.6zm5.8-2.2c0-.3.5-.5.8-.4.3.1.4.4.3.7-.1.3-.5.3-.8.2-.2-.1-.3-.2-.4-.4.1 0 .1 0 .1-.1zm-3.3.2v.1c0 .3-.5.4-.7.3-.2-.1-.4-.3-.4-.6s.3-.3.5-.3c.3.1.5.3.6.5zm.9-3.3c0-.1.2-.2.3-.2h.4c.2.1.3.3.2.5-.2.2-.4.2-.6.1-.1 0-.2-.1-.3-.2v-.2zm7.4 3.8c.1 0 .1 0 0 0 .2.1.2.2.3.3.1.2-.3.3-.5.3s-.4-.2-.4-.4c.1-.4.4-.3.6-.2zm-79-6.9c-.1 0-.4.1-.6 0-.1-.1.1-.2.2-.2s.3.1.4.2zm3.3 5.4l-.3-.3c-.1-.1-.2-.2-.2-.3l.1-.1.3-1.7.8.9-.7 1.5zm.4.2l.6-1.3 1.1 1.1c-.5.4-1.2.4-1.7.2zm2.3-2.2c.2.5.1 1.1-.2 1.5-.1.1-.1.2-.2.2l-1.1-1.2 1.5-.5zm-.9-1.3c.3.2.6.5.8.9l-1.7.6-.7-.8 1.5-.6c.1 0 .1 0 .1-.1zm-.3-.2l-1.6.6-.7-.8c.7-.2 1.6-.2 2.3.2zm-2.7.1l.6.7-.3 1.8c-.3-.8-.4-1.7-.3-2.5zm7 1.2c-.1 0-.1 0 0 0l-.1-.1c-.1-.8-.2-1.6-.2-2.4.4.3.9.6 1.4.9.1.8.3 1.6.8 2.3-.7-.1-1.4-.3-1.9-.7zm4.5 0c-.6.6-1.4.8-2.2.7V41c-.4-.6-.6-1.3-.7-1.9.2.1.5.2.7.3l.1.1c.8.3 1.6.5 2.4.7l-.3.3zm0-2.3l.1-.1c.4.5.5 1.1.4 1.7h-.1c-.7-.1-1.4-.3-2.1-.6.5-.4 1.1-.7 1.7-1zM48.9 37c.4.2.7.5 1 .8-.7.3-1.4.7-2 1.2-.3-.1-.6-.3-.9-.4l-.1-.1c-.1 0-.2-.1-.3-.2h.1c.6-.6 1.4-1 2.2-1.2-.1 0 0 0 0-.1zm-1.7-.7c.3.1.5.1.7.2.2.1.4.2.5.3-.7.2-1.4.7-2.1 1.2-.1.1-.1.1-.1.2-.4-.2-.7-.5-1.1-.7.6-.5 1.2-.9 1.9-1.2.2.1.2 0 .2 0zm-.5-.2c-.6.3-1.2.7-1.8 1.2-.4-.3-.7-.6-1.1-.9.9-.3 1.9-.4 2.9-.3zm-3.3.5h.2c.4.4.8.7 1.2 1.1 0 .8 0 1.6.1 2.4-1-.9-1.6-2.1-1.5-3.5zm9-.1v-.2c-.4-.7-.5-1.5-.3-2.3.4.3.8.5 1.3.7v.1c.1.7.3 1.4.6 2.1-.5 0-1.1-.2-1.6-.4zm3.9-.4c-.5.5-1.1.8-1.8.8-.3-.6-.6-1.3-.7-2 .8.3 1.6.6 2.4.7.1 0 .1 0 .2-.1l.1.1c0 .2-.1.3-.2.5zm-.2-3.4c.8.6 1 1.6.7 2.6l-.4-.1c-.1 0-.2 0-.3.1-.8-.2-1.6-.4-2.4-.8 0 0 .1 0 .1-.1.6-.8 1.3-1.4 2.3-1.7zm-2.3-.9c.5 0 1.1.1 1.6.4.1.1.2.1.3.2-.9.3-1.6.9-2.1 1.7v.2c-.5-.2-.9-.5-1.3-.8.3-.6.8-1.2 1.4-1.4.1-.1.1-.2.1-.3zm-2.8.4c.7-.2 1.5-.3 2.3-.4-.6.3-1.1.8-1.4 1.5-.4-.3-.7-.6-1.1-.9.1-.1.2-.1.2-.2zm-.4.5c.4.4.8.7 1.2 1-.3.8-.3 1.7.1 2.5-1.1-.8-2-2.3-1.3-3.5zm9-3.2c.9.1 2.4.6 2.5 1.6 0 .2 0 .4-.1.5-1.5-.7-3.1-1.2-4.7-1.7.7-.2 1.5-.4 2.3-.4zm-2.6.9c1.6.4 3.2 1 4.7 1.6-.2.2-.5.3-.7.3-.6.1-1.2.1-1.8-.1-1-.3-1.7-1-2.2-1.8-.1 0 0 0 0 0zm1.8-2.6l1.9-.8 1 .9c-.9.4-2 .4-2.9-.1zm2.6-2.8c.3 0 .5 0 .8.1.5.1 1 .2 1.2.6.2.5 0 1.1-.5 1.4-.2.2-.5.4-.7.5v-.1l-1-.8 2-.9c.2-.1.1-.5-.1-.4l-2.3 1c.1-.5.3-.9.6-1.3V25zm-1.5.4c.3-.2.7-.4 1.1-.4-.3.4-.6.9-.7 1.4 0 .1 0 .2.1.2l-1.8.8c.6-.6 1-1.2 1.3-2zm-1.6-.6c.4-.5.9-1 1.5-1.4 0 .6-.1 1.1-.2 1.7l-.1.1c-.1.1-.1.2 0 .3-.3.7-.7 1.3-1.2 1.8v.1s0-.1-.1-.1c-1.1-.6-.5-1.8.1-2.5zm-3.4-.6c.3-.7 1.1-2 2-1.4.8.5.4 1.6 0 2.2-.4.6-.9 1.1-1.5 1.5.3-1.2.8-2.4 1.5-3.4.1-.2-.2-.5-.3-.3-.7 1-1.2 2.1-1.5 3.3-.5-.5-.5-1.2-.2-1.9zm-.2 5.8c.1.1.2.3.4.4.2.1.7.4.5.7h-.3c-.1-.1-.1-.1-.1-.2-.1-.1-.1-.2-.2-.3-.1-.2-.3-.4-.4-.7 0 .1 0 .1.1.1zm-.8-2.5c-.1-.2.1-.2.2-.1.2.1.2.4.2.6-.2-.2-.3-.3-.4-.5zm-1.2-1.1c-.3 1.1-1 2.1-2 2.6v-.1c-.1-.5-.2-.9-.1-1.4.6-.6 1.4-1.2 2.1-1.6.1.2.1.3 0 .5zm-1.6-3.5c0-.1 0-.1 0 0h.3c.3.1.5.3.7.5-.1 0-.1 0-.2.1l-.9 1.3h-.1c0-.6.1-1.3.2-1.9zm-.3 3c0-.1 0-.1.1-.2l.3-.4c.1 0 .1 0 .2-.1l1-1.5v-.1c.4.6.6 1.3.6 2-.1-.1-.1-.1-.2 0-.7.4-1.4.8-2 1.4-.1-.4-.1-.8 0-1.1zm-.2-3.2c0 .1 0 .1 0 0l-.2 2.1c-.4-.4-.8-.8-1.3-1.1H49c.4-.6 1-.9 1.6-1zm-2 3.5c-.1-.8 0-1.5.3-2.2 0 0 .1 0 .1.1.5.3 1 .8 1.4 1.2l-.1 1c0 .3-.1.7-.1 1l-1.6-1.1c0 .1 0 .1 0 0zm.1.6l1.4 1c0 .3 0 .6.1.9v.2c-.7-.4-1.2-1.2-1.5-2.1zm.8 3.3c-.2 0-.7-.1-.7-.4 0-.2.2-.2.4-.1s.3.2.4.4c.1.1.1.2.2.2-.1 0-.2-.1-.3-.1zm.4 2c.1.3.1.7-.2.9-.2.1-.5 0-.4-.3 0-.3.3-.5.6-.6zm-6.6 3.2c.1 0 .3 0 .1.1-.1.1-.2.1-.4.1.1-.1.2-.2.3-.2zm-1.1 1.5c0 .2-.1.5-.2.5-.2.1-.2-.3-.1-.4.1-.1.2-.2.4-.3-.1.1-.1.1-.1.2zm.6-1.7c-.1.1-.1.2-.2.3v.2l-.5-.3c.2.1.4 0 .7-.2zm-1.7-1v-.2l.1-.1.7-1.6 3-.5c-.8 1.4-2.2 2.2-3.8 2.4zm4.1-2.9s0 .1 0 0l-3.1.6.5-1.1 3.1-1.1c-.1.6-.2 1.1-.5 1.6zm.5-2l-2.9 1 .6-1.2c0 .1.2.2.3.1l1.8-1.3c.2.4.3.9.2 1.4zm-1.2-2.7c.4.2.7.5.9.9l-1.8 1.3.9-2.2zm-.4-.1l-1 2.1-.6-2c.6-.2 1.1-.3 1.6-.1zm-1.9.3l.7 2.4-.6 1.3-1.5-2.4c.4-.5.9-1 1.4-1.3zm-2 2.4c.1-.2.2-.5.3-.7l1.5 2.4.1.1-.4 1c-.7-.7-1.2-1.5-1.6-2.3 0-.3.1-.4.1-.5zm-.2 1c.4.8.9 1.5 1.5 2.1l-.6 1.4c-.8-1-1.1-2.2-.9-3.5zm.6 4.6c-.1.1-.2.1-.3.1-.2 0-.3-.2-.3-.4s.2-.3.3-.3c.1 0 .2.2.2.3v.1c-.3.1 0 .3.1.2 0-.1 0 0 0 0zm-3.3 4.6c.1.2-.1.5-.4.4-.3-.2 0-.5.2-.4h.2zm85.4 5.1v.2c.1.4.4.7.9.7.1 0 .2 0 .3-.1.2-.1.3-.2.4-.3.6.2 1.3.4 1.9.6-.1.9.3 1.7.9 2.2h-3c-1.4-1.7-2.9-3.3-4.5-4.7.9.6 2 1 3.1 1.4zm.3-.4c0-.1.1-.1.1-.2h.1c.5-.1 1 .3 1 .7-.4-.2-.8-.3-1.2-.5zm.9.8zm0 0c-.3.1-.7 0-.8-.3v-.1c.2.2.5.3.8.4zm2.6.9h.2v.1c-.1.1-.1.1 0 .2v.2c.1.8.9 1.2 1.6 1.4h-.5c-.8-.2-1.3-1-1.3-1.9zm.2-.5c.2-.1.3-.2.5-.3h.1l-.3.3c-.2.1-.2.1-.3 0zm2.8 2.6h.1-.1zm1-.3c.6-.1 1.2-.4 1.6-.8.1-.1.1-.2.1-.3.1 0 .2-.2.1-.3.1-.1.1-.3 0-.3-.2-.2-.4-.4-.7-.5-.2-.3-.5-.5-.8-.6l-.1-.1c.3.1.7.3.9.5.3.2.6.4.8.7.3.6-.4.9-.7 1.1-.4.4-.9.6-1.4.8h-.5c.1 0 .3 0 .4-.1.2.1.3 0 .3-.1zm-.7-.7h.3l-.6.2h-.1c-.3-.1-.5-.2-.8-.4h.3c.1 0 .2.1.3.1.1.1.2.1.3.1H129.8zm-.2-1.2c-.1 0-.1.1-.1.2-.1-.1-.2-.3-.2-.4.1 0 .2 0 .3.2zm-.3-1.2c-.1.1-.2.1-.3.2-.3-.1-.6-.1-.8 0-.1 0-.2.1-.2.2v.1c0-.1-.1-.2-.2-.2 0 0-.1 0-.1-.1.5-.1 1-.2 1.6-.2zm-4-.7c.5.3 1 .6 1.4 1-.1.1-.2.1-.3.2-.1 0-.2 0-.2.1v.1s-.1 0-.1.1c-.6-.2-1.2-.4-1.7-.5.1-.2.1-.4 0-.6-.1-.4-.6-.7-1-.6v-.1l-.5-.8c.8.2 1.7.6 2.4 1.1zm-3-1.6c0 .1 0 .1 0 0l.8 1.4c-.1.1-.3.3-.3.5-1.3-.5-2.5-1-3.7-1.6-.2-.2-.4-.3-.6-.3h-.1-.2c-.3-.6-.7-1.1-1.1-1.6 1.7.3 3.5.9 5.2 1.6zm-3.7 1.6c-.4 0-.9-.2-1-.5 0-.1-.1-.1-.1 0 0-.1.1-.2.1-.2 0-.2.2-.3.4-.4.2.3.4.7.6 1.1zm0-1.1c.1.1.2.1.3.2v.1c-.1.1-.1.2-.1.3 0 0 0 .1.1.1l.1.1v.2c-.2-.4-.3-.7-.4-1zm-2.6.4c-.7-.7-1.4-1.5-2-2.4-.3-.5-.7-1.1-1-1.6.6.2 1.1.4 1.7.6 0 0 0 .1.1.1h.1l.9.3c.1 0 .2.1.3.1.6.7 1.1 1.4 1.6 2.2-.3.2-.5.5-.5.8v.1c-.4-.1-.7-.1-1.1 0 .1-.1 0-.1-.1-.2zm.7.5c.2 0 .4 0 .5.1.1 0 .1-.1.2-.2.2.5.7.7 1.2.6.1 0 .1-.1.2-.1l.6 1.5c-1-.5-1.9-1.2-2.7-1.9zm3.4 3c.2.1.4.2.6.4l-.5.2c-.1-.3-.1-.4-.1-.6zm.1.7l.2.1.6-.2.1.1c.1 0 .1 0 .2-.1l.2-.1c.1 0 .2-.5.1-.4l-.5.2c-.5-.3-.9-.6-1.3-.8-.2-.7-.5-1.5-.8-2.2 0-.1.1-.2.1-.2 1.5 1.3 2.9 2.8 4.2 4.4h-3.1c.1-.4.1-.6 0-.8zm-83-2.1c1.9-.7 4.4.5 4.2 2.7h-1c-.1-.8-.8-1.5-1.7-1.4-.2 0-.4.1-.6.2-.5.3-.8.7-1 1.2h-2c.1-1.2.9-2.2 2.1-2.7zm.9 2.7h-.5s0-.1.1-.1l.9-.7h.1c-.4.1-.6.4-.6.8zm-11.7 0h-2.1c.7-2 2.1-3.7 3.6-5.2 2.3-2.3 4.6-4.5 6.9-6.7h.1c-2.5 4.2-5.3 8.2-8.5 11.9zm10.5-11.6c-.1 0-.1 0 0 0-.1-.1-.1-.1-.1-.2-.1-.2-.2-.5-.3-.7l1.3-1.3c0 .8-.3 1.6-.9 2.2zm.4-3.8c.2.2.3.5.4.7.1.2.1.3.1.5-.1 0-.2 0-.2.1l-1.3 1.2c-.1-.2-.2-.5-.3-.7.5-.6.9-1.2 1.3-1.8zm-.3-.3c-.1 0-.1.1-.1.1-.3.6-.7 1.1-1.1 1.6-.1-.3-.3-.6-.5-.9l.7-1.5c.4.1.8.4 1 .7zm-2.2-.9c.3 0 .5 0 .8.1l-.6 1.2c-.2-.4-.5-.8-.7-1.2.2-.1.4-.1.5-.1zm-.8.3c.3.4.5.7.7 1.1-.4-.1-.8-.2-1.1-.3h-.1c0-.2.2-.5.5-.8zm-.3 2.7c-.3-.4-.4-.9-.3-1.4l.1.1c.5 0 1 .2 1.5.4h.1l.6 1.2-1.8-.5c-.1 0-.2.1-.2.2zm.1.2l2 .5c.2.4.3.7.5 1.1-.4-.1-.7-.2-1.1-.4.1-.2.2-.3.3-.5 0-.1 0-.2-.1-.2h-.1c-.3.1-.6.1-.9.2-.1-.2-.4-.4-.6-.7zm.5 1.1c.1 0 .1.1.2.1-2.5 2.4-5 4.8-7.4 7.3-1.4 1.3-2.5 3-3.1 4.9h-.7c.9-5.9 5.2-10.8 11-12.3zm-13.6 7.7c1.1 1.3 1.7 2.9 1.6 4.6h-1.4c-1.1-3.1-3-5.9-5.5-8.1 2.1.7 3.8 1.9 5.3 3.5zm-2.9 2l-3.4-6c2.8 2.2 4.9 5.2 6.1 8.5h-1.3c-.4-.8-.9-1.6-1.4-2.5zm73.9-22.1c3.6.9 7.3 1.1 11 .5.3-.1.2-.5-.1-.5l-6.4-.4c1.8-.3 3.5-.9 5-1.7.3-.1.1-.5-.1-.5-3.1-.2-6.3.5-9.1 1.8-.1 0-.2.2-.1.3h-.2c-.2 0-.3.1-.3.3.1 0 .2.1.3.2zm7.6.2c-1.7.1-3.4 0-5.1-.3l5.1.3zm.6-2.4c-2.2.9-4.5 1.4-6.9 1.5 2.2-1 4.5-1.4 6.9-1.5zm-43.6.5c3-.1 6 .2 8.9.9-1.2 5.1.7 10.5 4.9 13.6.2.2.4-.1.4-.3.1 0 .3-.1.3-.3.3-4.6-1.1-9.1-4-12.6 3 .9 5.9 2.3 8.6 4-.1.1 0 .3.1.3h.1c-1.7 4.2-.9 8.9 2 12.4.1.1.2.1.3 0 .1.1.3.1.4-.1v-.1c1-4 .4-8.2-1.6-11.7 2.3 1.7 4.4 3.7 6.2 6-.1 0-.2.1-.1.2.3 4 2.6 7.7 6.1 9.7.2.1.4.1.6 0 1.3-4.2-1.1-8.7-5.3-10-.3-.1-.6-.2-.9-.2-1.7-2.2-3.7-4.1-5.9-5.8 4.2.7 8.4.5 12.5-.7h.1c.3.2.6-.3.3-.5h-.1c0-.1-.1-.1-.2-.1-4.3-2.6-9.7-2.6-14.1 0-.1 0-.1.1-.1.2-2.3-1.5-4.7-2.7-7.3-3.7 5-.1 9.9-1.9 13.8-5.1.1-.1.1-.2 0-.3l-.1-.1c0-.1-.1-.1-.2-.2-5.6-2-12 .1-15.3 5.1-.1 0-.3-.1-.4-.1l-.4-.4c-.1-.1-.3-.1-.4 0l-.1.1v.1c-3-.7-6-1.1-9.1-.9-.4.1-.4.6 0 .6zm27.5 12.3c.1.1.2.2.3.4 3.8 1.2 6 5.1 5 9 1-3.8-1.2-7.8-5-9 2.2 2.5 3.8 5.3 4.8 8.5 0 .1 0 .2-.1.2s-.2 0-.2-.1c-1-3.1-2.7-6-4.9-8.5l-.2-.2c-.1-.2.1-.4.3-.3zm-7.6-6.8c.2 0 .4 0 .5-.1-.2 0-.3-.1-.5-.1l-.1-.1c1.5-.9 3.1-1.4 4.7-1.7-1.7.2-3.3.8-4.7 1.7l.1.1c.2 0 .3.1.5.1 3.2-.3 6.4-.2 9.6-.6.2 0 .2.3 0 .3-2.8.4-5.7.3-8.5.5-.5 0-1.1.1-1.6.2-.2 0-.2-.3 0-.3zm-.3.5c0-.2.3-.2.3 0s0 .4.1.6c1.9 3.3 2.5 7.3 1.6 11 .9-3.7.3-7.7-1.6-11l1.2 8.7c0 .2-.3.3-.3.1-.4-2.9-.9-5.9-1.2-8.8-.5 1.4-.7 2.9-.6 4.3-.1-1.4.1-2.9.6-4.3-.1-.2-.1-.4-.1-.6zm-8.5-5.3c-.1-.1.1-.3.2-.2 1.9-2.6 4.8-4.3 7.8-4.8-3.1.5-5.9 2.2-7.8 4.8.2.2 1.4-.2 1.6-.3.9-.3 1.8-.6 2.6-1 1.5-.5 2.9-1.1 4.3-1.9.1 0 .2 0 .2.1s0 .2-.1.2c-1.5.8-3.2 1.5-4.8 2.1-.9.4-1.9.7-2.9 1-.1 0-.4.1-.6.1 4.9 0 9.6-1.6 13.5-4.7-3.8 3-8.6 4.7-13.5 4.7h-.5c-.1 0-.2.1-.2.2h-.1l.3-.3zm8.5-5.1h-.2.2zm-9.5 5.3c.2.5.4 1 .5 1.6 1 3.3 1.7 6.7 3 9.9.1.2-.2.3-.3.1-1.4-3.5-2-7.2-3.2-10.8-.1-.3-.2-.5-.3-.8-.1-.1.2-.2.3 0zm-.6.2c-1.2 4.8.6 9.8 4.4 12.9-3.9-3.1-5.6-8.1-4.4-12.9zm17 20.1c-.3.1-.7.2-1 .2.3.2 0 .6-.3.5-.1 0-.1-.1-.2-.1v.3c0 .3-.5.5-.5.1 0-.3-.1-.5-.1-.8h-.1l-.6.5c-.3.2-.6-.3-.3-.5l.2-.1c-.3-.1-.6-.2-.8-.3-.3-.2 0-.6.3-.5.3.2.7.3 1.1.4-.2-.4-.4-.8-.4-1.3 0-.4.5-.4.6 0 0 .3.1.5.2.8.1-.5.2-1.1.4-1.6.1-.3.7-.2.5.1-.2.4-.3.9-.3 1.4l.5-.4c.3-.2.6.3.3.5l-.8.6c.5 0 .9-.1 1.4-.3 0-.2.2.4-.1.5zm.4-21.5c0-.1 0-.3.2-.3l1.1-.3-.9-.5c-.3-.1 0-.6.3-.5l1.1.5.1-.1-.4-1.6c-.1-.3.5-.5.5-.1l.3 1.1.4-.5c.2-.3.7 0 .5.3l-.7.9.9-.3c.1 0 .3 0 .3.2 0 .1 0 .3-.2.3l-.7.3 1 .5c.3.1 0 .6-.3.5l-.8-.4.3 1.2c.1.3-.5.5-.5.1l-.4-1.6-.1-.1-.6.8c-.2.3-.7 0-.5-.3l.2-.3-.8.2c-.1.2-.3.1-.3 0z" fill="#1a1818"/>
</svg>
